<?xml version="1.0" encoding="utf-8"?>
<!-- Generator: Adobe Illustrator 28.1.0, SVG Export Plug-In . SVG Version: 6.00 Build 0)  -->
<svg version="1.1" id="Calque_1" xmlns="http://www.w3.org/2000/svg" xmlns:xlink="http://www.w3.org/1999/xlink" x="0px" y="0px"
	 viewBox="0 0 606.6 151.7" style="enable-background:new 0 0 606.6 151.7;" xml:space="preserve">
<style type="text/css">
	.st0{fill:#FEFEFE;}
	.st1{fill:#EC1C24;}
	.st2{fill:#EC1D25;}
	.st3{fill:#FEFDFD;}
</style>
<g>
	<path class="st0" d="M0,151.7C0,101.1,0,50.6,0,0c202.2,0,404.4,0,606.6,0c0,50.6,0,101.1,0,151.7C404.4,151.7,202.2,151.7,0,151.7
		z M76.7,149.6c5-0.5,10.1-0.5,14.9-1.5c13.7-2.7,25.7-9.1,35.9-18.7c20-18.7,27.9-47.4,20.3-73.6c-9.7-33.7-39.1-51.3-63.3-53.1
		c-8.7-0.7-17.4-0.5-25.9,1.9C34,11.6,16.9,26.8,7.7,50.7c-5,12.9-5.8,26.3-3,39.8c4.1,20,14.9,35.9,32.1,47.1
		C48.8,145.4,62,149.9,76.7,149.6z M337.4,78.6c-0.3,8.8,0.7,14.6,2.9,20.2c3.4,8.7,9.2,14.8,18.2,17.8c4.8,1.6,9.7,3,14.9,3.2
		c7,0.3,14.1,0.2,20.9-1.8c9.6-2.8,16.5-8.6,20.4-17.9c1.6-3.8,2.6-7.7,2.8-11.8c0.4-7.3,0.4-14.5-1.3-21.6
		c-2.2-9-7.2-15.9-15.3-20.5c-5.6-3.1-11.7-4.1-17.9-4.7c-6.3-0.6-12.4,0-18.6,1.2c-12.1,2.3-20.2,9.2-24.4,20.7
		C337.6,69.3,337.5,75.3,337.4,78.6z M281.1,87.7c14,0,27.9,0,41.8,0c0-4.5,0-8.7,0-13.1c-14,0-27.9,0-42,0c0.2-1.4,0.2-2.6,0.4-3.7
		c1-5.2,3.5-9.3,8.8-11.3c0.7-0.3,1.3-0.7,1.9-0.9c0.6-0.2,1.3-0.4,1.9-0.5c9.6-0.2,19.3-0.4,28.9-0.5c0.6,0,1.2-0.1,1.8-0.1
		c0-4.5,0-8.9,0-13.3c-0.3,0-0.6,0-0.9,0c-8,0-16-0.1-23.9,0.1c-4.8,0.1-9.6,0.1-14.3,0.8c-7.4,1.1-13.1,5.3-17.3,11.4
		c-4.3,6.2-6.6,13-6.9,20.5c-0.3,7.8-0.1,15.5,3.4,22.7c5.4,11.2,13.6,18.2,26.8,17.9c9.2-0.2,18.4,0.1,27.6,0.2c1.9,0,3.8,0,5.7,0
		c0-4.5,0-8.8,0-13.3c-0.5,0-0.9,0-1.2,0c-8-0.1-16-0.2-24-0.3c-3.1-0.1-6.3-0.1-9.3-1.3C284.2,100.6,280.9,94.4,281.1,87.7z
		 M603.6,117.4c-0.2-0.5-0.2-0.8-0.4-1.2c-10.3-23.6-20.6-47.1-30.9-70.7c-0.4-0.8-0.9-1.2-1.7-1.3c-4-0.5-8-0.2-12,0.3
		c-3.2,0.4-5.7,2.1-7.2,5c-1.5,3-3.2,6-4.6,9.1c-8.5,19.3-17,38.7-25.4,58.1c-0.1,0.2-0.2,0.5-0.3,0.9c0.7,0.1,1.3,0.2,1.9,0.2
		c3.6,0,7.2-0.2,10.8-0.2c3.9,0,6.7-1.9,8.5-5.2c1.8-3.3,3.3-6.7,4.8-10.1c0.4-0.8,0.7-1.1,1.6-1.1c8.9,0.1,17.8,0.2,26.8,0.2
		c1.4,0,2,0.4,2.6,1.7c1.5,3.5,3.2,6.9,5,10.2c1.3,2.3,3.4,3.8,6.1,4c4.5,0.3,9,0.3,13.5,0.4C602.9,117.8,603.2,117.6,603.6,117.4z
		 M174.6,44.9c0.3,0.7,0.5,1.2,0.7,1.6c10.4,23.6,20.8,47.2,31.1,70.7c0.5,1.1,1.3,1.3,2.3,1.2c2.8-0.1,5.5-0.2,8.3-0.5
		c4.3-0.4,7.6-2.2,9.2-6.5c0.2-0.5,0.5-1.1,0.8-1.6c9.8-21.5,19.7-43,29.5-64.5c0.1-0.3,0.2-0.6,0.2-0.7c-4.9,0-9.7-0.2-14.5,0.1
		c-3.6,0.2-6.5,2.1-7.9,5.5c-2.3,5.3-4.6,10.7-6.8,16.1c-3.7,8.9-7.4,17.9-11.2,26.8c-0.3,0.6-0.6,1.2-1,2c-2.6-6-5-11.7-7.4-17.4
		c-3.9-9-7.8-18-11.9-27c-1.7-3.7-4.7-5.8-8.9-6c-2.7-0.1-5.4-0.1-8-0.1C177.6,44.6,176.2,44.8,174.6,44.9z M431,44.5
		c0,0.3,0,0.6,0,1c0,13.3,0,26.7,0.1,40c0,4.4,0.1,8.8,0.7,13.1c1.2,8.1,5.8,13.7,13.3,16.9c4.1,1.8,8.5,2.3,13,2.3
		c8.4,0.1,16.8,0.1,25.2,0.1c0.3,0,0.5-0.1,0.8-0.1c0-4.4,0-8.7,0-13.1c-0.4,0-0.8-0.1-1.2-0.1c-7.2-0.1-14.4-0.2-21.7-0.3
		c-2.8,0-5.5-0.3-7.9-2c-2.7-2-4.5-4.4-4.6-8c-0.1-11.9-0.3-23.9-0.5-35.8c0-2.6-0.3-5.2-0.4-7.8c-0.2-3.7-2.4-5.6-5.9-6
		C438.4,44.1,434.7,44.5,431,44.5z M511.9,44.1c-2.1,0-4-0.1-5.9,0c-2,0.1-4.1,0.3-6.1,0.8c-2.9,0.7-4.4,2.7-4.6,5.7
		c-0.1,2.2-0.2,4.5-0.3,6.7c-0.1,19.4-0.2,38.7-0.3,58.1c0,0.8,0,1.6,0,2.6c4-0.1,7.8-0.1,11.7-0.5c3-0.3,4.7-2.3,5-5.2
		c0.2-2.6,0.5-5.2,0.5-7.8c0.1-19.8,0.1-39.7,0.1-59.5C511.9,44.7,511.9,44.3,511.9,44.1z"/>
	<path class="st1" d="M76.7,149.6c-14.7,0.3-27.9-4.2-40-12C19.5,126.4,8.8,110.5,4.7,90.5c-2.8-13.4-1.9-26.8,3-39.8
		c9.2-23.9,26.4-39.1,51-46.1c8.5-2.4,17.2-2.6,25.9-1.9c24.2,1.8,53.6,19.4,63.3,53.1c7.5,26.2-0.4,55-20.3,73.6
		c-10.2,9.6-22.2,15.9-35.9,18.7C86.7,149.1,81.7,149.1,76.7,149.6z M77.8,118c26.6-0.4,53.8-22.6,51.4-56.8
		c-1.8-26-26.6-50.8-58.1-47.2C45.4,16.9,20,40.8,26,75.6c2.4,14.1,10.2,25.1,21.9,33.3c8.4,5.8,17.8,8.8,28,9.1
		c-2.6-3.6-5.2-7.2-7.7-10.7c-1.3-1.8-2.3-3.8-3.5-5.8C61.3,96,60.4,90,60.8,83.7c0.4-5.4,2.7-9.7,6.9-12.9c6.7-5.2,19-4.4,23.9,7.1
		c2.6,6.1,2.2,12.3-0.1,18.4c-2.4,6.3-6.1,11.8-10.2,17.1C80.2,114.9,79,116.4,77.8,118z"/>
	<path class="st2" d="M337.4,78.6c0.1-3.3,0.3-9.3,2.4-15.1c4.3-11.5,12.4-18.4,24.4-20.7c6.2-1.2,12.3-1.8,18.6-1.2
		c6.2,0.6,12.4,1.6,17.9,4.7c8.2,4.5,13.1,11.5,15.3,20.5c1.7,7.1,1.7,14.4,1.3,21.6c-0.2,4.1-1.3,8-2.8,11.8
		c-3.9,9.3-10.9,15.1-20.4,17.9c-6.8,2-13.9,2.1-20.9,1.8c-5.1-0.2-10-1.6-14.9-3.2c-9-3-14.8-9.2-18.2-17.8
		C338,93.2,337.1,87.4,337.4,78.6z M398.3,80.4c0-3.9-0.3-8.2-1.5-12.4c-1.8-6.3-5.6-10.8-12.2-12.4c-3.3-0.8-6.6-0.9-10-0.7
		c-8.4,0.5-14.3,4.9-16.5,12.9c-2.4,8.6-2.3,17.4,0.2,26c1.8,6.2,5.7,10.5,12.2,12.2c3.5,0.9,7,0.6,10.5,0.3
		c8-0.6,13.2-4.8,15.6-12.4C398,89.7,398.3,85.3,398.3,80.4z"/>
	<path class="st2" d="M281.1,87.7c-0.2,6.7,3.2,12.9,9.1,15.3c3,1.2,6.2,1.2,9.3,1.3c8,0.2,16,0.2,24,0.3c0.4,0,0.8,0,1.2,0
		c0,4.4,0,8.8,0,13.3c-1.9,0-3.8,0-5.7,0c-9.2-0.1-18.4-0.4-27.6-0.2c-13.2,0.2-21.4-6.8-26.8-17.9c-3.5-7.2-3.7-14.9-3.4-22.7
		c0.3-7.5,2.6-14.4,6.9-20.5c4.2-6.1,9.9-10.3,17.3-11.4c4.7-0.7,9.5-0.7,14.3-0.8c8-0.1,16-0.1,23.9-0.1c0.3,0,0.5,0,0.9,0
		c0,4.5,0,8.8,0,13.3c-0.6,0-1.2,0.1-1.8,0.1c-9.6,0.2-19.3,0.3-28.9,0.5c-0.6,0-1.3,0.2-1.9,0.5c-0.7,0.2-1.3,0.7-1.9,0.9
		c-5.2,2-7.7,6.1-8.8,11.3c-0.2,1.1-0.3,2.3-0.4,3.7c14.1,0,28,0,42,0c0,4.4,0,8.6,0,13.1C309,87.7,295.1,87.7,281.1,87.7z"/>
	<path class="st2" d="M603.6,117.4c-0.4,0.1-0.8,0.3-1.1,0.3c-4.5-0.1-9-0.1-13.5-0.4c-2.7-0.2-4.8-1.7-6.1-4
		c-1.8-3.3-3.4-6.7-5-10.2c-0.6-1.3-1.2-1.7-2.6-1.7c-8.9,0-17.8-0.1-26.8-0.2c-0.9,0-1.2,0.3-1.6,1.1c-1.5,3.4-3.1,6.8-4.8,10.1
		c-1.8,3.3-4.6,5.2-8.5,5.2c-3.6,0-7.2,0.1-10.8,0.2c-0.6,0-1.2-0.1-1.9-0.2c0.1-0.4,0.2-0.7,0.3-0.9c8.5-19.4,16.9-38.7,25.4-58.1
		c1.4-3.1,3-6,4.6-9.1c1.5-2.9,3.9-4.6,7.2-5c4-0.6,8-0.8,12-0.3c0.9,0.1,1.4,0.5,1.7,1.3c10.3,23.6,20.6,47.2,30.9,70.7
		C603.4,116.6,603.5,117,603.6,117.4z M573.2,87.6c-3.6-8.3-7-16.3-10.5-24.3c-0.2,0-0.4,0-0.6,0c-3.6,8.1-7.1,16.2-10.8,24.6
		C558.7,87.8,565.8,88.1,573.2,87.6z"/>
	<path class="st2" d="M174.6,44.9c1.6-0.1,3-0.3,4.4-0.3c2.7,0,5.4,0,8,0.1c4.2,0.2,7.2,2.3,8.9,6c4,9,8,18,11.9,27
		c2.5,5.7,4.9,11.4,7.4,17.4c0.4-0.8,0.8-1.3,1-2c3.7-8.9,7.4-17.9,11.2-26.8c2.2-5.4,4.5-10.8,6.8-16.1c1.5-3.4,4.4-5.3,7.9-5.5
		c4.8-0.3,9.6-0.1,14.5-0.1c-0.1,0.2-0.1,0.4-0.2,0.7c-9.8,21.5-19.7,43-29.5,64.5c-0.2,0.5-0.6,1-0.8,1.6c-1.6,4.2-5,6-9.2,6.5
		c-2.7,0.3-5.5,0.4-8.3,0.5c-1,0-1.8-0.1-2.3-1.2c-10.4-23.6-20.8-47.2-31.1-70.7C175,46,174.8,45.5,174.6,44.9z"/>
	<path class="st2" d="M431,44.5c3.8,0,7.4-0.4,11,0.1c3.5,0.5,5.7,2.3,5.9,6c0.2,2.6,0.4,5.2,0.4,7.8c0.2,11.9,0.4,23.9,0.5,35.8
		c0,3.6,1.8,6.1,4.6,8c2.3,1.7,5.1,2,7.9,2c7.2,0.1,14.4,0.2,21.7,0.3c0.4,0,0.8,0,1.2,0.1c0,4.4,0,8.7,0,13.1
		c-0.3,0-0.5,0.1-0.8,0.1c-8.4,0-16.8,0-25.2-0.1c-4.4,0-8.8-0.6-13-2.3c-7.5-3.2-12.1-8.9-13.3-16.9c-0.6-4.3-0.7-8.7-0.7-13.1
		c-0.1-13.3-0.1-26.7-0.1-40C431,45.1,431,44.8,431,44.5z"/>
	<path class="st1" d="M511.9,44.1c0,0.2,0,0.6,0,0.9c0,19.8,0,39.7-0.1,59.5c0,2.6-0.2,5.2-0.5,7.8c-0.3,3-2,5-5,5.2
		c-3.8,0.4-7.7,0.3-11.7,0.5c0-1,0-1.8,0-2.6c0.1-19.4,0.2-38.7,0.3-58.1c0-2.2,0.1-4.5,0.3-6.7c0.2-3,1.6-5,4.6-5.7
		c2-0.5,4-0.7,6.1-0.8C507.9,44,509.8,44.1,511.9,44.1z"/>
	<path class="st0" d="M77.8,118c1.2-1.6,2.4-3.1,3.6-4.6c4.1-5.3,7.9-10.7,10.2-17.1c2.3-6.1,2.7-12.3,0.1-18.4
		c-5-11.5-17.2-12.2-23.9-7.1c-4.2,3.2-6.5,7.5-6.9,12.9c-0.4,6.3,0.5,12.2,3.9,17.7c1.2,1.9,2.2,3.9,3.5,5.8
		c2.5,3.6,5.1,7.1,7.7,10.7c-10.2-0.3-19.6-3.2-28-9.1C36.1,100.7,28.4,89.6,26,75.6C20,40.8,45.4,16.9,71.1,14
		c31.5-3.6,56.3,21.2,58.1,47.2C131.6,95.4,104.3,117.6,77.8,118z"/>
	<path class="st3" d="M398.3,80.4c0,4.9-0.3,9.3-1.7,13.6c-2.4,7.6-7.6,11.8-15.6,12.4c-3.5,0.2-7,0.6-10.5-0.3
		c-6.4-1.7-10.4-6-12.2-12.2c-2.5-8.6-2.6-17.4-0.2-26c2.2-8,8.1-12.5,16.5-12.9c3.4-0.2,6.7-0.1,10,0.7c6.6,1.7,10.4,6.1,12.2,12.4
		C398.1,72.3,398.4,76.5,398.3,80.4z"/>
	<path class="st3" d="M573.2,87.6c-7.4,0.5-14.5,0.2-21.9,0.3c3.7-8.4,7.3-16.5,10.8-24.6c0.2,0,0.4,0,0.6,0
		C566.2,71.3,569.6,79.2,573.2,87.6z"/>
</g>
</svg>
