<?xml version="1.0" encoding="utf-8"?>
<!-- Generator: Adobe Illustrator 28.1.0, SVG Export Plug-In . SVG Version: 6.00 Build 0)  -->
<svg version="1.1" id="Calque_1" xmlns="http://www.w3.org/2000/svg" xmlns:xlink="http://www.w3.org/1999/xlink" x="0px" y="0px"
	 viewBox="0 0 73.4 53.3" style="enable-background:new 0 0 73.4 53.3;" xml:space="preserve">
<style type="text/css">
	.st0{fill:#9AA1A4;}
</style>
<g>
	<g>
		<path class="st0" d="M45.3,23.7c3.5,0,6.3,0,9.3,0C52.9,17.3,49.1,13,43.2,11c-7.7-2.6-14.3-0.3-19.8,6.1
			c-2.2-2.6-4.4-5.1-6.7-7.7c4.4-5.1,9.8-8.2,16.4-9.1c15.4-2.1,27.8,6.5,31.5,21.8c0.3,1.3,0.9,1.8,2.2,1.7c2-0.1,3.9,0,6.6,0
			c-4.9,5.6-9.4,10.7-14,15.9C54.7,34.4,50.2,29.3,45.3,23.7z"/>
		<path class="st0" d="M28,29.5c-3.5,0-6.2,0-9.3,0c1.6,6.4,5.4,10.7,11.4,12.7c7.7,2.6,14.3,0.3,19.9-6.1c2.2,2.6,4.4,5,6.6,7.6
			c-3.2,3.9-7.2,6.5-11.9,8.1c-15.6,5.3-32.4-4.2-35.9-20.4c-0.3-1.5-0.9-2.1-2.4-2c-1.9,0.1-3.8,0-6.4,0c4.9-5.5,9.4-10.6,14-15.9
			C18.6,18.8,23.1,23.9,28,29.5z"/>
	</g>
</g>
</svg>
