<?xml version="1.0" encoding="utf-8"?>
<!-- Generator: Adobe Illustrator 28.1.0, SVG Export Plug-In . SVG Version: 6.00 Build 0)  -->
<svg version="1.1" id="Calque_1" xmlns="http://www.w3.org/2000/svg" xmlns:xlink="http://www.w3.org/1999/xlink" x="0px" y="0px"
	 viewBox="0 0 129.7 129.3" style="enable-background:new 0 0 129.7 129.3;" xml:space="preserve">
<style type="text/css">
	.st0{fill:#9CA2A7;}
</style>
<g>
	<g>
		<path class="st0" d="M80,49.7c14.9,0,29.7,0,44.6,0.1c1.6,0,3.1,0.1,4.7,0.1c0.1,0.1,0.3,0.3,0.4,0.4c0,9.7,0,19.4,0,29.3
			c-17,0-33.4,0-50,0c0,16.7,0,33.1,0,49.7c-10.1,0-19.9,0-30,0c0-16.5,0-32.9,0-49.6c-16.6,0-33.1,0-49.7,0c0-10.1,0-19.9,0-29.9
			c16.4,0,32.8,0,49.7,0c0-16.7,0-33.2,0-49.8c9.9,0,19.8,0,29.8,0c0,5.1,0,10.1,0,15c0.1,8.3,0.3,16.6,0.4,24.8
			c0,3.1-0.2,6.2-0.3,9.3C79.7,49.4,79.8,49.6,80,49.7z"/>
	</g>
</g>
</svg>
