<?xml version="1.0" encoding="utf-8"?>
<!-- Generator: Adobe Illustrator 28.1.0, SVG Export Plug-In . SVG Version: 6.00 Build 0)  -->
<svg version="1.1" id="Calque_1" xmlns="http://www.w3.org/2000/svg" xmlns:xlink="http://www.w3.org/1999/xlink" x="0px" y="0px"
	 viewBox="0 0 274.6 249.2" style="enable-background:new 0 0 274.6 249.2;" xml:space="preserve">
<style type="text/css">
	.st0{fill:#FFFFFF;}
</style>
<g>
	<g>
		<path class="st0" d="M127.3,48.4c14.8-35.1,49.2-53.5,85.3-47.1C244.8,7,271,35.5,274.2,67.9c3.7,37.5-19.6,73.4-58.6,82.9
			c0.3,6.5,0.6,12.9,0.9,19.9c1.4-0.6,2.6-1,3.9-1.6c14.1-6.5,28.1-13,42.2-19.5c6.5-3,11.1-0.1,11.1,7.1c0,27.4,0,54.9,0,82.4
			c0,7.1-4.6,10-11.1,7c-14-6.4-27.9-12.9-41.9-19.3c-1.3-0.6-2.6-1.2-4.2-1.9c-0.2,2.9-0.1,5.5-0.7,8c-2.1,9.6-10.4,16.3-20.8,16.3
			c-49.5,0.1-98.9,0.1-148.4-0.1c-12.5,0-20.9-9.1-20.9-21.8c0-21.1,0-42.3,0-63.4c0-11.9,0.2-12.4,7.2-21.2
			C7.2,125.1-4.6,100.8,1.6,70C7.2,42.5,24.9,24.9,52,17.5C73.4,11.7,105.9,16.6,127.3,48.4z M157.5,57.7
			c-10.2,0.1-18.1,7.1-19.1,16c-1.1,9.9,4.7,18.3,14.2,20.1c10,1.9,18.1-2.1,24.8-9.1c5-5.2,4.9-11.6,0.2-17
			C172.1,61.3,164.8,58.4,157.5,57.7z M238.4,94.7c10.7,0.1,18.7-6.5,20-15.4c1.3-9.3-4.4-18.1-13.3-20.6
			c-9.1-2.5-23.3,3.5-27.9,11.8c-2.5,4.5-2,9.8,1.5,13.9C224.2,90.9,231.4,94.1,238.4,94.7z M179.9,115.7
			c-0.1,12.6,7.9,20.8,18.4,20.6c10.7-0.1,18.7-8.6,18-19.5c-0.5-7.6-3.6-14.2-9.1-19.3c-5.7-5.3-12.3-5.4-18.1-0.1
			C183.3,102.9,180.3,109.7,179.9,115.7z M198.4,16.1c-8.2,0-15.4,5.5-17.5,13.4c-2.5,9,3.1,22.5,11.3,27c4.8,2.7,9.6,2.4,14-0.9
			c6-4.4,9-10.6,10.4-17.7C218.7,26.4,210,16.1,198.4,16.1z M105.1,100.7c9.3,0.1,16.7-6.7,17.4-15.5c0.7-8.2-5.4-16.1-13.8-17.2
			c-9.1-1.1-16.7,2.3-22.4,9.4c-3.5,4.4-3.2,9.3,0.3,13.7C91.5,97.3,98.2,100,105.1,100.7z M31,100.3c7-0.4,13.1-2.9,18.1-7.9
			c5.1-5.2,5.3-11.1,0.4-16.4c-5.1-5.5-11.6-8.6-19.1-8.5c-9,0-16.2,7.8-16,17C14.6,93.3,22.1,100.4,31,100.3z M68.1,137.9
			c9.4,0.1,16.9-7.3,16.6-16.7c-0.2-7.3-3.2-13.6-8.7-18.5c-4.8-4.3-10.6-4.3-15.4,0.1c-5.5,4.9-8.4,11.2-8.6,18.6
			C51.6,130.6,58.8,137.8,68.1,137.9z M85,47.9c0.1-9.8-6.2-17-14.4-17.8c-8.8-0.9-16.8,4.5-18.1,13c-1.4,9,2,16.4,9,22.1
			c4.5,3.7,10,3.5,14.5-0.2C81.7,60.3,84.5,54.1,85,47.9z M131,113.9c-5.9,7.5-12.3,15.8-18.4,23.6c12.7,0,26.3,0,38.9,0
			C144.6,129.7,137.5,121.4,131,113.9z"/>
	</g>
</g>
</svg>
