<?xml version="1.0" encoding="utf-8"?>
<!-- Generator: Adobe Illustrator 28.1.0, SVG Export Plug-In . SVG Version: 6.00 Build 0)  -->
<svg version="1.1" id="Calque_1" xmlns="http://www.w3.org/2000/svg" xmlns:xlink="http://www.w3.org/1999/xlink" x="0px" y="0px"
	 viewBox="0 0 91.8 102.9" style="enable-background:new 0 0 91.8 102.9;" xml:space="preserve">
<style type="text/css">
	.st0{fill:#9BA3A6;}
	.st1{fill:#9BA2A6;}
</style>
<g>
	<g>
		<path class="st0" d="M50.1,102.9c-19.3,0-34-2.8-48.5-6.7C0.9,96,0,95.1,0,94.5c0.1-6.9-0.3-14,0.8-20.8
			c1.9-12,13.9-21.9,25.7-22.3c1.1,0,2.5,0.3,3.4,0.9c4.7,2.9,9.4,5.9,14,9.1c1.4,1,2.5,1.1,3.9,0c4.5-3.2,9.1-6.1,13.5-9.2
			c1.6-1.1,3.1-1.3,4.9-1c14,2.1,25.2,14.6,25.6,28.8c0.1,4.6,0,9.3,0,13.9c0,1.2-0.3,2-1.6,2.3C75.7,99.9,61,102.8,50.1,102.9z"/>
		<path class="st1" d="M45.8,0c8.9,0,15.4,5.9,17,15.3c1.5,8.9-0.8,17-5.7,24.3c-5.8,8.6-16,9-22.1,0.7c-6.7-9.2-9.4-19.5-4.7-30.6
			C33.2,3,38.6,0,45.8,0z"/>
	</g>
</g>
</svg>
