<?xml version="1.0" encoding="utf-8"?>
<!-- Generator: Adobe Illustrator 23.0.0, SVG Export Plug-In . SVG Version: 6.00 Build 0)  -->
<svg version="1.1" id="Calque_1" xmlns="http://www.w3.org/2000/svg" xmlns:xlink="http://www.w3.org/1999/xlink" x="0px" y="0px"
	 viewBox="0 0 759.39 244.74" style="enable-background:new 0 0 759.39 244.74;" xml:space="preserve">
<style type="text/css">
	.st0{fill:#343C44;}
	.st1{fill:url(#SVGID_1_);}
	.st2{fill:url(#SVGID_2_);}
	.st3{fill:url(#SVGID_3_);}
	.st4{fill:url(#SVGID_4_);}
	.st5{fill:url(#SVGID_5_);}
	.st6{fill:url(#SVGID_6_);}
</style>
<path class="st0" d="M72.64,132.76c-26.17,0-35.28-19.53-35.47-36.79c-0.19-17.26,9.86-38.12,35.47-38.12
	c8.91,0,18.78,2.46,28.26,11.57l23.14-22.76c-14.98-14.61-32.24-21.24-51.4-21.24C22.76,25.41-0.19,61.63,0,95.77
	c0.19,36.04,20.48,68.85,72.64,68.85c20.1,0,38.31-5.88,53.3-20.67l-22-24.66C94.46,128.96,81.56,132.76,72.64,132.76z"/>
<path class="st0" d="M436.6,94.63c0-43.62-29.78-69.42-73.4-69.42c-43.43,0-73.4,25.79-73.4,69.42s29.97,69.61,73.4,69.61
	c13.28,0,25.03-2.28,35.47-7.21l16.69,17.07l25.04-24.66l-14.98-15.36C432.43,123.08,436.6,109.62,436.6,94.63z M363.2,132.19
	c-21.24,0-36.23-14.41-36.23-37.55c0-22,14.98-37.55,36.23-37.55c22,0,35.85,15.55,35.85,37.55
	C399.05,118.15,385.2,132.19,363.2,132.19z"/>
<path class="st0" d="M520.8,28.44h-64.49v132.77h37.55v-35.85h26.93c35.47-0.38,53.3-21.43,53.3-48.55
	C574.1,50.82,556.46,28.44,520.8,28.44z M520.8,93.69h-26.93v-33h26.93c10.24,0,15.74,7.96,15.74,16.69S531.23,93.69,520.8,93.69z"
	/>
<rect x="590.78" y="28.44" class="st0" width="37.36" height="132.77"/>
<polygon class="st0" points="644.46,28.44 644.46,59.36 683.15,59.36 683.15,161.21 720.51,161.21 720.51,59.36 759.39,59.36 
	759.39,28.44 "/>
<path class="st0" d="M260.26,84.31l0.25,12.42l-24.02,15.73c-5.54,12.21-17.14,19.92-32.61,19.92c-2.2,0-4.32-0.2-6.38-0.53
	c-9.26,7.39-23.69,13.72-28.33,15.65c-0.6,0.25-1.23,0.37-1.86,0.37c-1.03,0-2.05-0.32-2.9-0.95c-1.37-1.01-2.12-2.7-1.95-4.4
	c1.4-13.9,5.99-29.56,7.03-32.97l0.28-0.9c0.02-0.06,0.04-0.11,0.06-0.16c-1.39-4.16-2.16-8.73-2.16-13.67
	c0-10.98,3.68-20.35,10.04-26.98l10.14-27.28l11.58-3.28c2.48-4.41,5.1-8.39,7.83-12c-1.11-0.03-2.23-0.06-3.36-0.06
	c-43.43,0-73.78,25.98-73.78,69.61c0,44.38,30.35,69.61,73.78,69.61c43.62,0,73.78-25.23,73.78-69.61c0-9.3-1.35-17.77-3.87-25.34
	C268.37,76.99,262.96,82.02,260.26,84.31z"/>
<g>
	<linearGradient id="SVGID_1_" gradientUnits="userSpaceOnUse" x1="175.3815" y1="92.5142" x2="256.7149" y2="-14.1525">
		<stop  offset="0" style="stop-color:#CC1404"/>
		<stop  offset="1" style="stop-color:#EC2434"/>
	</linearGradient>
	<path class="st1" d="M195.66,82.79l2.01,0.93c-3.02-15.88,2.68-32.99,4.84-38.65l-8.32,2.36l-12.24,32.93
		C185.84,80.13,190.75,80.53,195.66,82.79z"/>
	<linearGradient id="SVGID_2_" gradientUnits="userSpaceOnUse" x1="194.0311" y1="106.7345" x2="275.3645" y2="0.0678">
		<stop  offset="0" style="stop-color:#CC1404"/>
		<stop  offset="1" style="stop-color:#EC2434"/>
	</linearGradient>
	<path class="st2" d="M191.57,104.47c-2.77-0.97-5.75-0.8-8.37,0.49c-2.63,1.29-4.59,3.52-5.51,6.29l-0.08,0.25l-0.01,0l-0.07,0.22
		l0.01,0c-0.79,2.59-4.18,14.05-6,25.64c6.9-3.19,17.84-8.78,23.58-14.49c0.73-0.67,1.26-1.27,1.72-1.93l0.1-0.14
		c0.81-1.19,1.36-2.51,1.65-3.93C199.65,111.66,196.57,106.22,191.57,104.47z"/>
	<linearGradient id="SVGID_3_" gradientUnits="userSpaceOnUse" x1="213.5674" y1="121.6309" x2="294.9008" y2="14.9642">
		<stop  offset="0" style="stop-color:#CC1404"/>
		<stop  offset="1" style="stop-color:#EC2434"/>
	</linearGradient>
	<path class="st3" d="M215.83,97.5l1.48,2.29c0.53,0.81,3.81,6.01,5.35,11.77l29.43-19.27l-0.2-9.67
		C237.29,91.2,218.48,96.74,215.83,97.5z"/>
	<linearGradient id="SVGID_4_" gradientUnits="userSpaceOnUse" x1="194.9099" y1="107.4046" x2="276.2433" y2="0.7379">
		<stop  offset="0" style="stop-color:#CC1404"/>
		<stop  offset="1" style="stop-color:#EC2434"/>
	</linearGradient>
	<path class="st4" d="M277.56,0.18c-10.87-0.86-48.36-0.33-71.67,42.62l-0.84,1.54l-0.02,0.01c-1.18,2.9-8.87,22.82-5.09,40.12
		c0.02,0.1,0.01,0.21,0,0.31l0.14,0.06l-2.48,3.71c-0.33,0.5-0.23,1.17,0.24,1.54l11.45,9.12c0.44,0.35,1.07,0.33,1.49-0.05
		l3.87-3.48l0.02,0.04c0.09-0.06,0.18-0.11,0.28-0.14c0.22-0.06,21.81-6.07,37.37-15.66l1.28-0.93
		C255.2,77.81,292.49,49.74,277.56,0.18z M233.43,67.21c-2.79,3.39-7.8,3.87-11.19,1.08c-3.39-2.79-3.87-7.8-1.08-11.19
		c2.79-3.39,7.8-3.87,11.19-1.08C235.74,58.81,236.22,63.82,233.43,67.21z M248.76,48.62c-2.79,3.39-7.8,3.87-11.19,1.08
		c-3.39-2.79-3.87-7.8-1.08-11.19c2.79-3.39,7.8-3.87,11.19-1.08C251.07,40.23,251.55,45.24,248.76,48.62z M264.08,30.04
		c-2.79,3.39-7.8,3.87-11.19,1.08c-3.39-2.79-3.87-7.8-1.08-11.19c2.79-3.39,7.8-3.87,11.19-1.08
		C266.39,21.64,266.87,26.65,264.08,30.04z"/>
	<linearGradient id="SVGID_5_" gradientUnits="userSpaceOnUse" x1="193.9827" y1="106.6976" x2="275.316" y2="0.0309">
		<stop  offset="0" style="stop-color:#CC1404"/>
		<stop  offset="1" style="stop-color:#EC2434"/>
	</linearGradient>
	<polygon class="st5" points="197.36,91.78 196.26,95.47 199.99,98.67 200,98.67 203.89,101.62 207.26,99.78 202.07,95.74 	"/>
	<linearGradient id="SVGID_6_" gradientUnits="userSpaceOnUse" x1="194.0442" y1="106.7444" x2="275.3775" y2="0.0778">
		<stop  offset="0" style="stop-color:#CC1404"/>
		<stop  offset="1" style="stop-color:#EC2434"/>
	</linearGradient>
	<polygon class="st6" points="196.42,97.67 195.8,99.76 197.92,101.58 197.93,101.58 200.13,103.25 202.05,102.21 199.1,99.91 	"/>
</g>
<g>
	<path class="st0" d="M40.51,232.51h-28.7l-5.09,11.45H1.48l22.2-49.49h4.95l22.2,49.49H45.6L40.51,232.51z M13.79,227.99h24.74
		l-12.37-28.14L13.79,227.99z"/>
	<path class="st0" d="M103.07,204.24c-4.03-4.03-9.9-5.94-15.2-5.94c-13.5,0-20.78,10.04-20.71,21.14
		c0,10.82,6.86,20.43,20.71,20.43c4.95,0,10.11-1.7,14.21-5.37v-12.51H85.89v-4.6h20.93v19.16c-5.09,5.23-11.24,8.13-18.95,8.13
		c-17.25,0-25.66-11.81-25.66-25.17c-0.07-15.13,10.04-25.87,25.66-25.87c6.57,0,13.15,2.47,18.17,7.42L103.07,204.24z"/>
	<path class="st0" d="M161.75,243.97h-35.49c0-16.47,0-33.01,0-49.49h34.85v4.67h-29.9v17.74h28.56v4.6h-28.56v17.81h30.54V243.97z"
		/>
	<path class="st0" d="M215.83,234.63l-0.28-16.4v-23.75h4.95v49.49h-2.97l-32.02-39.8l0.14,14.63v25.17h-4.95v-49.49h3.11
		L215.83,234.63z"/>
	<path class="st0" d="M282.99,237.25c-5.02,5.02-11.38,7.49-18.03,7.49c-17.11,0-25.66-11.45-25.73-25.24
		c-0.07-13.5,8.55-25.73,25.73-25.73c6.57,0,13.22,2.33,17.53,7.42l-3.04,3.04c-4.03-3.96-9.19-5.94-14.49-5.94
		c-13.79,0-20.78,10.18-20.78,21.14c0,11.59,7,20.71,20.78,20.71c5.3,0,10.89-2.12,14.85-6.08L282.99,237.25z"/>
	<path class="st0" d="M336.08,243.97h-35.49c0-16.47,0-33.01,0-49.49h34.85v4.67h-29.9v17.74h28.56v4.6h-28.56v17.81h30.54V243.97z"
		/>
	<path class="st0" d="M399.07,194.48c16.75,0,24.81,12.02,24.81,24.25c0,12.51-7.49,25.24-24.81,25.24c-5.73,0-11.73,0-17.46,0
		v-49.49H399.07z M386.55,239.37h12.51c13.79,0,20.01-10.75,19.79-20.71c-0.21-9.61-6.43-19.51-19.79-19.51h-12.51V239.37z"/>
	<path class="st0" d="M442.61,243.97v-49.49h4.95v49.49H442.61z"/>
	<path class="st0" d="M507.16,204.24c-4.03-4.03-9.9-5.94-15.2-5.94c-13.5,0-20.78,10.04-20.71,21.14
		c0,10.82,6.86,20.43,20.71,20.43c4.95,0,10.11-1.7,14.21-5.37v-12.51h-16.19v-4.6h20.92v19.16c-5.09,5.23-11.24,8.13-18.95,8.13
		c-17.25,0-25.66-11.81-25.66-25.17c-0.07-15.13,10.04-25.87,25.66-25.87c6.57,0,13.15,2.47,18.17,7.42L507.16,204.24z"/>
	<path class="st0" d="M530.35,243.97v-49.49h4.95v49.49H530.35z"/>
	<path class="st0" d="M568.87,199.15h-17.46v-4.67c14,0,25.87,0,39.87,0v4.67h-17.46v44.82h-4.95V199.15z"/>
	<path class="st0" d="M636.39,232.51h-28.7l-5.09,11.45h-5.23l22.2-49.49h4.95l22.2,49.49h-5.23L636.39,232.51z M609.66,227.99
		h24.74l-12.37-28.14L609.66,227.99z"/>
	<path class="st0" d="M668.13,194.48v44.82h27.5v4.67h-32.45v-49.49H668.13z"/>
	<path class="st0" d="M747.3,243.97h-35.49c0-16.47,0-33.01,0-49.49h34.85v4.67h-29.9v17.74h28.56v4.6h-28.56v17.81h30.54V243.97z"
		/>
</g>
</svg>
