<?xml version="1.0" encoding="utf-8"?>
<!-- Generator: Adobe Illustrator 28.1.0, SVG Export Plug-In . SVG Version: 6.00 Build 0)  -->
<svg version="1.1" id="Calque_1" xmlns="http://www.w3.org/2000/svg" xmlns:xlink="http://www.w3.org/1999/xlink" x="0px" y="0px"
	 viewBox="0 0 213.3 275" style="enable-background:new 0 0 213.3 275;" xml:space="preserve">
<style type="text/css">
	.st0{fill:#FFFFFF;}
</style>
<g>
	<path class="st0" d="M22.7,275c-7.6,0-15.1,0-22.7,0C0,183.3,0,91.7,0,0c28.9,0,57.9,0,86.8,0c-0.3,0-0.5,0.1-0.8,0.1
		c-5.9,0.2-11.8,1-17.6,2.4c-14,3.4-26.5,9.9-37.4,19.3c-0.4,0.4-0.8,0.7-1.2,1.1c0.2,0,0.4,0,0.5,0c12.2-4.1,24.6-7.1,37.3-8.8
		c6.7-0.9,13.4-1.4,20.2-1.4c11.1,0,22.2,0,33.3,0c10.3,0,20.5,0.7,30.6,2.4c9.8,1.6,19.4,4.1,28.7,7.4c0.4,0.1,0.8,0.3,1.2,0.4
		c-0.1-0.2-0.2-0.3-0.3-0.4c-7.5-6.8-16-12.1-25.4-16c-8.8-3.6-18-5.8-27.5-6.5c-1.1-0.1-2.2-0.2-3.3-0.3c29.4,0,58.8,0,88.2,0
		c0,72.1,0,144.1,0,216.2c-1.8-0.3-3.6-0.7-5.5-0.8c-2.8-0.3-5.5,0.3-7.9,1.9c-3.4,2.2-5.4,5.5-6.8,9.2c-0.1,0.2-0.1,0.6,0.1,0.8
		c0.1,0.1,0.5,0.1,0.8,0c2.9-0.9,5.7-1.1,8.7-0.3c2.9,0.8,5.4,2.3,7.5,4.5c0.1,0.1,0.4,0.2,0.5,0.3c0.1-0.2,0.2-0.3,0.3-0.5
		c0.6-3.6,1.1-7.2,1.6-10.9c0.2-1.3,0.4-2.6,0.7-3.9c0,19.5,0,38.9,0,58.4c-26.9,0-53.8,0-80.8,0c0.5-0.1,1.1-0.2,1.6-0.3
		c5.5-1.2,9.3-4.4,11.3-9.7c0.2-0.7,0-1-0.7-0.8c-1.1,0.2-2.2,0.5-3.3,0.8c-2.1,0.5-4.2,0.8-6.3,0.4c-4.8-1-8.4-5.4-8.4-10.3
		c0-12.5,0-25,0-37.4c0-0.3,0-0.6,0-0.9c-5.7,0-11.3,0-17,0c0,0.3,0,0.5,0.1,0.8c0.5,2.3,1,4.5,1.5,6.8c0.8,4.2,1.4,8.5,1.3,12.8
		c-0.1,6,0,11.9,0,17.9c0,0.4,0,0.8,0,1.1c-0.6,7.9,4.3,15.4,11.8,17.9c1.3,0.4,2.6,0.7,3.9,1c-34.3,0-68.7,0-103,0
		c0.2,0,0.5-0.1,0.7-0.1c2.5-0.2,5-0.7,7.4-1.5c4-1.5,7.3-3.8,9.5-7.5c1.9-3.2,2.5-6.7,2.4-10.4c-0.2-3.3-1.2-6.3-3.4-8.9
		c-2.3-2.7-5.2-4.7-8.4-6c-3.5-1.5-7-2.7-10.5-4.1c-2.3-0.9-4.7-1.9-7-3c-1.5-0.7-2.7-1.8-3.4-3.3c-1.4-3.1-0.1-6.7,3.2-8.4
		c3.3-1.7,6.8-1.7,10.3-0.6c3.6,1.2,6.6,3.3,9.3,5.9c2.3,2.3,4.5,4.7,6.7,7.1c0.2,0.2,0.4,0.4,0.7,0.6c0.1-0.3,0.1-0.4,0.1-0.4
		c0-4.5,0-9,0-13.5c0-0.2-0.2-0.5-0.4-0.6c-1-0.4-1.9-0.8-2.9-1.2c-6.8-2.5-13.9-3.3-21.1-2.8c-3.8,0.3-7.4,1.4-10.8,3.4
		c-9.2,5.6-9.9,18.4-1.8,24.7c2.9,2.2,6,3.9,9.4,5.2c3.4,1.4,6.9,2.6,10.3,3.9c2.2,0.8,4.3,1.8,6,3.4c1.7,1.6,2.5,3.5,2.2,5.9
		c-0.5,3.5-3.1,6.5-6.4,7.2c-1.9,0.4-3.9,0.3-5.9-0.1c-3.3-0.7-6.1-2.4-8.7-4.4c-3.8-2.9-7-6.4-10.2-9.9c-0.4-0.4-0.8-0.6-1.4-0.4
		c0,0.1,0,0.2,0,0.3c0,4.6,0,9.3,0,13.9c0,0.2,0.3,0.5,0.5,0.6c5.5,2.5,11.3,4,17.3,4.6C20.2,274.7,21.4,274.8,22.7,275z M108.2,266
		c-0.8,0.2-1.5,0.5-2.1,0.7c-2.5,0.6-4.2-0.4-5-2.8c-0.2-0.8-0.4-1.7-0.4-2.6c-0.1-3.6-0.1-7.2-0.1-10.7c0-6,0-12-0.1-18.1
		c-0.1-3.6-1.3-6.9-3.6-9.8c-2.9-3.5-6.9-5.2-11.3-6.1c-3.4-0.6-6.8-0.5-10.3-0.2c-6.6,0.7-13.1,1.9-19.5,3.7
		c-0.5,0.2-0.7,0.4-0.7,0.9c0,4.3,0,8.5,0,12.8c0,0.2,0,0.5,0,0.9c0.3-0.2,0.5-0.3,0.6-0.5c0.4-0.4,0.8-0.9,1.3-1.4
		c3.6-3.4,7.7-6.4,12-8.9c2.3-1.4,4.7-2.6,7.3-3.3c3.6-1,6.3,0.2,8.1,3.5c0.2,0.4,0.5,0.9,0.7,1.4c1,2.4,1.3,5,1.3,7.6
		c0,9.3,0,18.7,0,28c0,0.3-0.1,0.7-0.3,0.9c-1.1,1.2-2.3,2.3-3.8,3c-5,2.7-11.1,1.3-14.3-3.2c-1.6-2.3-2.1-4.9-1.9-7.6
		c0.2-3.7,1.8-6.7,4.9-8.8c2.8-1.9,6-2.5,9.3-2.5c0.9,0,1.9,0.1,3,0.1c-0.3-0.3-0.4-0.5-0.6-0.7c-3.3-2.5-7.1-3.9-11.3-3.9
		c-3,0-5.9,0.8-8.7,1.9c-6.6,2.6-11,7.2-11.7,14.6c-0.6,7,2,12.5,7.7,16.5c3.3,2.3,7,3,10.9,2.9c7-0.1,12.7-2.9,16.9-8.6
		c0.1-0.1,0.2-0.2,0.3-0.3c0.1,0.2,0.1,0.4,0.2,0.6c1.1,3.8,3.4,6.5,7.3,7.5c1.5,0.4,3.1,0.4,4.6,0.4c4,0,7.9-3,9-6.8
		C108,266.8,108.1,266.4,108.2,266z M181.8,155.5c0-0.1-0.1-0.2-0.1-0.2c-0.2,0-0.3,0.1-0.5,0.1c-11.9,4-24.1,7-36.6,8.6
		c-6.1,0.8-12.2,1.4-18.3,1.4c-11.7,0.1-23.4,0.1-35.2,0c-4.7,0-9.3-0.2-14-0.4c-5.9-0.3-11.8-1.1-17.6-2.1c-8.1-1.4-16.1-3.3-24-6
		c-1.7-0.6-3.4-1.2-5.1-1.8c0,0.2,0.2,0.3,0.3,0.4c7.7,6.7,16.3,12,25.8,15.9c11.1,4.6,22.7,6.8,34.7,6.7c10.2-0.1,20.4,0,30.6,0
		c5.4,0,10.7-0.4,16-1.3c13.1-2.3,25-7.2,35.8-15C176.4,159.9,179.1,157.6,181.8,155.5z M157.2,45.8c0-0.1,0-0.2,0-0.2
		c-0.2-0.3-0.4-0.7-0.7-1c-9-12-21-18.2-35.9-18.5c-9.7-0.2-19.4-0.1-29.1,0c-2.4,0-4.7,0.2-7.1,0.6c-11,1.9-20.1,7.2-27.3,15.8
		c-0.8,1-1.5,2-2.3,3.1c0,0,0.1,0.1,0.1,0.1c0.2-0.1,0.4-0.1,0.6-0.2c1.1-0.4,2.1-0.9,3.2-1.3c10.1-3.8,20.5-5.4,31.3-5.4
		c10.6,0,21.3,0,31.9,0c3.5,0,7,0.3,10.4,0.6c7.2,0.7,14.2,2.5,21,4.9C154.7,44.9,155.9,45.3,157.2,45.8z M156.8,133.5
		c0,0-0.1-0.1-0.1-0.1c-0.2,0.1-0.5,0.2-0.7,0.3c-10.3,4.3-21.1,6.5-32.3,6.6c-11.5,0.1-23,0-34.5,0c-4.5,0-9-0.3-13.4-1
		c-6.3-1-12.5-2.6-18.5-4.8c-1-0.4-1.9-0.7-2.9-1.1c0,0.1,0,0.2,0.1,0.2c0.1,0.2,0.2,0.3,0.3,0.4c3.5,5,7.9,9.2,13.1,12.4
		c6.7,4.1,14,6.5,21.9,6.6c10.2,0.2,20.4,0.1,30.6,0c2.4,0,4.7-0.2,7.1-0.6c10.3-1.8,19-6.6,25.9-14.5
		C154.6,136.5,155.7,135,156.8,133.5z M172.6,216.7c0.1,0.3,0.1,0.6,0.1,0.9c0.6,2.8,1.3,5.7,1.8,8.5c0.4,2.7,0.9,5.4,1,8.2
		c0.1,7.3,0.1,14.6,0,21.9c0,5.6-0.8,11.1-2.7,16.5c-0.1,0.2-0.1,0.5-0.2,0.8c6.5,0,12.9,0,19.4,0c0-0.3-0.1-0.5-0.1-0.7
		c-0.5-2.2-1.1-4.5-1.4-6.7c-0.5-3.5-1.2-6.9-1.3-10.4c-0.1-12.7-0.1-25.3-0.1-38c0-0.3,0-0.6,0-0.9
		C183.6,216.7,178.2,216.7,172.6,216.7z M166.4,273.5c0-0.3,0-0.6-0.1-0.8c-0.5-2.3-1.1-4.6-1.5-6.9c-0.8-4.2-1.3-8.4-1.3-12.6
		c0.1-11.9,0-23.7,0-35.6c0-0.3,0-0.6,0-0.8c-5.7,0-11.3,0-17,0c0,0.3,0.1,0.5,0.1,0.8c0.5,2.4,1.1,4.8,1.5,7.2
		c0.7,3.9,1.3,7.8,1.2,11.8c-0.1,5.9,0,11.8,0,17.7c0,3.4,0,6.9,0.6,10.3c0.5,2.8,0.9,5.6,2,8.3c0.2,0.5,0.4,0.6,0.9,0.6
		c4.2,0,8.5,0,12.7,0C165.9,273.5,166.1,273.5,166.4,273.5z M141.7,69.5c0-0.2,0-0.4,0-0.5c-1.3-5.9-4.3-10.7-9.4-14.1
		c-3.9-2.6-8.2-3.7-12.8-3.7c-9.1,0-18.2,0-27.3,0c-1.1,0-2.2,0-3.3,0.2c-8.4,1.3-14.3,5.7-17.7,13.5c-0.6,1.4-1,3-1.2,4.7
		c0.3-0.2,0.6-0.3,0.8-0.5c5.9-3.2,12.3-5,19-5.1c10.3-0.1,20.7-0.1,31-0.1c6,0,11.7,1.3,17.2,3.7C139.1,68.2,140.4,68.9,141.7,69.5
		z M141.8,109.3c-0.1,0-0.1-0.1-0.2-0.1c-0.9,0.4-1.7,0.9-2.6,1.3c-6.2,3-12.8,4.3-19.6,4.3c-8.9,0-17.9,0-26.8,0
		c-1.7,0-3.4-0.1-5.1-0.2c-6-0.5-11.7-2.2-17.1-5.1c-0.2-0.1-0.4-0.2-0.6-0.3c0,0.3,0,0.4,0.1,0.6c1.2,5.4,3.9,9.9,8.3,13.3
		c4,3.1,8.7,4.4,13.7,4.4c9.1,0,18.2,0,27.3,0c1.2,0,2.5,0,3.7-0.2c8.3-1.3,14.2-5.8,17.5-13.6C141.1,112.3,141.4,110.8,141.8,109.3
		z M141.7,101.3c0-0.2,0-0.3,0-0.4c-1-4.7-3.1-8.7-6.6-12c-4.4-4-9.6-5.9-15.5-5.8c-9.3,0-18.5,0-27.8,0c-7.6,0-14.8-1.7-21.5-5.4
		c-0.1-0.1-0.3-0.1-0.4-0.2c0,0.3,0,0.4,0.1,0.6c1.9,10.1,10.8,17.6,21.1,17.7c9.5,0.1,19.1,0,28.6,0c6,0,11.8,1.1,17.3,3.4
		C138.6,99.7,140.1,100.5,141.7,101.3z"/>
	<path d="M125.2,0c1.1,0.1,2.2,0.2,3.3,0.3c9.5,0.6,18.7,2.8,27.5,6.5c9.4,3.9,17.8,9.2,25.4,16c0.1,0.1,0.2,0.2,0.3,0.4
		c-0.4-0.1-0.8-0.3-1.2-0.4c-9.3-3.4-18.9-5.8-28.7-7.4c-10.1-1.7-20.3-2.4-30.6-2.4c-11.1,0-22.2,0-33.3,0
		c-6.8,0-13.5,0.5-20.2,1.4c-12.7,1.6-25.1,4.7-37.3,8.8c-0.1,0-0.3,0.1-0.5,0c0.4-0.4,0.8-0.8,1.2-1.1C42,12.4,54.4,5.9,68.5,2.5
		C74.2,1.1,80.1,0.3,86,0.1c0.3,0,0.5-0.1,0.8-0.1C99.6,0,112.4,0,125.2,0z"/>
	<path d="M22.7,275c-1.2-0.1-2.5-0.3-3.7-0.4c-6-0.6-11.8-2.1-17.3-4.6c-0.2-0.1-0.5-0.4-0.5-0.6c0-4.6,0-9.3,0-13.9
		c0-0.1,0-0.2,0-0.3c0.6-0.2,1,0,1.4,0.4c3.2,3.5,6.5,7,10.2,9.9c2.6,2,5.4,3.7,8.7,4.4c1.9,0.4,3.9,0.6,5.9,0.1
		c3.3-0.7,5.9-3.7,6.4-7.2c0.3-2.4-0.4-4.3-2.2-5.9c-1.8-1.6-3.9-2.5-6-3.4c-3.4-1.3-6.9-2.5-10.3-3.9c-3.4-1.3-6.5-3-9.4-5.2
		c-8.1-6.3-7.4-19.2,1.8-24.7c3.3-2,6.9-3.1,10.8-3.4c7.2-0.6,14.3,0.3,21.1,2.8c1,0.4,2,0.8,2.9,1.2c0.2,0.1,0.4,0.4,0.4,0.6
		c0,4.5,0,9,0,13.5c0,0.1,0,0.2-0.1,0.4c-0.3-0.2-0.5-0.4-0.7-0.6c-2.2-2.4-4.4-4.9-6.7-7.1c-2.7-2.6-5.7-4.7-9.3-5.9
		c-3.5-1.1-7-1.1-10.3,0.6c-3.3,1.7-4.6,5.2-3.2,8.4c0.7,1.5,1.9,2.6,3.4,3.3c2.3,1.1,4.6,2,7,3c3.5,1.4,7.1,2.6,10.5,4.1
		c3.2,1.4,6.1,3.3,8.4,6c2.1,2.6,3.2,5.5,3.4,8.9c0.2,3.7-0.4,7.2-2.4,10.4c-2.2,3.7-5.5,6-9.5,7.5c-2.4,0.9-4.9,1.4-7.4,1.5
		c-0.2,0-0.5,0.1-0.7,0.1C24.3,275,23.5,275,22.7,275z"/>
	<path d="M128.1,275c-1.3-0.3-2.6-0.6-3.9-1c-7.5-2.5-12.5-10-11.8-17.9c0-0.4,0-0.8,0-1.1c0-6-0.1-11.9,0-17.9
		c0.1-4.3-0.5-8.6-1.3-12.8c-0.4-2.3-1-4.5-1.5-6.8c0-0.2,0-0.5-0.1-0.8c5.7,0,11.3,0,17,0c0,0.3,0,0.6,0,0.9c0,12.5,0,25,0,37.4
		c0,4.9,3.7,9.3,8.4,10.3c2.1,0.4,4.2,0.1,6.3-0.4c1.1-0.2,2.2-0.5,3.3-0.8c0.7-0.2,1,0.2,0.7,0.8c-2,5.3-5.8,8.5-11.3,9.7
		c-0.5,0.1-1,0.2-1.6,0.3C131.1,275,129.6,275,128.1,275z"/>
	<path d="M213.3,216.6c-0.2,1.3-0.5,2.6-0.7,3.9c-0.6,3.6-1.1,7.2-1.6,10.9c0,0.2-0.2,0.3-0.3,0.5c-0.2-0.1-0.4-0.2-0.5-0.3
		c-2.1-2.2-4.6-3.7-7.5-4.5c-2.9-0.8-5.8-0.6-8.7,0.3c-0.2,0.1-0.7,0.1-0.8,0c-0.1-0.2-0.2-0.6-0.1-0.8c1.4-3.7,3.4-7,6.8-9.2
		c2.4-1.6,5-2.2,7.9-1.9c1.8,0.2,3.7,0.6,5.5,0.8C213.3,216.3,213.3,216.4,213.3,216.6z"/>
	<path d="M108.2,266c-0.1,0.4-0.1,0.8-0.2,1.1c-1.1,3.9-5,6.8-9,6.8c-1.6,0-3.2,0-4.6-0.4c-3.9-1-6.2-3.7-7.3-7.5
		c0-0.2-0.1-0.3-0.2-0.6c-0.1,0.2-0.2,0.2-0.3,0.3c-4.2,5.7-9.8,8.5-16.9,8.6c-3.9,0.1-7.7-0.6-10.9-2.9c-5.7-4-8.4-9.5-7.7-16.5
		c0.7-7.4,5-11.9,11.7-14.6c2.8-1.1,5.6-1.9,8.7-1.9c4.2,0,8,1.3,11.3,3.9c0.2,0.1,0.3,0.4,0.6,0.7c-1.2-0.1-2.1-0.1-3-0.1
		c-3.3-0.1-6.5,0.5-9.3,2.5c-3.1,2.1-4.6,5.1-4.9,8.8c-0.2,2.8,0.3,5.3,1.9,7.6c3.2,4.5,9.3,5.9,14.3,3.2c1.5-0.8,2.7-1.8,3.8-3
		c0.2-0.2,0.3-0.6,0.3-0.9c0-9.3,0-18.7,0-28c0-2.6-0.3-5.1-1.3-7.6c-0.2-0.5-0.4-0.9-0.7-1.4c-1.8-3.3-4.5-4.4-8.1-3.5
		c-2.6,0.7-5,1.9-7.3,3.3c-4.3,2.6-8.3,5.5-12,8.9c-0.5,0.4-0.9,0.9-1.3,1.4c-0.1,0.1-0.3,0.2-0.6,0.5c0-0.4,0-0.6,0-0.9
		c0-4.3,0-8.5,0-12.8c0-0.5,0.2-0.8,0.7-0.9c6.4-1.8,12.9-3.1,19.5-3.7c3.4-0.3,6.9-0.5,10.3,0.2c4.4,0.8,8.3,2.5,11.3,6.1
		c2.3,2.8,3.5,6.2,3.6,9.8c0.1,6,0.1,12,0.1,18.1c0,3.6,0,7.2,0.1,10.7c0,0.9,0.2,1.7,0.4,2.6c0.7,2.4,2.5,3.4,5,2.8
		C106.7,266.5,107.4,266.3,108.2,266z"/>
	<path d="M181.8,155.5c-2.7,2.2-5.4,4.4-8.2,6.5c-10.7,7.8-22.7,12.7-35.8,15c-5.3,0.9-10.6,1.3-16,1.3c-10.2,0-20.4,0-30.6,0
		c-12,0.1-23.6-2.1-34.7-6.7c-9.5-3.9-18-9.2-25.8-15.9c-0.1-0.1-0.3-0.2-0.3-0.4c1.7,0.6,3.4,1.2,5.1,1.8c7.8,2.6,15.8,4.6,24,6
		c5.8,1,11.7,1.8,17.6,2.1c4.7,0.2,9.3,0.4,14,0.4c11.7,0,23.4,0,35.2,0c6.1,0,12.2-0.6,18.3-1.4c12.5-1.7,24.6-4.6,36.6-8.6
		c0.2-0.1,0.3-0.1,0.5-0.1C181.7,155.3,181.7,155.4,181.8,155.5z"/>
	<path d="M157.2,45.8c-1.3-0.5-2.5-1-3.8-1.4c-6.8-2.5-13.8-4.2-21-4.9c-3.5-0.3-7-0.6-10.4-0.6c-10.6-0.1-21.3,0-31.9,0
		c-10.7,0-21.2,1.7-31.3,5.4c-1.1,0.4-2.2,0.9-3.2,1.3c-0.2,0.1-0.4,0.1-0.6,0.2c0,0-0.1-0.1-0.1-0.1c0.8-1,1.5-2.1,2.3-3.1
		c7.1-8.6,16.2-13.9,27.3-15.8c2.3-0.4,4.7-0.6,7.1-0.6c9.7-0.1,19.4-0.2,29.1,0c14.9,0.3,26.9,6.5,35.9,18.5c0.2,0.3,0.5,0.7,0.7,1
		C157.2,45.7,157.2,45.7,157.2,45.8z"/>
	<path d="M156.8,133.5c-1.2,1.5-2.3,3-3.5,4.4c-7,7.8-15.6,12.7-25.9,14.5c-2.3,0.4-4.7,0.6-7.1,0.6c-10.2,0.1-20.4,0.1-30.6,0
		c-7.9-0.1-15.2-2.5-21.9-6.6c-5.2-3.2-9.6-7.4-13.1-12.4c-0.1-0.1-0.2-0.3-0.3-0.4c0,0,0-0.1-0.1-0.2c1,0.4,2,0.8,2.9,1.1
		c6,2.3,12.2,3.9,18.5,4.8c4.4,0.7,8.9,1,13.4,1c11.5,0,23,0.1,34.5,0c11.2-0.1,21.9-2.3,32.3-6.6c0.2-0.1,0.5-0.2,0.7-0.3
		C156.7,133.4,156.8,133.5,156.8,133.5z"/>
	<path d="M172.6,216.7c5.6,0,11,0,16.6,0c0,0.3,0,0.6,0,0.9c0,12.7-0.1,25.3,0.1,38c0,3.5,0.7,7,1.3,10.4c0.3,2.3,1,4.5,1.4,6.7
		c0,0.2,0.1,0.4,0.1,0.7c-6.5,0-12.9,0-19.4,0c0.1-0.3,0.1-0.6,0.2-0.8c1.9-5.3,2.7-10.8,2.7-16.5c0-7.3,0.1-14.6,0-21.9
		c0-2.7-0.5-5.5-1-8.2c-0.5-2.9-1.2-5.7-1.8-8.5C172.7,217.3,172.6,217.1,172.6,216.7z"/>
	<path d="M166.4,273.5c-0.3,0-0.5,0-0.8,0c-4.2,0-8.5,0-12.7,0c-0.5,0-0.7-0.1-0.9-0.6c-1-2.7-1.5-5.5-2-8.3
		c-0.6-3.4-0.6-6.9-0.6-10.3c0-5.9,0-11.8,0-17.7c0-4-0.5-7.9-1.2-11.8c-0.4-2.4-1-4.8-1.5-7.2c-0.1-0.2-0.1-0.5-0.1-0.8
		c5.7,0,11.3,0,17,0c0,0.3,0,0.6,0,0.8c0,11.9,0,23.7,0,35.6c0,4.3,0.5,8.5,1.3,12.6c0.4,2.3,1,4.6,1.5,6.9
		C166.4,272.9,166.4,273.1,166.4,273.5z"/>
	<path d="M141.7,69.5c-1.3-0.6-2.6-1.3-3.8-1.8c-5.5-2.4-11.2-3.7-17.2-3.7c-10.3,0-20.7-0.1-31,0.1c-6.7,0.1-13,1.9-19,5.1
		c-0.3,0.1-0.5,0.3-0.8,0.5c0.2-1.7,0.6-3.2,1.2-4.7c3.4-7.8,9.4-12.2,17.7-13.5c1.1-0.2,2.2-0.2,3.3-0.2c9.1,0,18.2,0,27.3,0
		c4.6,0,8.9,1.1,12.8,3.7c5.1,3.4,8.1,8.2,9.4,14.1C141.7,69.1,141.7,69.3,141.7,69.5z"/>
	<path d="M141.8,109.3c-0.4,1.5-0.7,3-1.3,4.4c-3.3,7.8-9.2,12.2-17.5,13.6c-1.2,0.2-2.5,0.2-3.7,0.2c-9.1,0-18.2,0-27.3,0
		c-5,0-9.7-1.4-13.7-4.4c-4.4-3.4-7.1-7.9-8.3-13.3c0-0.2,0-0.4-0.1-0.6c0.2,0.1,0.4,0.2,0.6,0.3c5.3,2.9,11,4.6,17.1,5.1
		c1.7,0.1,3.4,0.2,5.1,0.2c8.9,0,17.9,0,26.8,0c6.8,0,13.4-1.3,19.6-4.3c0.9-0.4,1.7-0.9,2.6-1.3
		C141.7,109.2,141.8,109.3,141.8,109.3z"/>
	<path d="M141.7,101.3c-1.6-0.7-3.1-1.5-4.7-2.2c-5.5-2.3-11.3-3.4-17.3-3.4c-9.5,0-19.1,0-28.6,0C80.8,95.6,71.9,88.1,69.9,78
		c0-0.2,0-0.3-0.1-0.6c0.2,0.1,0.3,0.1,0.4,0.2C77,81.3,84.2,83,91.8,83c9.3,0,18.5,0,27.8,0c5.9,0,11.1,1.8,15.5,5.8
		c3.5,3.3,5.7,7.3,6.6,12C141.7,100.9,141.7,101.1,141.7,101.3z"/>
</g>
</svg>
