<?xml version="1.0" encoding="utf-8"?>
<!-- Generator: Adobe Illustrator 28.1.0, SVG Export Plug-In . SVG Version: 6.00 Build 0)  -->
<svg version="1.1" id="Calque_1" xmlns="http://www.w3.org/2000/svg" xmlns:xlink="http://www.w3.org/1999/xlink" x="0px" y="0px"
	 viewBox="0 0 427.1 275" style="enable-background:new 0 0 427.1 275;" xml:space="preserve">
<style type="text/css">
	.st0{fill:#FEFEFE;}
	.st1{fill:#AF1F6B;}
	.st2{fill:#AF216C;}
	.st3{fill:#FDFCFD;}
	.st4{fill:#AF1F6C;}
	.st5{fill:#9B9DA0;}
	.st6{fill:#AF206C;}
	.st7{fill:#FDFCFC;}
	.st8{fill:#FDFBFC;}
	.st9{fill:#FDFDFD;}
	.st10{fill:#FCFCFC;}
	.st11{fill:#FEFDFD;}
</style>
<g>
	<g>
		<path class="st0" d="M427.2,243.3c0,10.6,0,21.1,0,31.7c-43.4,0-86.9,0-130.3,0c0-0.4,0.1-0.9,0.1-1.3c0-6.6,0-13.3,0-19.9
			c0-0.4,0-0.8,0-1.3c2.2,1.4,4.2,2.8,6.3,4c5.1,3,12.7,1.5,15.5-4.7c1.5-3.3,2.2-6.8,2.3-10.3c0.1-6.2,0.1-12.5,0.1-18.7
			c0-3.5-0.5-6.9-1.8-10.2c-1.6-3.9-4.2-6.5-8.5-7.2c-4.2-0.7-7.8,0.8-11,3.3c-1.3,1-2.4,2.2-3.7,3.5c0-2.1,0-4,0-6
			c-3.6,0-7.1,0-10.6,0c0,0.5,0,1,0,1.5c0,22.4,0,44.9,0,67.3c-95.1,0-190.2,0-285.4,0c0-83.6,0-167.2,0-250.8c6.1,0,12.3,0,18.5,0
			c0,6.3,0,12.5,0,18.7c1.8,0,3.5,0,5.4,0c0-6.2,0-12.4,0-18.7c6.2,0,12.2,0,18.3,0c0-1.9,0-3.6,0-5.5c-6.2,0-12.2,0-18.3,0
			c0-1.8,0-3.4,0-5c0-4.6,0-9.1-0.1-13.7c134.5,0,269,0,403.4,0c0,73.4,0,146.9,0,220.3c-0.1-0.3-0.2-0.6-0.3-0.9
			c-0.7-3.9-2.3-7.3-5.4-9.9c-4.9-4-10.5-5-16.6-4c-4.7,0.7-8.7,2.9-11.4,6.9c-2.1,3-3,6.4-3,10c-0.1,6.1,0,12.2,0,18.2
			c0,1,0.1,1.9,0.3,2.9c1.2,6.9,5,11.5,11.8,13.5c3.8,1.1,7.6,1,11.5,0.4c6.8-1.1,12-6.5,12.7-13.1C426.7,244,427,243.6,427.2,243.3
			z M245.4,116c0-0.4,0-0.8,0-1.2c-0.1-11.8-0.1-23.5-0.2-35.3c0-3.2,1.8-5.7,4.8-6.3c3.5-0.8,6.8,0.5,8,3.4
			c0.5,1.3,0.7,2.9,0.7,4.3c0.1,11.2,0,22.5,0,33.7c0,0.5,0,0.9,0,1.4c3.9,0,7.7,0,11.6,0c0-0.4,0-0.8,0-1.1c0-11,0-22.1,0-33.1
			c0-1.1-0.1-2.2-0.2-3.2c-0.6-4.8-2.7-8.9-6.7-11.8c-6.2-4.5-17.9-4.4-23.5,0.3c-0.3,0.2-0.9,0.3-1.2,0.1c-4.1-3-8.8-3.8-13.8-3.5
			c-4.2,0.3-8.1,1.4-11.3,4.4c-3.7,3.5-4.9,7.9-5,12.8c0,11.4,0,22.9,0,34.3c0,0.3,0,0.6,0.1,0.9c3.9,0,7.6,0,11.5,0
			c0-0.5,0-0.9,0-1.4c0-11,0-21.9,0-32.9c0-0.9,0-1.8,0-2.6c0.2-3.2,2.1-5.4,5.2-6c3.3-0.6,6.4,0.6,7.4,3.2c0.6,1.4,0.9,3.1,0.9,4.7
			c0.1,11.2,0,22.4,0.1,33.6c0,0.5,0,0.9,0,1.4C237.8,116,241.6,116,245.4,116z M103.4,209.6c-4.1-3.2-8.8-4.1-13.9-3.8
			c-4,0.3-7.7,1.3-10.8,4.1c-3.7,3.4-5,7.8-5,12.5c-0.1,11.1,0,22.2,0,33.2c0,0.4,0,0.8,0,1.1c3.8,0,7.5,0,11.2,0c0-0.5,0-0.9,0-1.4
			c0-9.2,0-18.3,0-27.5c0-2.2,0-4.3,0-6.5c0.1-3.1,1.5-5.2,4.1-6.1c2.8-0.9,5.9-0.2,7.6,1.8c1.3,1.6,1.5,3.5,1.5,5.4
			c0,11,0,21.9,0,32.9c0,0.5,0,0.9,0,1.4c3.9,0,7.5,0,11.3,0c0-0.8,0-1.5,0-2.2c-0.1-11.1-0.2-22.2-0.1-33.3c0-1.3,0.5-2.8,1.2-3.9
			c1.6-2.4,4.2-2.7,6.9-2.2c2.6,0.5,4.2,2.1,4.7,4.6c0.2,1,0.2,2.1,0.2,3.1c0,10.8,0,21.7,0,32.5c0,0.5,0,1,0.1,1.5
			c3.8,0,7.5,0,11.2,0c0-0.6,0-1,0-1.5c0-8.9,0-17.8,0-26.6c0-2.6,0.1-5.3-0.2-7.9c-0.7-6.4-3.7-11.3-9.8-13.6
			C116.7,204.6,109.8,205.1,103.4,209.6z M275.4,167.9c-2.5,0-4.9,0-7.4,0c4.5-5.1,5.4-11,5-17.2c-0.1-2-0.7-4.1-1.1-6.1
			c-0.1-0.7-0.1-1.1,0.6-1.3c0.9-0.2,1.8-0.5,2.7-0.8c0-3.3,0-6.7,0-10.2c-3.2,0.1-6,1-8.5,2.7c-0.3,0.2-1,0.3-1.2,0.2
			c-4.1-2.6-8.5-3.3-13.3-2.7c-5.7,0.7-10.5,4.7-12.1,10.2c-1.3,4.5-1.4,9-0.9,13.5c0.3,2.9,1,5.8,2.7,8.2c3.3,4.8,8.2,7,13.9,7.4
			c2.6,0.2,5.2-0.5,7.9-0.8c0,1.2,0,2.7,0,4.2c-0.1,3.3-2.1,5.6-5.3,6.1c-4.3,0.7-7.3-1.3-8.1-5.5c-0.1-0.5-0.1-0.9-0.2-1.4
			c-3.9,0-7.6,0-11.5,0c0.1,1,0.2,1.9,0.4,2.8c1,5.7,3.9,10,9.4,12.2c4.6,1.8,9.3,2,14,0.8c5.2-1.3,9.1-4.2,11.4-9.2
			C275.7,177.1,275.5,172.6,275.4,167.9z M152.4,234.3c8.4,0,16.7,0,25,0c0.1-0.2,0.1-0.3,0.1-0.4c0-4.1,0.1-8.2-0.1-12.4
			c-0.2-5.4-2.4-9.8-6.9-12.9c-1-0.7-2-1.2-3.1-1.9c1.1-1.5,2.8-1.6,4.4-1.9c0-3.4,0-6.8,0-10.2c-6,0-11.3,3.2-13.3,9.3
			c-0.3,1-0.7,1.3-1.8,1.4c-5.3,0.5-9.9,2.5-13,7c-2.3,3.2-3.1,6.9-3.1,10.8c0,5.6,0,11.1,0,16.7c0,1.6,0.2,3.2,0.5,4.8
			c1.3,6.2,5,10.3,11,12.3c3.9,1.3,7.9,1.3,12,0.6c8.5-1.6,12.9-7.8,13.1-16.1c-3.8,0-7.6,0-11.5,0c-0.1,0.5-0.1,1-0.1,1.4
			c-0.4,2.5-1.5,4.3-4,5.2c-4.6,1.6-9-0.9-9.4-5.7C152.2,239.7,152.4,237.1,152.4,234.3z M168.6,93.1c0-4.7,0.2-9.2-0.1-13.7
			c-0.3-4.5-2.1-8.4-5.7-11.2c-5.5-4.4-11.8-5.2-18.4-3.5c-7.7,1.9-12.3,7.8-12.5,15.7c-0.2,6.6-0.1,13.2,0,19.8
			c0,2.7,0.8,5.3,2,7.7c2.6,4.7,6.6,7.4,11.8,8.3c5.5,1,10.9,0.6,15.7-2.4c5-3.1,6.6-8.1,7.1-13.7c-3.9,0-7.7,0-11.5,0
			c-0.1,0.5-0.1,0.9-0.2,1.4c-0.5,3.5-2.6,5.5-6.2,5.6c-3.9,0.2-6.5-1.5-7-5c-0.4-2.9-0.1-5.9-0.1-8.9
			C151.9,93.1,160.2,93.1,168.6,93.1z M205.6,168.5c-3.8,0-7.6,0-11.4,0c0,0.3-0.1,0.6-0.1,0.9c-0.4,3.7-2.2,5.7-5.9,6.1
			c-4.3,0.5-7.5-1.9-7.6-6.3c-0.1-2.4,0-4.7,0-7.1c0-0.2,0.1-0.4,0.2-0.7c8.3,0,16.5,0,24.8,0c0-4.9,0.2-9.6-0.1-14.3
			c-0.3-4-2.1-7.5-5.2-10.2c-3-2.6-6.5-4-10.4-4.4c-4.9-0.5-9.6,0.2-13.8,3c-4.8,3.3-7,8.1-7.2,13.7c-0.2,6.9-0.3,13.9,0.2,20.8
			c0.5,6.8,4.3,11.6,10.8,13.9c5.3,1.9,10.6,1.7,15.8-0.2C202.4,181.2,205.6,175,205.6,168.5z M363,161.5c0.1-0.3,0.1-0.4,0.1-0.6
			c0-4.2,0.1-8.4-0.1-12.6c-0.2-4.3-1.8-8.1-5-11.1c-3-2.9-6.7-4.3-10.7-4.8c-4.8-0.5-9.5,0.1-13.7,2.9c-4.8,3.2-7,8-7.2,13.6
			c-0.2,6-0.1,12,0,18c0,1.2,0.1,2.4,0.3,3.6c0.9,5.6,3.7,10,8.9,12.5c4.7,2.3,9.5,2.4,14.5,1.4c5.4-1,9.4-3.9,11.5-9.1
			c0.9-2.2,1.4-4.5,1.4-7c-3.9,0-7.6,0-11.4,0c-0.1,0.4-0.2,0.8-0.3,1.2c-0.6,3.8-2.3,5.4-6.1,5.8c-3.1,0.3-6.1-1.4-6.9-4.1
			c-1-3.2-0.3-6.6-0.5-10C346.3,161.5,354.6,161.5,363,161.5z M278.3,231.3c-0.3-4.2-0.3-8.7-1-13.1c-0.9-5.7-4-9.9-9.6-11.8
			c-5-1.7-10.1-1.7-15.2-0.3c-4.1,1.1-7.3,3.5-9,7.4c-1,2.3-1.8,4.9-2,7.5c-0.4,7.6-0.8,15.3,0.2,22.9c0.8,6.5,4.3,11.4,11.2,13.2
			c3.6,1,7.3,1.1,11.1,0.5c7.8-1.2,12.3-5.4,13.5-13.2C278.1,240.2,278,235.9,278.3,231.3z M314.3,90.2c0,0-0.1,0-0.1,0
			c0-2.4,0.1-4.7,0-7.1c-0.1-2.1-0.2-4.2-0.6-6.3c-1.1-5.5-4-9.7-9.5-11.7c-3.9-1.4-8-1.5-12.1-1c-3.3,0.4-6.4,1.5-8.9,3.7
			c-3.6,3.1-5.1,7.3-5.4,11.9c-0.3,6.3-0.2,12.7-0.2,19.1c0,1.9,0.4,3.9,0.8,5.8c1.3,5.2,4.3,9,9.5,10.8c4,1.4,8.1,1.5,12.2,0.9
			c8.1-1.2,13.1-6.3,13.8-14.5C314.2,98,314.2,94.1,314.3,90.2z M364.4,231.6c0,0-0.1,0-0.1,0c0-2.5,0.1-5,0-7.6
			c-0.2-2.5-0.4-5-1-7.5c-1.2-4.9-4.3-8.4-9.2-10.1c-5-1.7-10.1-1.7-15.1-0.4c-4.5,1.2-7.8,4-9.6,8.3c-1.2,2.9-1.8,6.1-1.8,9.2
			c0,4.8-0.1,9.7,0,14.5c0.1,2.7,0.3,5.4,0.9,8.1c0.9,4.1,3.1,7.3,6.9,9.4c4.1,2.2,8.5,2.6,13,2.2c3.2-0.2,6.3-1,9-2.8
			c4.2-2.8,6-7,6.5-11.8C364.4,239.3,364.3,235.4,364.4,231.6z M43.8,148.8c0.2,0.1,0.3,0.2,0.4,0.2c3.4,0,6.9,0.1,10.3,0
			c0.3,0,0.8-0.5,0.8-0.9c0.7-3,2.5-4.9,5.6-5.3c3.1-0.4,6.6,1,6.7,5.5c0,1-0.1,1.9,0,2.9c0.1,1.2-0.3,1.6-1.4,1.9
			c-4.8,1.4-9.4,3.1-13.8,5.5c-7.3,4.1-11.2,9.6-10.1,18.1c0.6,4.7,3.6,8.2,8.3,9c5.5,1,10.5-0.4,14.9-3.9c0.6-0.5,1.2-0.9,1.9-1.5
			c0.2,1.4,0.5,2.5,0.6,3.7c0.1,0.8,0.4,1.1,1.2,1.1c3.2,0,6.5,0,9.7,0c0.3,0,0.5-0.1,0.6-0.1c-0.1-2.5-0.3-4.9-0.3-7.3
			c0-9.4,0-18.7,0-28.1c0-1.6-0.1-3.1-0.3-4.7c-0.7-4.5-2.9-7.9-7.1-9.9c-3.6-1.8-7.6-1.9-11.5-1.7c-4.2,0.2-8,1.4-11.2,4.2
			C45.7,140.5,44.1,144.3,43.8,148.8z M85.7,133.4c0,0.6,0,1.1,0,1.5c0,10.7,0,21.3,0,32c0,1.7,0.2,3.5,0.5,5.2
			c1.2,6.6,4.8,11.1,11.3,12.9c4.2,1.2,8.4,1.3,12.7,0.3c4.7-1.1,8.4-3.6,10.8-7.8c1.9-3.2,2.5-6.7,2.5-10.4c0-10.8,0-21.7,0-32.5
			c0-0.4,0-0.8-0.1-1.2c-4,0-7.9,0-11.9,0c0,0.5,0,1,0,1.5c0,11.4,0,22.7,0,34.1c0,6.2-4.7,8.3-9.9,6.7c-0.9-0.3-1.7-1-2.4-1.7
			c-1.4-1.4-1.6-3.3-1.6-5.2c0-11.3,0-22.6,0-33.9c0-0.5,0-0.9,0-1.5C93.6,133.4,89.7,133.4,85.7,133.4z M293.5,183.9
			c0-0.6,0-1.1,0-1.5c0-11,0-22.1,0-33.1c0-1.4,0.4-3,1.1-4.2c1.3-2.5,4.7-3.5,7.8-2.6c2.1,0.6,3.6,1.8,4.2,3.9
			c0.3,1.3,0.5,2.7,0.5,4c0,10.8,0,21.5,0,32.3c0,1.1,0.2,1.5,1.4,1.4c2.9-0.1,5.8-0.1,8.8,0c1.2,0,1.5-0.4,1.4-1.5
			c0-10.5,0-21,0-31.4c0-1.7-0.2-3.4-0.4-5c-0.9-5.1-3.4-9.2-8.2-11.5c-4.1-2-8.5-2.3-12.9-1.8c-3.6,0.4-7,1.7-9.7,4.2
			c-3.6,3.3-5.4,7.5-5.4,12.4c-0.1,11.2,0,22.3,0,33.5c0,0.3,0,0.6,0.1,1C285.8,183.9,289.5,183.9,293.5,183.9z M358.3,115.6
			c0-0.6,0-1,0-1.4c0-10,0-20,0-30c0-1.9,0-3.8-0.3-5.7c-0.7-4.9-2.9-9-7.3-11.6c-3.8-2.2-8.1-2.7-12.4-2.4
			c-4.4,0.3-8.5,1.7-11.7,4.9c-3.5,3.4-4.9,7.8-5,12.6c-0.1,10.9,0,21.8,0,32.8c0,0.3,0,0.6,0,1c3.8,0,7.6,0,11.5,0c0-0.5,0-1,0-1.5
			c0-9.9,0-19.8,0-29.8c0-1.2,0-2.4,0-3.6c0.2-4,2.2-6.3,5.9-6.8c3.6-0.5,6.6,1.3,7.4,4.5c0.3,1,0.3,2.1,0.3,3.1
			c0,10.9,0,21.8,0,32.6c0,0.5,0,0.9,0,1.4C350.7,115.6,354.4,115.6,358.3,115.6z M102.7,82.4c-0.3-2.1-0.4-4.1-0.8-6
			c-1.4-6.3-5.1-10.4-11.4-11.9c-4.1-1-8.3-1-12.4,0c-4.9,1.1-8.5,3.9-10.5,8.6c-1.2,2.9-1.7,6-1.7,9.1c0,4.8-0.1,9.6,0,14.4
			c0.1,2.5,0.2,5.1,0.8,7.6c1.2,5.3,4.2,9.2,9.4,11c4.1,1.4,8.2,1.6,12.4,1c6.9-1,11.6-4.8,13.2-11.7c0.6-2.4,0.7-4.8,1.1-7.3
			c-4.1,0-7.9,0-11.8,0c0,1.2,0,2.2,0,3.3c-0.1,2.9-1.7,4.9-4.5,5.5c-1.2,0.2-2.4,0.2-3.6,0.2c-3.2-0.2-5.5-2.5-5.5-5.7
			c-0.1-6.9,0-13.8,0-20.6c0-2.8,1.5-4.5,4.1-5.4c1.7-0.5,3.5-0.5,5.2,0c2.8,0.8,4.2,2.6,4.3,5.5c0,0.8,0,1.6,0,2.4
			C95,82.4,98.7,82.4,102.7,82.4z M127.6,133.3c0,0.4,0,0.6,0,0.9c1.8,6.6,3.5,13.3,5.3,19.9c1.5,5.5,3,11.1,4.5,16.6
			c1.1,4.2,2.2,8.3,3.4,12.5c0.1,0.4,0.6,0.9,0.9,0.9c3.3,0.1,6.6,0.1,10,0c0.3,0,0.8-0.4,0.9-0.7c1.3-4.6,2.5-9.2,3.8-13.9
			c2.8-10.3,5.5-20.7,8.3-31c0.5-1.7,0.9-3.4,1.4-5.3c-3.6,0-7,0-10.3,0c-1,0-1.3,0.3-1.5,1.2c-0.5,2.5-1.1,5-1.7,7.5
			c-1.5,6.4-3,12.8-4.4,19.2c-0.4,1.6-0.8,3.1-1.2,5c-0.2-0.5-0.3-0.7-0.3-0.9c-1.1-5-2.3-10-3.4-14.9c-1.2-5.3-2.5-10.7-3.7-16
			c-0.1-0.4-0.5-1-0.8-1C134.9,133.3,131.3,133.3,127.6,133.3z M207.1,257.4c0-3.3,0-6.6,0-9.8c-1.2,0-2.2,0.1-3.3,0
			c-2.8-0.2-4.1-1.6-4.1-4.4c0-8,0-16,0-24c0-0.4,0-0.8,0.1-1.4c2.5,0,4.9,0,7.3,0c0-3.2,0-6.3,0-9.6c-2.5,0-4.9,0-7.4,0
			c0-4.7,0-9.2,0-13.7c-3.9,0-7.7,0-11.6,0c0,4.6,0,9.1,0,13.8c-1.6,0-3.1,0-4.5,0c0,3.2,0,6.3,0,9.6c1.6,0,3,0,4.5,0
			c0,0.6,0,1,0,1.5c0,6.8,0,13.7,0,20.5c0,2.8,0,5.7,0,8.5c0.1,4.5,2.3,7.4,6.5,8.7C198.7,258.3,202.9,258,207.1,257.4z
			 M387.4,106.2c-1.2,0-2.4,0.1-3.5,0c-2.7-0.2-4-1.6-4-4.3c0-8,0-16.1,0-24.1c0-0.4,0-0.8,0.1-1.3c2.5,0,4.9,0,7.3,0
			c0-3.2,0-6.3,0-9.5c-2.5,0-4.9,0-7.4,0c0-4.7,0-9.2,0-13.8c-3.9,0-7.7,0-11.6,0c0,4.6,0,9.1,0,13.8c-1.6,0-3,0-4.5,0
			c0,3.2,0,6.3,0,9.5c1.5,0,3,0,4.5,0c0,0.6,0,1,0,1.5c0,6.5,0,13,0,19.4c0,3.2,0,6.5,0,9.7c0.1,4.6,2.9,7.9,7.3,8.9
			c3.1,0.7,6.2,0.6,9.3,0.4c0.8-0.1,1.6-0.2,2.5-0.3C387.4,112.8,387.4,109.6,387.4,106.2z M111.6,48.2c0,22.5,0,44.9,0,67.3
			c3.8,0,7.6,0,11.4,0c0-22.5,0-44.9,0-67.3C119.2,48.2,115.5,48.2,111.6,48.2z M371.6,189.6c0,22.5,0,44.9,0,67.3
			c3.8,0,7.6,0,11.4,0c0-22.5,0-44.9,0-67.3C379.2,189.6,375.4,189.6,371.6,189.6z M178.1,65.3c0,17,0,33.9,0,50.7
			c3.8,0,7.5,0,11.2,0c0-0.5,0-1,0-1.4c0-9,0.1-17.9-0.1-26.9c-0.1-3.1,1.2-5.5,3.3-7.5c2.8-2.8,6.2-4.8,10.1-5.5
			c0-3.5,0-6.9,0-10.4c-2.9,0.2-5.6,0.9-8,2.4c-2.4,1.6-4,3.9-5.4,6.4c0-2.6,0-5.2,0-7.9C185.5,65.3,181.8,65.3,178.1,65.3z
			 M225.6,214.5c0-2.6,0-5.2,0-7.8c-3.9,0-7.5,0-11.2,0c0,16.9,0,33.8,0,50.7c3.8,0,7.5,0,11.2,0c0-0.6,0-1,0-1.5
			c0-8.9,0.1-17.8-0.1-26.6c-0.1-3.5,1.4-6,3.7-8.2c2.7-2.5,5.9-4.3,9.6-5.1c0-3.4,0-6.8,0-10.3C232.8,206,228.2,208.7,225.6,214.5z
			 M237,142.7c0-3.4,0-6.8,0-10.3c-6.2,0.4-10.8,3-13.1,9.1c-0.1-0.1-0.2-0.1-0.2-0.2c0-2.6,0-5.2,0-7.9c-3.8,0-7.4,0-11.2,0
			c0,0.5,0,1,0,1.5c0,12.5,0,25,0,37.6c0,3.5,0,7,0,10.4c0,1.1,0.3,1.4,1.4,1.3c1.7-0.1,3.4,0,5,0c1.6,0,3.2,0,4.9,0
			c0-0.6,0-1.1,0-1.6c0-8.9,0.1-17.8,0-26.8c0-3.2,1.2-5.6,3.3-7.7C229.7,145.4,233,143.5,237,142.7z"/>
		<path class="st1" d="M285.3,275c0-22.4,0-44.9,0-67.3c0-0.5,0-0.9,0-1.5c3.6,0,7,0,10.6,0c0,1.9,0,3.9,0,6
			c1.3-1.3,2.4-2.5,3.7-3.5c3.2-2.5,6.8-4,11-3.3c4.3,0.7,7,3.3,8.5,7.2c1.3,3.3,1.8,6.7,1.8,10.2c0.1,6.2,0.1,12.5-0.1,18.7
			c-0.1,3.6-0.8,7-2.3,10.3c-2.9,6.2-10.4,7.6-15.5,4.7c-2.1-1.2-4.1-2.6-6.3-4c0,0.4,0,0.8,0,1.3c0,6.6,0,13.3,0,19.9
			c0,0.4,0,0.9-0.1,1.3C293,275,289.2,275,285.3,275z M296.9,231.5c0,4.3,0,8.6,0,13c0,0.4,0.1,1,0.4,1.3c1.3,1.5,2.9,2.7,5,3.2
			c3.1,0.7,5.3-0.5,6.2-3.4c0.4-1.2,0.8-2.6,0.8-3.8c0.1-6.4,0.2-12.8,0.1-19.2c0-1.6-0.4-3.2-0.9-4.8c-0.8-2.8-2.7-4-5.6-3.7
			c-2.2,0.2-3.9,1.4-5.4,2.9c-0.4,0.4-0.7,1.2-0.7,1.8C296.9,223,296.9,227.2,296.9,231.5z"/>
		<path class="st1" d="M427.2,243.3c-0.2,0.3-0.4,0.7-0.5,1c-0.7,6.7-5.9,12.1-12.7,13.1c-3.9,0.6-7.7,0.7-11.5-0.4
			c-6.7-2-10.6-6.6-11.8-13.5c-0.2-0.9-0.3-1.9-0.3-2.9c0-6.1-0.1-12.2,0-18.2c0-3.6,0.9-7,3-10c2.8-4,6.7-6.2,11.4-6.9
			c6.1-1,11.7,0,16.6,4c3.1,2.6,4.8,5.9,5.4,9.9c0.1,0.3,0.2,0.6,0.3,0.9c0,4.7,0,9.4,0,14.2c-8.4,0-16.8,0-25.2,0
			c0,2.5,0,4.9,0,7.2c0,0.5,0.1,1,0.2,1.5c0.4,2.7,2.4,4.6,5.2,5.1c3.1,0.5,6.1-0.6,7.2-3c0.6-1.2,0.8-2.6,1.3-4c3.7,0,7.5,0,11.3,0
			C427.2,242,427.2,242.6,427.2,243.3z M415.6,224.8c0-0.5,0-0.8,0-1.2c0-1.1,0-2.2-0.2-3.2c-0.4-3.4-2.2-5.2-5.6-5.6
			c-3.5-0.5-6.5,1-7.3,4c-0.5,1.9-0.5,4-0.7,6C406.6,224.8,411,224.8,415.6,224.8z"/>
		<path class="st2" d="M23.7-0.1c0,4.6,0.1,9.1,0.1,13.7c0,1.6,0,3.3,0,5c6.1,0,12.2,0,18.3,0c0,1.9,0,3.7,0,5.5
			c-6.1,0-12.1,0-18.3,0c0,6.3,0,12.4,0,18.7c-1.8,0-3.5,0-5.4,0c0-6.2,0-12.3,0-18.7c-6.2,0-12.4,0-18.5,0c0-1.8,0-3.7,0-5.5
			c6.1,0,12.3,0,18.5,0c0-6.3,0-12.5,0-18.7C20.2-0.1,22-0.1,23.7-0.1z"/>
		<path class="st0" d="M18.4-0.1c0,6.2,0,12.4,0,18.7c-6.2,0-12.3,0-18.5,0C0,12.4,0,6.2,0-0.1C6.1-0.1,12.3-0.1,18.4-0.1z"/>
		<path class="st3" d="M427.2,241.4c-3.8,0-7.6,0-11.3,0c-0.4,1.4-0.7,2.7-1.3,4c-1.2,2.4-4.1,3.5-7.2,3c-2.8-0.5-4.7-2.4-5.2-5.1
			c-0.1-0.5-0.2-1-0.2-1.5c0-2.4,0-4.7,0-7.2c8.4,0,16.8,0,25.2,0C427.2,236.7,427.2,239,427.2,241.4z"/>
		<path class="st1" d="M245.4,116c-3.9,0-7.6,0-11.5,0c0-0.5,0-0.9,0-1.4c0-11.2,0-22.4-0.1-33.6c0-1.6-0.3-3.2-0.9-4.7
			c-1.1-2.6-4.1-3.8-7.4-3.2c-3.1,0.5-5,2.7-5.2,6c-0.1,0.9,0,1.8,0,2.6c0,11,0,21.9,0,32.9c0,0.4,0,0.9,0,1.4c-3.9,0-7.6,0-11.5,0
			c0-0.3-0.1-0.6-0.1-0.9c0-11.4,0-22.9,0-34.3c0-4.9,1.3-9.3,5-12.8c3.1-3,7.1-4.1,11.3-4.4c4.9-0.4,9.6,0.5,13.8,3.5
			c0.3,0.2,0.9,0.1,1.2-0.1c5.6-4.6,17.3-4.8,23.5-0.3c4,2.9,6.1,7,6.7,11.8c0.1,1.1,0.2,2.2,0.2,3.2c0,11,0,22.1,0,33.1
			c0,0.3,0,0.7,0,1.1c-3.9,0-7.7,0-11.6,0c0-0.5,0-0.9,0-1.4c0-11.2,0-22.5,0-33.7c0-1.4-0.2-3-0.7-4.3c-1.2-2.9-4.5-4.2-8-3.4
			c-3,0.7-4.8,3.1-4.8,6.3c0.1,11.8,0.1,23.5,0.2,35.3C245.4,115.2,245.4,115.6,245.4,116z"/>
		<path class="st4" d="M103.4,209.6c6.4-4.5,13.3-5.1,20.3-2.4c6.1,2.3,9.2,7.2,9.8,13.6c0.3,2.6,0.2,5.3,0.2,7.9
			c0,8.9,0,17.8,0,26.6c0,0.5,0,0.9,0,1.5c-3.8,0-7.4,0-11.2,0c0-0.5-0.1-1-0.1-1.5c0-10.8,0-21.7,0-32.5c0-1,0-2.1-0.2-3.1
			c-0.5-2.6-2.2-4.1-4.7-4.6c-2.7-0.5-5.2-0.2-6.9,2.2c-0.7,1.1-1.2,2.6-1.2,3.9c0,11.1,0.1,22.2,0.1,33.3c0,0.7,0,1.4,0,2.2
			c-3.7,0-7.4,0-11.3,0c0-0.4,0-0.9,0-1.4c0-11,0-21.9,0-32.9c0-1.9-0.2-3.8-1.5-5.4c-1.7-2-4.8-2.7-7.6-1.8c-2.6,0.9-4,3-4.1,6.1
			c-0.1,2.2,0,4.3,0,6.5c0,9.2,0,18.3,0,27.5c0,0.4,0,0.9,0,1.4c-3.7,0-7.4,0-11.2,0c0-0.4,0-0.8,0-1.1c0-11.1-0.1-22.2,0-33.2
			c0-4.8,1.3-9.2,5-12.5c3-2.8,6.8-3.8,10.8-4.1C94.6,205.5,99.4,206.4,103.4,209.6z"/>
		<path class="st5" d="M275.4,167.9c0,4.7,0.3,9.2-1.6,13.4c-2.2,5-6.1,8-11.4,9.2c-4.7,1.1-9.5,0.9-14-0.8
			c-5.5-2.1-8.4-6.5-9.4-12.2c-0.2-0.9-0.2-1.8-0.4-2.8c3.9,0,7.7,0,11.5,0c0,0.4,0.1,0.9,0.2,1.4c0.7,4.1,3.8,6.2,8.1,5.5
			c3.2-0.6,5.2-2.8,5.3-6.1c0-1.5,0-3,0-4.2c-2.7,0.3-5.3,0.9-7.9,0.8c-5.7-0.3-10.5-2.5-13.9-7.4c-1.7-2.5-2.4-5.3-2.7-8.2
			c-0.5-4.6-0.4-9.1,0.9-13.5c1.6-5.5,6.4-9.5,12.1-10.2c4.8-0.6,9.2,0.1,13.3,2.7c0.3,0.2,0.9,0,1.2-0.2c2.5-1.8,5.4-2.6,8.5-2.7
			c0,3.4,0,6.8,0,10.2c-0.9,0.3-1.8,0.6-2.7,0.8c-0.7,0.2-0.8,0.6-0.6,1.3c0.4,2,1,4,1.1,6.1c0.4,6.2-0.5,12.1-5,17.2
			C270.6,167.9,272.9,167.9,275.4,167.9z M249.9,151.9c0.2,1.8,0.2,3.1,0.4,4.4c0.8,4.4,2.3,6.6,6.9,6.1c2-0.2,3.6-1.3,4.2-3.3
			c1.2-4.4,1.4-8.9,0-13.3c-0.9-2.8-2.7-4-5.9-3.8c-2.4,0.1-4.1,1.6-4.7,4.2C250.4,148.2,250.2,150.4,249.9,151.9z"/>
		<path class="st6" d="M152.4,234.3c0,2.8-0.2,5.4,0,8c0.4,4.8,4.7,7.3,9.4,5.7c2.5-0.9,3.6-2.7,4-5.2c0.1-0.4,0.1-0.9,0.1-1.4
			c3.8,0,7.7,0,11.5,0c-0.2,8.3-4.7,14.5-13.1,16.1c-4,0.7-8,0.7-12-0.6c-6-2-9.7-6.1-11-12.3c-0.3-1.6-0.5-3.2-0.5-4.8
			c-0.1-5.6,0-11.1,0-16.7c0-3.9,0.8-7.5,3.1-10.8c3.2-4.5,7.7-6.6,13-7c1-0.1,1.4-0.4,1.8-1.4c1.9-6.1,7.3-9.3,13.3-9.3
			c0,3.4,0,6.8,0,10.2c-1.6,0.3-3.3,0.4-4.4,1.9c1,0.6,2.1,1.2,3.1,1.9c4.5,3.1,6.7,7.6,6.9,12.9c0.2,4.1,0.1,8.2,0.1,12.4
			c0,0.1-0.1,0.2-0.1,0.4C169.1,234.3,160.8,234.3,152.4,234.3z M165.8,224.8c0-1.4,0.1-2.7,0-4.1c-0.3-3.6-2.2-5.5-5.7-5.9
			c-3.6-0.4-6.6,1.2-7.3,4.3c-0.4,1.8-0.4,3.8-0.5,5.7C156.9,224.8,161.3,224.8,165.8,224.8z"/>
		<path class="st4" d="M168.6,93.1c-8.4,0-16.7,0-24.9,0c0,3-0.3,6,0.1,8.9c0.5,3.6,3.1,5.2,7,5c3.6-0.1,5.7-2.1,6.2-5.6
			c0.1-0.4,0.1-0.9,0.2-1.4c3.8,0,7.6,0,11.5,0c-0.5,5.6-2.1,10.6-7.1,13.7c-4.9,3-10.2,3.4-15.7,2.4c-5.2-0.9-9.2-3.6-11.8-8.3
			c-1.3-2.4-2-5-2-7.7c-0.1-6.6-0.2-13.2,0-19.8c0.2-7.9,4.8-13.8,12.5-15.7c6.6-1.7,12.9-0.9,18.4,3.5c3.6,2.9,5.4,6.8,5.7,11.2
			C168.8,83.8,168.6,88.4,168.6,93.1z M157.2,83.4c-0.1-1.8-0.1-3.5-0.4-5.1c-0.9-4.1-5-6-9.2-4.5c-1.5,0.5-2.6,1.5-3.3,2.9
			c-1,2.1-0.8,4.4-0.7,6.7C148.1,83.4,152.5,83.4,157.2,83.4z"/>
		<path class="st5" d="M205.6,168.5c0,6.5-3.1,12.7-9.7,15.1c-5.2,1.9-10.6,2.1-15.8,0.2c-6.5-2.3-10.3-7.1-10.8-13.9
			c-0.5-6.9-0.4-13.9-0.2-20.8c0.1-5.6,2.3-10.4,7.2-13.7c4.2-2.8,8.9-3.4,13.8-3c3.9,0.4,7.4,1.8,10.4,4.4
			c3.1,2.7,4.9,6.2,5.2,10.2c0.3,4.7,0.1,9.4,0.1,14.3c-8.3,0-16.5,0-24.8,0c-0.1,0.3-0.2,0.5-0.2,0.7c0,2.4,0,4.7,0,7.1
			c0.1,4.3,3.2,6.8,7.6,6.3c3.7-0.4,5.5-2.4,5.9-6.1c0-0.3,0.1-0.5,0.1-0.9C198,168.5,201.8,168.5,205.6,168.5z M194.4,152
			c-0.3-2.3-0.3-4.4-0.9-6.4c-0.6-2.4-3.5-3.9-6.4-3.7c-2.1,0.1-4,0.7-5.3,2.5c-1.5,2.2-1.3,4.7-1.2,7.2c0,0.2,0.5,0.4,0.7,0.4
			C185.5,152,189.7,152,194.4,152z"/>
		<path class="st5" d="M363,161.5c-8.3,0-16.6,0-25.1,0c0.2,3.4-0.4,6.7,0.5,10c0.8,2.7,3.8,4.4,6.9,4.1c3.8-0.4,5.5-2,6.1-5.8
			c0.1-0.4,0.2-0.8,0.3-1.2c3.8,0,7.5,0,11.4,0c-0.1,2.5-0.5,4.8-1.4,7c-2.2,5.2-6.1,8-11.5,9.1c-5,1-9.8,0.8-14.5-1.4
			c-5.2-2.5-8-6.9-8.9-12.5c-0.2-1.2-0.3-2.4-0.3-3.6c0-6-0.1-12,0-18c0.2-5.6,2.4-10.4,7.2-13.6c4.1-2.8,8.8-3.4,13.7-2.9
			c4.1,0.4,7.7,1.9,10.7,4.8c3.2,3,4.8,6.8,5,11.1c0.2,4.2,0.1,8.4,0.1,12.6C363.1,161.1,363,161.2,363,161.5z M337.8,152
			c3.8,0,7.2,0,10.6,0c3.4,0,3.4,0,3.2-3.4c-0.3-4.4-2.2-6.3-6.4-6.7c-3.4-0.3-6.2,1.5-6.8,4.6C337.9,148.3,337.9,150.1,337.8,152z"
			/>
		<path class="st6" d="M278.3,231.3c-0.3,4.5-0.2,8.8-0.9,13c-1.2,7.8-5.7,12-13.5,13.2c-3.7,0.6-7.4,0.5-11.1-0.5
			c-6.8-1.8-10.3-6.7-11.2-13.2c-1-7.6-0.6-15.2-0.2-22.9c0.1-2.5,1-5.1,2-7.5c1.7-3.9,4.9-6.3,9-7.4c5.1-1.4,10.2-1.4,15.2,0.3
			c5.6,1.9,8.8,6.1,9.6,11.8C278,222.6,278,227.1,278.3,231.3z M252.9,231.5C252.9,231.5,252.9,231.5,252.9,231.5c0,3.5,0,7,0,10.4
			c0,2.3,1.1,4.1,3.2,5c1.7,0.8,3.6,0.9,5.4,0.5c3.4-0.7,4.9-2.6,4.9-6.1c0-2,0-4.1,0-6.1c0-4.6,0-9.3,0-13.9c0-2.8-1.4-4.8-4-5.5
			c-1.3-0.3-2.7-0.5-4-0.3c-3.9,0.4-5.6,2.4-5.6,6.3C252.9,225.1,252.9,228.3,252.9,231.5z"/>
		<path class="st6" d="M314.3,90.2c-0.1,3.9-0.1,7.8-0.4,11.6c-0.7,8.1-5.7,13.3-13.8,14.5c-4.1,0.6-8.2,0.4-12.2-0.9
			c-5.2-1.8-8.3-5.5-9.5-10.8c-0.5-1.9-0.8-3.9-0.8-5.8c-0.1-6.4-0.1-12.7,0.2-19.1c0.2-4.6,1.7-8.8,5.4-11.9
			c2.6-2.2,5.6-3.3,8.9-3.7c4.1-0.5,8.2-0.4,12.1,1c5.5,2,8.4,6.1,9.5,11.7c0.4,2.1,0.5,4.2,0.6,6.3c0.1,2.4,0,4.7,0,7.1
			C314.2,90.2,314.3,90.2,314.3,90.2z M302.6,90.3C302.6,90.3,302.6,90.3,302.6,90.3c0-3.5,0-7,0-10.6c0-2.3-1.1-3.9-3.3-4.9
			c-2.2-0.9-4.4-1-6.5-0.2c-2.4,0.8-3.7,2.6-3.7,5.1c-0.1,7-0.1,14,0,21c0,2.6,1.3,4.5,3.9,5.1c1.6,0.4,3.4,0.5,5.1,0.2
			c2.9-0.5,4.5-2.6,4.6-5.6C302.6,97,302.6,93.7,302.6,90.3z"/>
		<path class="st4" d="M364.4,231.6c-0.1,3.9,0,7.8-0.4,11.6c-0.5,4.8-2.3,9-6.5,11.8c-2.7,1.9-5.8,2.6-9,2.8c-4.5,0.3-9,0-13-2.2
			c-3.7-2.1-6-5.3-6.9-9.4c-0.6-2.6-0.9-5.4-0.9-8.1c-0.1-4.8-0.1-9.7,0-14.5c0-3.2,0.5-6.3,1.8-9.2c1.8-4.3,5.1-7.1,9.6-8.3
			c5.1-1.4,10.1-1.3,15.1,0.4c4.9,1.7,7.9,5.2,9.2,10.1c0.6,2.4,0.8,5,1,7.5c0.2,2.5,0,5,0,7.6C364.4,231.6,364.4,231.6,364.4,231.6
			z M352.8,231.7c0-3.2-0.1-6.4,0-9.6c0.2-4.1-2.3-6.5-6.5-6.6c-4.4-0.1-7.1,2.1-7.2,6c0,6.7,0,13.4,0,20.1c0,3.1,1.6,5.1,4.6,5.7
			c1.2,0.3,2.5,0.3,3.7,0.2c3.4-0.4,5.3-2.6,5.4-6.1C352.8,238.2,352.8,234.9,352.8,231.7z"/>
		<path class="st5" d="M43.8,148.8c0.3-4.5,1.9-8.3,5.3-11.3c3.2-2.8,7.1-3.9,11.2-4.2c3.9-0.2,7.8,0,11.5,1.7
			c4.1,2,6.4,5.4,7.1,9.9c0.2,1.5,0.3,3.1,0.3,4.7c0,9.4,0,18.7,0,28.1c0,2.4,0.2,4.8,0.3,7.3c-0.1,0-0.3,0.1-0.6,0.1
			c-3.2,0-6.5,0-9.7,0c-0.8,0-1.1-0.3-1.2-1.1c-0.1-1.1-0.4-2.3-0.6-3.7c-0.7,0.6-1.3,1-1.9,1.5c-4.4,3.4-9.4,4.9-14.9,3.9
			c-4.7-0.8-7.7-4.3-8.3-9c-1.1-8.5,2.8-14,10.1-18.1c4.3-2.4,9-4.1,13.8-5.5c1.1-0.3,1.5-0.8,1.4-1.9c-0.1-0.9,0-1.9,0-2.9
			c-0.2-4.5-3.6-5.9-6.7-5.5c-3,0.4-4.9,2.3-5.6,5.3c-0.1,0.3-0.5,0.8-0.8,0.9c-3.4,0-6.9,0-10.3,0C44.1,149,44,148.9,43.8,148.8z
			 M67.7,160.2c-3.3,1.2-6.3,2.4-8.9,4.3c-1.5,1.1-2.9,2.5-3.9,3.9c-1.5,2.1-1.6,4.5-0.2,6.6c1.3,2,3.4,2.3,5.7,1.9
			c2.9-0.5,5-2.3,7-4.3c0.1-0.2,0.2-0.4,0.2-0.7C67.7,168.2,67.7,164.3,67.7,160.2z"/>
		<path class="st5" d="M85.7,133.4c4.1,0,7.9,0,12,0c0,0.5,0,1,0,1.5c0,11.3,0,22.6,0,33.9c0,1.9,0.2,3.8,1.6,5.2
			c0.7,0.7,1.5,1.4,2.4,1.7c5.2,1.6,9.9-0.6,9.9-6.7c0-11.4,0-22.7,0-34.1c0-0.5,0-0.9,0-1.5c4,0,7.9,0,11.9,0
			c0,0.5,0.1,0.9,0.1,1.2c0,10.8,0,21.7,0,32.5c0,3.6-0.6,7.2-2.5,10.4c-2.5,4.2-6.1,6.7-10.8,7.8c-4.3,1-8.5,0.9-12.7-0.3
			c-6.5-1.8-10.2-6.3-11.3-12.9c-0.3-1.7-0.4-3.5-0.5-5.2c0-10.7,0-21.3,0-32C85.7,134.4,85.7,134,85.7,133.4z"/>
		<path class="st5" d="M293.5,183.9c-3.9,0-7.7,0-11.5,0c0-0.4-0.1-0.7-0.1-1c0-11.2,0-22.3,0-33.5c0-4.8,1.8-9.1,5.4-12.4
			c2.7-2.5,6.1-3.8,9.7-4.2c4.4-0.5,8.8-0.2,12.9,1.8c4.8,2.3,7.3,6.4,8.2,11.5c0.3,1.6,0.4,3.3,0.4,5c0,10.5,0,21,0,31.4
			c0,1.1-0.3,1.5-1.4,1.5c-2.9-0.1-5.8-0.1-8.8,0c-1.2,0-1.4-0.4-1.4-1.4c0-10.8,0-21.5,0-32.3c0-1.3-0.2-2.7-0.5-4
			c-0.6-2.1-2.1-3.3-4.2-3.9c-3.1-0.8-6.5,0.2-7.8,2.6c-0.7,1.3-1,2.8-1.1,4.2c-0.1,11,0,22.1,0,33.1
			C293.5,182.8,293.5,183.3,293.5,183.9z"/>
		<path class="st1" d="M358.3,115.6c-3.9,0-7.6,0-11.6,0c0-0.5,0-0.9,0-1.4c0-10.9,0-21.8,0-32.6c0-1,0-2.1-0.3-3.1
			c-0.8-3.3-3.8-5-7.4-4.5c-3.7,0.5-5.7,2.8-5.9,6.8c-0.1,1.2,0,2.4,0,3.6c0,9.9,0,19.8,0,29.8c0,0.5,0,0.9,0,1.5
			c-3.9,0-7.7,0-11.5,0c0-0.4,0-0.7,0-1c0-10.9,0-21.8,0-32.8c0-4.8,1.5-9.1,5-12.6c3.2-3.2,7.2-4.6,11.7-4.9
			c4.3-0.3,8.6,0.2,12.4,2.4c4.5,2.6,6.6,6.7,7.3,11.6c0.3,1.9,0.3,3.8,0.3,5.7c0,10,0,20,0,30C358.3,114.6,358.3,115,358.3,115.6z"
			/>
		<path class="st4" d="M102.7,82.4c-4,0-7.7,0-11.6,0c0-0.8,0-1.6,0-2.4c-0.1-2.9-1.5-4.7-4.3-5.5c-1.7-0.5-3.5-0.5-5.2,0
			c-2.6,0.8-4.1,2.6-4.1,5.4c-0.1,6.9-0.1,13.8,0,20.6c0,3.2,2.3,5.5,5.5,5.7c1.2,0.1,2.4,0.1,3.6-0.2c2.9-0.6,4.5-2.6,4.5-5.5
			c0-1.1,0-2.1,0-3.3c3.9,0,7.6,0,11.8,0c-0.3,2.5-0.5,5-1.1,7.3c-1.7,6.9-6.3,10.7-13.2,11.7c-4.2,0.6-8.4,0.5-12.4-1
			c-5.3-1.8-8.3-5.7-9.4-11c-0.5-2.5-0.7-5.1-0.8-7.6c-0.1-4.8,0-9.6,0-14.4c0-3.1,0.5-6.2,1.7-9.1c2-4.7,5.6-7.5,10.5-8.6
			c4.1-1,8.3-1,12.4,0c6.3,1.5,10.1,5.6,11.4,11.9C102.3,78.3,102.4,80.3,102.7,82.4z"/>
		<path class="st5" d="M127.6,133.3c3.7,0,7.2,0,10.8,0c0.3,0,0.7,0.6,0.8,1c1.3,5.3,2.5,10.6,3.7,16c1.1,5,2.3,10,3.4,14.9
			c0,0.2,0.1,0.4,0.3,0.9c0.5-1.9,0.9-3.4,1.2-5c1.5-6.4,3-12.8,4.4-19.2c0.6-2.5,1.2-5,1.7-7.5c0.2-0.9,0.6-1.2,1.5-1.2
			c3.4,0.1,6.8,0,10.3,0c-0.5,1.8-0.9,3.6-1.4,5.3c-2.7,10.3-5.5,20.7-8.3,31c-1.2,4.6-2.5,9.2-3.8,13.9c-0.1,0.3-0.6,0.7-0.9,0.7
			c-3.3,0.1-6.6,0.1-10,0c-0.3,0-0.8-0.6-0.9-0.9c-1.2-4.2-2.3-8.3-3.4-12.5c-1.5-5.5-3-11.1-4.5-16.6c-1.8-6.6-3.5-13.3-5.3-19.9
			C127.6,134,127.7,133.7,127.6,133.3z"/>
		<path class="st1" d="M207.1,257.4c-4.2,0.6-8.4,0.9-12.4-0.3c-4.3-1.3-6.4-4.2-6.5-8.7c-0.1-2.8,0-5.7,0-8.5c0-6.8,0-13.7,0-20.5
			c0-0.4,0-0.9,0-1.5c-1.5,0-3,0-4.5,0c0-3.2,0-6.3,0-9.6c1.4,0,2.9,0,4.5,0c0-4.7,0-9.2,0-13.8c3.9,0,7.7,0,11.6,0
			c0,4.5,0,9,0,13.7c2.5,0,4.9,0,7.4,0c0,3.3,0,6.4,0,9.6c-2.4,0-4.8,0-7.3,0c0,0.5-0.1,0.9-0.1,1.4c0,8,0,16,0,24
			c0,2.8,1.3,4.2,4.1,4.4c1.1,0.1,2.1,0,3.3,0C207.1,250.9,207.1,254.1,207.1,257.4z"/>
		<path class="st1" d="M387.4,106.2c0,3.3,0,6.5,0,9.9c-0.8,0.1-1.6,0.3-2.5,0.3c-3.1,0.3-6.2,0.3-9.3-0.4c-4.4-1-7.2-4.2-7.3-8.9
			c-0.1-3.2,0-6.5,0-9.7c0-6.5,0-13,0-19.4c0-0.4,0-0.9,0-1.5c-1.5,0-3,0-4.5,0c0-3.2,0-6.3,0-9.5c1.5,0,2.9,0,4.5,0
			c0-4.7,0-9.2,0-13.8c3.9,0,7.7,0,11.6,0c0,4.6,0,9.1,0,13.8c2.5,0,4.9,0,7.4,0c0,3.2,0,6.3,0,9.5c-2.4,0-4.8,0-7.3,0
			c0,0.5-0.1,0.9-0.1,1.3c0,8,0,16.1,0,24.1c0,2.7,1.3,4.1,4,4.3C385.1,106.3,386.2,106.2,387.4,106.2z"/>
		<path class="st4" d="M111.6,48.2c3.8,0,7.5,0,11.4,0c0,22.4,0,44.8,0,67.3c-3.7,0-7.5,0-11.4,0C111.6,93.1,111.6,70.7,111.6,48.2z
			"/>
		<path class="st1" d="M371.6,189.6c3.8,0,7.6,0,11.4,0c0,22.4,0,44.8,0,67.3c-3.8,0-7.6,0-11.4,0
			C371.6,234.4,371.6,212,371.6,189.6z"/>
		<path class="st6" d="M178.1,65.3c3.7,0,7.4,0,11.1,0c0,2.6,0,5.3,0,7.9c1.4-2.5,2.9-4.8,5.4-6.4c2.4-1.6,5.1-2.2,8-2.4
			c0,3.5,0,6.9,0,10.4c-3.9,0.7-7.3,2.7-10.1,5.5c-2.1,2.1-3.3,4.4-3.3,7.5c0.1,9,0.1,17.9,0.1,26.9c0,0.4,0,0.9,0,1.4
			c-3.7,0-7.4,0-11.2,0C178.1,99.1,178.1,82.3,178.1,65.3z"/>
		<path class="st4" d="M225.6,214.5c2.6-5.8,7.1-8.5,13.3-8.8c0,3.5,0,6.9,0,10.3c-3.8,0.7-6.9,2.5-9.6,5.1
			c-2.4,2.2-3.8,4.7-3.7,8.2c0.2,8.9,0.1,17.8,0.1,26.6c0,0.5,0,0.9,0,1.5c-3.8,0-7.5,0-11.2,0c0-16.9,0-33.8,0-50.7
			c3.7,0,7.4,0,11.2,0C225.6,209.3,225.6,211.9,225.6,214.5z"/>
		<path class="st5" d="M237,142.7c-4,0.9-7.3,2.8-10.1,5.6c-2.1,2.1-3.3,4.5-3.3,7.7c0.1,8.9,0,17.8,0,26.8c0,0.5,0,0.9,0,1.6
			c-1.7,0-3.3,0-4.9,0c-1.7,0-3.4-0.1-5,0c-1,0-1.4-0.2-1.4-1.3c0.1-3.5,0-7,0-10.4c0-12.5,0-25,0-37.6c0-0.5,0-0.9,0-1.5
			c3.8,0,7.4,0,11.2,0c0,2.6,0,5.3,0,7.9c0.1,0.1,0.2,0.1,0.2,0.2c2.3-6.1,6.9-8.7,13.1-9.1C237,135.9,237,139.2,237,142.7z"/>
		<path class="st7" d="M296.9,231.5c0-4.3,0-8.6,0-12.8c0-0.6,0.3-1.3,0.7-1.8c1.4-1.5,3.2-2.7,5.4-2.9c2.9-0.3,4.8,0.9,5.6,3.7
			c0.4,1.6,0.9,3.2,0.9,4.8c0.1,6.4,0,12.8-0.1,19.2c0,1.3-0.4,2.6-0.8,3.8c-1,2.9-3.2,4-6.2,3.4c-2-0.5-3.6-1.7-5-3.2
			c-0.3-0.3-0.4-0.9-0.4-1.3C296.9,240.2,296.9,235.8,296.9,231.5z"/>
		<path class="st8" d="M415.6,224.8c-4.6,0-9,0-13.8,0c0.2-2.1,0.2-4.1,0.7-6c0.8-3,3.8-4.4,7.3-4c3.4,0.4,5.2,2.2,5.6,5.6
			c0.1,1.1,0.1,2.1,0.2,3.2C415.6,224,415.6,224.3,415.6,224.8z"/>
		<path class="st9" d="M249.9,151.9c0.2-1.6,0.4-3.7,0.9-5.7c0.5-2.6,2.3-4.1,4.7-4.2c3.1-0.1,5,1,5.9,3.8c1.4,4.4,1.2,8.9,0,13.3
			c-0.5,2-2.1,3.1-4.2,3.3c-4.6,0.5-6.1-1.7-6.9-6.1C250.1,155,250.1,153.7,249.9,151.9z"/>
		<path class="st3" d="M165.8,224.8c-4.5,0-8.9,0-13.6,0c0.2-2,0.1-3.9,0.5-5.7c0.7-3.1,3.7-4.7,7.3-4.3c3.5,0.4,5.4,2.4,5.7,5.9
			C165.9,222,165.8,223.3,165.8,224.8z"/>
		<path class="st8" d="M157.2,83.4c-4.7,0-9.1,0-13.7,0c-0.1-2.3-0.3-4.6,0.7-6.7c0.7-1.5,1.8-2.4,3.3-2.9c4.3-1.5,8.4,0.5,9.2,4.5
			C157.1,79.9,157.1,81.6,157.2,83.4z"/>
		<path class="st10" d="M194.4,152c-4.7,0-8.9,0-13.1,0c-0.2,0-0.7-0.3-0.7-0.4c-0.1-2.5-0.2-5,1.2-7.2c1.3-1.9,3.2-2.4,5.3-2.5
			c3-0.2,5.8,1.3,6.4,3.7C194,147.6,194.1,149.7,194.4,152z"/>
		<path class="st10" d="M337.8,152c0.2-2,0.1-3.8,0.5-5.5c0.6-3.1,3.4-4.9,6.8-4.6c4.2,0.4,6.1,2.3,6.4,6.7c0.3,3.4,0.3,3.4-3.2,3.4
			C344.9,152,341.5,152,337.8,152z"/>
		<path class="st11" d="M252.9,231.5c0-3.2,0-6.4,0-9.6c0-3.9,1.7-5.9,5.6-6.3c1.3-0.1,2.7,0,4,0.3c2.5,0.6,3.9,2.6,4,5.5
			c0,4.6,0,9.3,0,13.9c0,2,0,4.1,0,6.1c0,3.5-1.6,5.4-4.9,6.1c-1.8,0.4-3.7,0.3-5.4-0.5c-2.1-1-3.2-2.7-3.2-5
			C252.9,238.4,252.9,235,252.9,231.5C252.9,231.5,252.9,231.5,252.9,231.5z"/>
		<path class="st11" d="M302.6,90.3c0,3.4,0,6.8,0,10.2c0,3-1.6,5.1-4.6,5.6c-1.6,0.3-3.5,0.2-5.1-0.2c-2.5-0.6-3.9-2.5-3.9-5.1
			c-0.1-7-0.1-14,0-21c0-2.5,1.3-4.2,3.7-5.1c2.2-0.8,4.4-0.8,6.5,0.2c2.1,0.9,3.2,2.6,3.3,4.9C302.7,83.2,302.6,86.7,302.6,90.3
			C302.6,90.3,302.6,90.3,302.6,90.3z"/>
		<path class="st3" d="M352.8,231.7c0,3.3,0,6.6,0,9.8c0,3.4-1.9,5.7-5.4,6.1c-1.2,0.1-2.5,0.1-3.7-0.2c-3-0.7-4.6-2.6-4.6-5.7
			c0-6.7,0-13.4,0-20.1c0-3.9,2.7-6.2,7.2-6c4.2,0.1,6.6,2.5,6.5,6.6C352.7,225.3,352.8,228.5,352.8,231.7z"/>
		<path class="st9" d="M67.7,160.2c0,4.1,0,8,0,11.9c0,0.2-0.1,0.5-0.2,0.7c-2,2-4.1,3.8-7,4.3c-2.3,0.4-4.4,0.1-5.7-1.9
			c-1.4-2.2-1.3-4.6,0.2-6.6c1.1-1.5,2.5-2.8,3.9-3.9C61.4,162.6,64.4,161.4,67.7,160.2z"/>
	</g>
</g>
</svg>
