<?xml version="1.0" encoding="utf-8"?>
<!-- Generator: Adobe Illustrator 28.1.0, SVG Export Plug-In . SVG Version: 6.00 Build 0)  -->
<svg version="1.1" id="Calque_1" xmlns="http://www.w3.org/2000/svg" xmlns:xlink="http://www.w3.org/1999/xlink" x="0px" y="0px"
	 viewBox="0 0 119.4 123" style="enable-background:new 0 0 119.4 123;" xml:space="preserve">
<style type="text/css">
	.st0{fill:#9CA1A7;}
	.st1{fill:#9CA2A7;}
</style>
<g>
	<g>
		<path class="st0" d="M11.5,123c0-3.8,0-7.5,0-11.1c0-11.5,0-22.9,0.1-34.4c0-1,0.4-2.4,1.1-3.1c15.2-15.2,30.5-30.3,45.7-45.5
			c0.3-0.3,0.6-0.5,1.6-1.3c1.5,1.8,2.9,3.6,4.5,5.2c13.7,13.7,27.4,27.3,41.2,40.9c1.1,1.1,1.6,2.3,1.6,3.9
			c-0.1,14.2,0,28.4,0,42.6c0,0.8,0,1.6,0,2.6C75.3,123,43.6,123,11.5,123z M43.6,75.3c0,13.4,0,26.5,0,39.6c10.6,0,21,0,31.5,0
			c0-13.3,0-26.4,0-39.6C64.5,75.3,54.2,75.3,43.6,75.3z"/>
		<path class="st1" d="M0,59.4C19.6,39.9,39.5,20,59.6,0c10.2,10.2,20.6,20.6,31.5,31.5c0-5.7,0-10.7,0-15.8c5.4,0,10.6,0,16.2,0
			c0,0.8,0,1.6,0,2.5c0,9.1-0.1,18.1,0.1,27.1c0,1.2,0.6,2.7,1.5,3.6c3.4,3.6,7,7,10.5,10.3c-3,3-5.6,5.7-8.4,8.4
			C94,50.5,76.8,33.4,59.8,16.4C42.5,33.7,25.4,50.8,8.4,67.8C5.3,64.8,2.6,62.1,0,59.4z"/>
	</g>
</g>
</svg>
