<?xml version="1.0" encoding="utf-8"?>
<!-- Generator: Adobe Illustrator 28.0.0, SVG Export Plug-In . SVG Version: 6.00 Build 0)  -->
<svg version="1.1" id="Calque_1" xmlns="http://www.w3.org/2000/svg" xmlns:xlink="http://www.w3.org/1999/xlink" x="0px" y="0px"
	 viewBox="0 0 1280 825" style="enable-background:new 0 0 1280 825;" xml:space="preserve">
<style type="text/css">
	.st0{fill:#FFFFFF;}
</style>
<g transform="translate(0.000000,825.000000) scale(0.100000,-0.100000)">
	<path class="st0" d="M2870,8230c-370-79-762-394-1157-930C937,6246,262,4441,60,2885c-44-340-54-500-54-860c0-366,10-507,54-755
		C195,521,548,96,1103,14c264-39,525,12,787,153c249,134,457,300,750,599c257,262,426,464,860,1029c139,182,295,381,347,442l94,113
		h2459h2459l94-113c52-61,220-276,375-477c456-594,628-795,918-1080c246-240,416-374,629-494c278-156,547-213,822-172
		c129,19,235,52,344,107c679,340,915,1448,654,3064c-210,1300-740,2753-1371,3764c-204,326-395,571-619,797
		c-265,266-479,405-731,476c-79,23-84,23-934,26c-830,3-856,2-920-17c-85-26-209-105-410-261c-181-140-280-204-357-232
		c-49-17-104-18-953-18s-904,1-953,18c-77,28-176,92-357,232c-200,155-324,234-408,260c-62,19-93,20-896,19
		C3022,8249,2948,8247,2870,8230z M9583,6986c105-25,197-106,233-208c20-55,20-161,0-216c-83-232-381-295-546-116
		c-65,70-85,123-85,224c0,65,5,96,21,131c42,90,125,159,223,185C9489,7002,9513,7002,9583,6986z M3360,6495v-355h355h355l-2-236
		l-3-235l-352,1h-353l-2-357l-3-358l-237-3l-238-2v360v360h-355h-355v235v235h355h355v355v355h240h240V6495z M8783,6186
		c108-25,207-118,237-222c18-62,9-180-18-236c-31-63-96-126-162-157c-80-37-192-36-271,2c-66,32-132,99-162,165c-31,66-31,198-1,263
		c43,92,132,165,231,188C8692,6202,8718,6201,8783,6186z M10467,6160c113-56,178-161,178-290c0-65-5-85-33-142
		c-58-119-161-183-292-183c-132,1-234,65-292,183c-28,57-33,76-33,142c1,60,6,87,27,131C10102,6175,10295,6244,10467,6160z
		 M9662,5352c64-31,126-96,157-162c34-73,36-191,4-262c-30-66-95-133-162-165c-48-24-68-28-141-28s-93,4-142,28
		c-167,82-234,293-142,453c31,55,114,129,167,148C9467,5388,9602,5381,9662,5352z M5155,4065c241-51,446-255,501-501
		c34-154,4-333-78-472c-52-89-160-191-253-239c-107-55-189-76-305-76c-256-1-480,139-590,368c-50,105-64,169-63,285
		c1,257,138,473,370,586C4864,4078,5012,4095,5155,4065z M7923,4065c137-29,284-121,371-231c96-122,139-252,139-414
		c-1-185-66-333-204-465c-127-121-273-179-449-178c-177,1-333,65-455,188c-123,124-183,257-192,425c-7,123,13,220,69,333
		c82,164,260,303,438,341C7725,4083,7839,4083,7923,4065z"/>
</g>
</svg>
