<?xml version="1.0" encoding="utf-8"?>
<!-- Generator: Adobe Illustrator 28.1.0, SVG Export Plug-In . SVG Version: 6.00 Build 0)  -->
<svg version="1.1" id="Calque_1" xmlns="http://www.w3.org/2000/svg" xmlns:xlink="http://www.w3.org/1999/xlink" x="0px" y="0px"
	 viewBox="0 0 44 53.8" style="enable-background:new 0 0 44 53.8;" xml:space="preserve">
<style type="text/css">
	.st0{fill:#9CA3A6;}
</style>
<g>
	<g>
		<path class="st0" d="M13.6,53.8c0-5.9,0-11,0-16.4c-2.2,0-4.1,0-5.9,0c-4.7,0-7.4-2.5-7.5-7.2C0,21.9,0,13.7,0,5.5
			c0-2.9,3-5.3,6.5-5.4C11.4,0,16.2,0,20.9,0c5,0,10.1,0,15.1,0c4.7-0.1,7.8,2.7,7.8,7.8c0.1,7.2,0.1,14.4,0,21.6
			c-0.1,4.9-3.4,8.3-8.2,8c-4.2-0.3-7.3,0.9-10.1,4.2C22,45.6,18,49.3,13.6,53.8z"/>
	</g>
</g>
</svg>
