<?xml version="1.0" encoding="utf-8"?>
<!-- Generator: Adobe Illustrator 28.1.0, SVG Export Plug-In . SVG Version: 6.00 Build 0)  -->
<svg version="1.1" id="Calque_1" xmlns="http://www.w3.org/2000/svg" xmlns:xlink="http://www.w3.org/1999/xlink" x="0px" y="0px"
	 viewBox="0 0 383.3 239.8" style="enable-background:new 0 0 383.3 239.8;" xml:space="preserve">
<style type="text/css">
	.st0{fill:#FFFFFF;}
</style>
<g>
	<g>
		<path class="st0" d="M0,13.6c0.5-0.9,1-1.9,1.5-2.8C4.8,4.1,10.2,0.2,17.7,0.2c72-0.1,144-0.1,216,0c9.8,0,17.8,8,17.8,17.9
			c0,54,0,108.1,0,162.1c0,9.8-8.1,17.7-18,17.7c-22,0.1-43.9,0-65.9,0c-1.2,0-2.5,0-4.1,0c1,4.1,1.9,7.9,2.9,11.9
			c2.6,0,5.2-0.1,7.8,0c9.5,0.2,17.2,7.9,17.4,17.4c0.3,10.8,0.2,12.7-12.4,12.6c-37.1-0.2-74.1-0.1-111.2-0.1
			c-6.4,0-8.1-1.7-8.2-8.1c-0.1-5.3,0.1-10.4,3.7-14.9c3.5-4.3,7.8-6.9,13.4-7c2.6-0.1,5.2,0,8.1,0c1-4,1.9-7.8,3-12
			c-1.7,0-3,0-4.4,0c-21.3,0-42.7,0-64,0c-9.7,0-15.1-3.6-18.9-12.7c-0.1-0.3-0.5-0.5-0.7-0.7C0,127.4,0,70.5,0,13.6z M239.3,161.7
			c0.1-0.8,0.1-1.3,0.1-1.8c0-46.7,0-93.3,0-140c0-5.8-2.2-7.7-8.5-7.7c-70.1,0-140.2,0-210.3,0c-6.7,0-8.6,1.9-8.6,8.7
			c0,45.7,0,91.3,0,137c0,1.2,0,2.4,0,3.8C87.9,161.7,163.5,161.7,239.3,161.7z M122.8,174.1c-36.9,0-73.8,0-110.8,0
			c0,0.9,0,1.5,0,2.1c0,7.9,1.6,9.5,9.7,9.5c32.5,0,65.1,0,97.6,0c1.2,0,2.5,0,4.3,0C118.7,181.3,118.7,178.7,122.8,174.1z
			 M239.5,174.1c-37.1,0-73.9,0-110.9,0c4.4,4.1,4.5,6.9,0.2,11.7c11.7,0,23.3,0,34.9,0c22.7,0,45.4,0,68.1,0c5.5,0,7.7-2.2,7.8-7.6
			C239.5,176.9,239.5,175.7,239.5,174.1z M151,197.9c-16.9,0-33.5,0-50.4,0c-0.9,3.9-1.9,7.7-2.8,11.7c18.9,0,37.3,0,56.1,0
			C152.9,205.6,151.9,201.8,151,197.9z M72,227.4c35.9,0,71.7,0,107.6,0c-0.8-3.9-3-5.6-6.6-5.6c-31.4,0-62.9,0-94.3,0
			C74.8,221.8,72.6,223.6,72,227.4z"/>
		<path class="st0" d="M263.5,119.9c0-33.3,0.3-66.6-0.1-99.9c-0.2-12.1,9.3-20.2,20-20c26.9,0.5,53.9,0.1,80.8,0.2
			c11.6,0,19.1,7.5,19.1,19.1c0,67.1,0,134.2,0,201.3c0,11.6-7.5,19.1-19.1,19.1c-27.2,0-54.4-0.2-81.6,0.1
			c-9.8,0.1-19.3-7.8-19.2-19.3C263.8,187,263.5,153.5,263.5,119.9z M275.5,54.2c0,1.4,0,2.6,0,3.8c0,53.7,0,107.3,0,161
			c0,6.8,1.9,8.7,8.6,8.7c26.1,0,52.2,0,78.2,0c7.2,0,9-1.8,9-9.1c0-53.5,0-107.1,0-160.6c0-1.2,0-2.4,0-3.8
			C339.4,54.2,307.7,54.2,275.5,54.2z M371.1,24c0.8-10.2-0.7-11.9-10.3-11.9c-15,0-29.9,0-44.9,0c-11,0-21.9,0-32.9,0
			c-4.5,0-7.1,1.9-7.5,5.6c-0.2,2,0,4.1,0,6.2C307.6,24,339.2,24,371.1,24z M371.3,36.3c-32.1,0-63.8,0-95.5,0c0,2,0,3.8,0,5.6
			c31.9,0,63.7,0,95.5,0C371.3,40,371.3,38.3,371.3,36.3z"/>
		<path class="st0" d="M323.2,125.9c-10,0-17.7-8-17.7-18.2c0-10,8.1-17.8,18.2-17.7c10,0.1,17.8,8.1,17.7,18.2
			C341.4,118.2,333.4,126,323.2,125.9z M323.5,102c-3.1,0-6,2.9-6,6c0,3.1,3,6,6.1,5.9c2.9-0.1,5.7-2.9,5.8-5.8
			C329.5,105.1,326.6,102.1,323.5,102z"/>
		<path class="st0" d="M323.7,161.9c7.6,0,15.2,0,22.8,0c4.4,0,6.9,2.3,6.9,6.1c0,3.6-2.5,5.9-6.6,5.9c-15.6,0-31.2,0-46.8,0
			c-4.1,0-6.5-2.4-6.5-6.1c0-3.7,2.5-5.9,6.6-5.9C308,161.9,315.8,161.9,323.7,161.9z"/>
		<path class="st0" d="M323.1,191.9c-7.6,0-15.2,0-22.8,0c-4.4,0-6.8-2.4-6.7-6.2c0.1-3.6,2.5-5.8,6.7-5.8c15.5,0,30.9,0,46.4,0
			c4.2,0,6.7,2.2,6.8,5.8c0.1,3.8-2.4,6.2-6.7,6.2C338.8,191.9,330.9,191.9,323.1,191.9z"/>
		<path class="st0" d="M323.3,209.9c-7.6,0-15.2,0-22.8,0c-4.5,0-6.9-2.1-7-5.9c0-3.8,2.5-6.1,6.9-6.1c15.3,0,30.7,0,46,0
			c4.4,0,7,2.2,7,5.9c0,3.8-2.5,6-6.9,6.1C338.8,209.9,331,209.9,323.3,209.9z"/>
	</g>
</g>
</svg>
