<?xml version="1.0" encoding="utf-8"?>
<!-- Generator: Adobe Illustrator 28.1.0, SVG Export Plug-In . SVG Version: 6.00 Build 0)  -->
<svg version="1.1" id="Calque_1" xmlns="http://www.w3.org/2000/svg" xmlns:xlink="http://www.w3.org/1999/xlink" x="0px" y="0px"
	 viewBox="0 0 266.8 265.7" style="enable-background:new 0 0 266.8 265.7;" xml:space="preserve">
<style type="text/css">
	.st0{fill:#FFFFFF;}
</style>
<g>
	<g>
		<path class="st0" d="M266.8,265.7c-89.1,0-177.9,0-266.8,0C0,177.2,0,88.6,0,0c88.9,0,177.9,0,266.8,0
			C266.8,88.5,266.8,177.1,266.8,265.7z M257.3,193c2.6,0,5.3,0,8.1,0c0-2.7,0-5.1,0-7.6c-2.8,0-5.4,0-8.1,0c0-2.7,0-5.5,0-8.4
			c3,0,5.4,0,8,0c0-10.7,0-21.1,0-31.9c-2.7,0-5.2,0-7.7,0c0-2.8,0-5.3,0-8.1c2.7,0,5.1,0,7.8,0c0-16,0-31.7,0-47.6
			c-2.7,0-5.2,0-8.1,0c0,8,0,15.8,0,23.5c-2.7,0-5.2,0-7.8,0c0-13.3,0-26.4,0-39.8c-2.7,0-5.3,0-8.1,0c0-2.8,0-5.2,0-7.7
			c-13.5,0-26.6,0-40,0c0,5.3,0,10.3,0,15.4c-2.7,0-5.2,0-7.9,0c0-2.6,0-5.1,0-7.7c-2.8,0-5.2,0-7.7,0c0-7.9,0-15.8,0-23.8
			c2.7,0,5.1,0,7.8,0c0,2.6,0,5,0,7.5c2.7,0,5.2,0,7.7,0c0-5.3,0-10.4,0-15.6c-10.6,0-21.1,0-31.6,0c0,2.8,0,5.4,0,8
			c-2.8,0-5.6,0-8.4,0c0-2.6,0-5.3,0-8.4c-10.6,0-21.1,0-31.6,0c0-2.5,0-5.1,0-7.9c5.5,0,10.6,0,16,0c0-4.9,0-9.6,0-14.3
			c0-3.1,0.2-6.2,0.3-9.3c2.4-0.1,4.9-0.2,7.4-0.4c0-2.7,0-5.2,0-7.8c-2.6,0-5,0-7.9,0c0.2,2.9,0.4,5.6,0.6,8.3
			c-2.9-0.1-5.8-0.2-8.7-0.3l0.1,0.1c0-2.6,0-5.3,0-8.2c-5,0-9.7-0.1-14.4,0.1c-0.6,0-1.5,1.2-1.5,1.9c-0.2,2-0.1,4-0.1,6.4
			c-2.9,0-5.5,0-8,0c0-2.7,0-5.4,0-8.1c-2.7,0-5.1,0-7.6,0c0,2.7,0,5.3,0,8c2.7,0,5.2,0,7.6,0c0,2.5,0,5.1,0,7.9
			c-8.1,0-15.9,0-23.8,0c0,10.9,0,21.5,0,32.1c-2.7,0-5.4,0-8.4,0c0,2.8,0,5.3,0,7.8c-2.5,0-5.1,0-7.6,0c0-8.2,0-16,0-24
			c2.7,0,5.1,0,7.5,0c0-10.7,0-21.2,0-31.7c-5.3,0-10.3,0-15.4,0c0,2.7,0,5.2,0,8c2.6,0,5.1,0,7.6,0c0,5.4,0,10.5,0,15.9
			c-2.6,0-5.1,0-7.8,0c0,1.3,0,2.3,0,3.3c0,11.3-0.1,22.5,0,33.8c0,2.1-0.5,2.9-2.8,2.9c-4.3-0.2-8.6-0.1-13.1-0.1c0,2.8,0,5.4,0,8
			c-2.6,0-5.3,0-8.2,0c0-2.8,0-5.2,0-7.8c-2.7,0-5.2,0-8,0c0,2.7,0,5.2,0,7.9c-2.8,0-5.3,0-7.7,0c0,2.7,0,5.2,0,7.7
			c-2.7,0-5.4,0-8.4,0c0,3.1,0,5.6,0,8.3c-2.8,0-5.2,0-7.7,0c0-2.7,0-5.3,0-8.2c-2.5,0-4.6-0.1-6.7,0.1c-0.5,0-1.4,0.9-1.4,1.5
			c-0.2,2.1-0.1,4.2-0.1,6.6c2.9,0,5.6,0,8.3,0c0,8,0,16,0,24c-2.6,0-5.3,0-8,0c0,5.5,0,10.7,0,16.2c2.8,0,5.3,0,7.8,0
			c0,2.7,0,5.1,0,7.7c-2.7,0-5.2,0-7.8,0c0,5.5,0,10.6,0,16c2.7,0,5.2,0,8.1,0c0,2.8,0,5.3,0,7.7c-2.1,0-4.2,0-6.3,0.2
			c-0.7,0.1-1.8,0.9-1.8,1.3c-0.1,4.8-0.1,9.5-0.1,14.5c5.5,0,10.8,0,16,0c0,5.3,0,10.6,0,16.2c-5.5,0-10.6,0-15.8,0
			c0,2.7,0,5.1,0,7.7c10.7,0,21.1,0,31.9,0c0-2.6,0-5.1,0-7.6c2.7,0,5.1,0,7.9,0c0,2.6,0,5,0,7.8c1.3,0,2.3,0,3.3,0
			c6.1,0,12.2,0.1,18.3,0c1.9,0,2.6,0.5,2.5,2.5c-0.1,4.4,0,8.8,0,13.4c2.9,0,5.4,0,8,0c0,2.6,0,5.3,0,8.2c-2.8,0-5.2,0-7.8,0
			c0,2.7,0,5.2,0,7.7c8.1,0,16.1,0,24.1,0c-0.1,2.6-0.3,5.2-0.4,7.7c-5.2,0.2-10.5,0.4-15.9,0.6c0,5.4,0,10.5,0,15.6
			c-2.6,0-5.1,0-7.6,0c0,3,0,5.5,0,8.1c2.7,0,5.1,0,7.6,0c0-2.9,0-5.5,0-8.2c2.6,0.1,5.3,0.2,8.2,0.4c0,2.8,0,5.3,0,7.8
			c2.8,0,5.3,0,7.8,0c0-8.3,0-16.3,0-24.4c2.6,0.2,5.2,0.5,8.1,0.8c0,2.6,0,5.1,0,7.6c3,0,5.8,0,8.5,0c0,2.8,0,5.5,0,8.2
			c-2.8,0-5.6,0-8.4,0c0,2.7,0,5.2,0,7.8c2.7,0,5.2,0,7.8,0c0.2-2.8,0.4-5.3,0.5-7.9c2.5,0,4.9,0,7.4,0c0-2.9,0-5.3,0-8.1
			c-2.6,0-5,0-7.3,0c-0.2-2.5-0.4-5.1-0.5-7.9c2.9,0,5.3,0,7.8,0c0-2.8,0-5.4,0-8.1c-8,0-15.7,0-23.5,0c0-5.3,0-10.5,0-16
			c2.7,0,5.2,0,7.7,0c0,2.6,0,5.3,0,8c5.5,0,10.7,0,15.9,0c0-2.7,0-5.3,0-7.9c-5.5,0-10.7,0-15.9,0c0-2.5,0-5.1,0-7.9c3,0,5.5,0,8,0
			c0-5.5,0-10.7,0-15.8c-2.8,0-5.3,0-8.1,0c0,2.7,0,5.1,0,7.6c-2.7,0-5.2,0-7.7,0c0-13.3,0-26.7,0-40c2.6,0,5.2,0,7.8,0
			c0,8,0,16.1,0,24.5c5.6,0,10.9,0,16.1,0c0,7.9,0,15.8,0,23.9c5.5,0,10.6,0,15.8,0c0,8,0,15.8,0,23.9c-2.7,0-5.2,0-7.8,0
			c0,2.7,0,5.1,0,7.8c2.7,0,5.2,0,8,0c0,2.9,0,5.4,0,7.9c2.8,0,5.2,0,7.9,0c0-5.3,0-10.5,0-15.7c2.8,0,5.3,0,8.1,0
			c0,5.3,0,10.4,0,15.9c2.8,0,5.4,0,8,0c0,5.2,0,10.5,0,15.8c2.7,0,5.1,0,7.7,0c0-5.4,0-10.6,0-15.8c2.7,0,5.4,0,8.2,0
			c0-5.5,0-10.7,0-16c-2.9,0-5.5,0-8.2,0c0.1-2.6,0.3-5.1,0.4-7.9c5.2,0,10.4,0,15.7,0c0-2.9,0-5.6,0-8.2c2.7,0,5.4,0,8.4,0
			c0-2.9,0-5.3,0-7.8c2.5,0,5.1,0,7.8,0c0,8.2,0,16.1,0,23.9c-5.3,0-10.6,0-15.9,0c0,2.8,0,5.3,0,7.8c5.3,0,10.5,0,15.9,0
			c0-2.7,0-5.3,0-7.8c13.4,0,26.7-0.1,40.1-0.1c-0.1,2.6-0.2,5.1-0.3,7.7c-1,0.1-2,0.4-3,0.4c-8.7,0-17.4,0.1-26.1,0
			c-2.1,0-2.9,0.4-2.9,2.7c0.2,6.2,0,12.4,0,18.6c0,0.9,0.1,1.8,0.2,2.7c2.8,0,5.2,0,8,0c0-5.3,0-10.4,0-15.9c8.1,0,15.9,0,23.7,0
			c0-3.1,0-5.8,0-8.6c2.6,0.2,5.2,0.5,8.2,0.8c0,2.6,0,5.1,0,7.7c3,0,5.6,0,8.3,0c0,2.7-0.1,5.3-0.1,7.9c-2.6,0-5.3,0-8,0
			c0,2.9,0,5.4,0,7.9c2.8,0,5.3,0,7.9,0c0-2.8,0-5.4,0-8c2.5,0,5.1,0,7.9,0c0,3,0,5.5,0,8c2.8,0,5.3,0,7.8,0c0-5.4,0-10.5,0-15.8
			c-5.4,0-10.5,0-15.7,0c0-7.9,0-15.8,0-23.7c-3,0-5.5,0-8.3,0c0,2.7,0,5.1,0,7.6c-2.8,0-5.3,0-7.8,0c0-7.9,0-15.8,0-23.6
			c2.8,0,5.2,0,8,0c0,2.6,0,5.1,0,7.4c2.9,0,5.4,0,8,0c0-5.5,0-10.7,0-16c2.7-0.1,5.4-0.1,8-0.2c-0.1,0.6-0.2,1.1-0.2,1.6
			c0,12.4,0,24.7,0,37.1c0,0.5,0.2,1,0.3,1.5c2.6,0,5.1,0,7.5,0c0.1-0.4,0.3-0.7,0.3-0.9c0-12.4,0-24.7,0.1-37.1
			c0-1.5-0.7-1.8-2-1.9c-2,0-4-0.2-6-0.3C257.5,198.1,257.4,195.5,257.3,193z M177.3,256.6c2.7,0.1,5.4,0.3,8.4,0.5
			c0,2.7,0,5.1,0,7.8c2.7,0,5.1,0,7.7,0c0-5.3,0-10.5,0-15.7c-5.3,0-10.5,0-16,0C177.4,251.8,177.4,254.2,177.3,256.6
			c-2.4,0.1-5,0.1-7.4,0.1c0,3.1,0,5.6,0,8.1c2.6,0,5.1,0,7.4,0C177.3,261.9,177.3,259.3,177.3,256.6z M57.4,264.9
			c0-18.7,0-37.2,0-55.6c-18.7,0-37.1,0-55.4,0c0,18.7,0,37.1,0,55.6C20.6,264.9,39,264.9,57.4,264.9z M265.6,57c0-1.1,0-2,0-2.8
			c0-16.7,0-33.5,0-50.2c0-2.3-0.7-2.9-3-2.9c-16.7,0.1-33.5,0-50.2,0.1c-0.9,0-1.8,0.1-2.6,0.1c0,18.8,0,37.2,0,55.7
			C228.4,57,246.8,57,265.6,57z M57.5,57c0-18.7,0-37.2,0-55.7c-0.7-0.1-1.3-0.1-1.8-0.1c-17.2,0-34.4,0-51.6-0.1
			C2,1.1,1.7,2,1.7,3.7c0.1,17,0,34,0,51c0,0.7,0.1,1.4,0.2,2.2C20.5,57,38.9,57,57.5,57z M161.6,33c13.5,0,26.6,0,39.8,0
			c0-2.6,0-5,0-7.8c-8,0-15.8,0-23.9,0c0-5.4,0-10.6,0-15.8c-5.4,0-10.5,0-16,0c0,2.6,0,5,0,7.7c-2.8,0-5.2,0-7.6,0
			c0,2.8,0,5.4,0,8.2c2.6,0,5.1,0,7.7,0C161.6,28.1,161.6,30.5,161.6,33z M185.8,17c5.3,0,10.4,0,15.5,0c0-2.6,0-5,0-7.7
			c-2.6,0-5,0-7.8,0c0-2.8,0-5.3,0-8c-2.7,0-5.2,0-7.8,0C185.8,6.6,185.8,11.7,185.8,17z M217.6,257c0,2.8,0,5.3,0,7.8
			c2.7,0,5.2,0,7.8,0c0-2.8,0-5.3,0-7.8C222.7,257,220.2,257,217.6,257z M129.8,264.9c2.7,0,5,0,7.5,0c0-2.7,0-5.3,0-7.8
			c-2.6,0-5.1,0-7.5,0C129.8,259.7,129.8,262.2,129.8,264.9z M257.5,65.4c0,2.6,0,5.1,0,7.6c2.7,0,5.2,0,7.9,0c0-2.6,0-5,0-7.6
			C262.8,65.4,260.3,65.4,257.5,65.4z M1.9,73c2.7,0,5.2,0,7.9,0c0-2.6,0-5,0-7.6c-2.6,0-5.2,0-7.9,0C1.9,68,1.9,70.4,1.9,73z
			 M89.9,9.1c2.5,0,5,0,7.5,0c0-2.6,0-5.1,0-7.8c-2.6,0-5,0-7.6,0C89.9,4,89.9,6.4,89.9,9.1z"/>
		<path d="M249.6,200.7c0,5.2,0,10.5,0,16c-2.6,0-5.2,0-8,0c0-2.4,0-4.8,0-7.4c-2.8,0-5.2,0-8,0c0,7.9,0,15.7,0,23.6l0.1-0.1
			c-13.4,0-26.7,0.1-40.1,0.1l0.1,0.1c0-7.8,0-15.7,0-23.9c-2.7,0-5.3,0-7.8,0l0.1,0.1c-0.1-0.9-0.2-1.8-0.2-2.7
			c0-5.4,0-5.4-5.3-5.4c-3.5,0-7,0-10.5,0c0-2.8,0-5.3,0-8c2.6,0,5,0,7.8,0c0-2.7,0-5.2,0-7.7c2.9,0,5.6,0,8.3,0
			c0,5.1,0,10.3,0,15.6c2.6,0,5,0,7.7,0c0-5.3,0-10.4,0-15.6c2.5,0,5.1,0,8.1,0c0,2.7,0,5.2,0,7.6c2.9,0,5.3,0,8,0c0-2.6,0-5,0-7.8
			c2.7,0,5.1,0,7.6,0c0-2.9,0-5.4,0-8.2c-5.3,0-10.4,0-15.6,0c0-2.7,0-5.1,0-7.9c5.3,0,10.5,0,15.7,0c0-2.9,0-5.6,0-8.3
			c2.8,0,5.6,0.1,8.4,0.1l-0.1-0.1c0,2.7,0,5.4,0,8.2c5.4,0,10.4,0,15.7,0c0-2.2-0.1-4.2,0.1-6.2c0-0.6,0.7-1.6,1.2-1.7
			c2.2-0.2,4.5-0.1,7-0.1c0,3,0,5.4,0,7.9c2.7,0,5.1,0,7.5,0c0-5.4,0-10.6,0-16c-5.3,0-10.4,0-15.8,0c0-2.7,0-5.2,0-7.9
			c-2.8,0-5.2,0-7.8,0c0-2.7,0-5.3,0-8.1c-5.5,0-10.7,0-16.1,0c0-2.8,0-5.3,0-7.8c2.6,0,5.3,0,8.2,0c0-2.4,0.1-4.4-0.1-6.4
			c-0.1-0.6-1.1-1.6-1.8-1.7c-2.1-0.3-4.2-0.2-6.4-0.2c0-2.5,0-5.1,0-7.9c-2.8,0-5.2,0-7.5,0c0-2.7,0-5.1,0-7.4
			c2.4-0.2,4.9-0.4,7.5-0.6c0-2.6,0-5.1,0-7.9c-2.6,0-5.1,0-7.6,0c0-2.6,0-5.1,0.1-7.7c7.9,0,15.8,0,23.6,0c0-3,0-5.5,0-8.2
			c-2.6,0-5,0-7.8,0c0-2.7,0-5.2,0-7.8c-5.4,0-10.5,0-15.7,0c0,5.5,0,10.8,0,16.1c-2.7,0-5.4,0-8.2,0c0,2.6,0,5,0,7.5
			c2.8,0,5.5,0,8.1,0c0,2.9,0.1,5.8,0.1,8.7c-5.4,0-10.8,0-16.4,0c0-5.9,0-11.1,0-16.3c-5.5,0-10.8,0-16,0c0-2.6,0-5.3,0-8.2
			c2.9,0,5.4,0,8,0c0.1-2.9,0.3-5.4,0.4-7.9l-0.1,0.1c2.5,0,5,0,7.7,0c0,2.6,0,5.1,0,7.7c2.7,0,5.1,0,7.9,0c0-5.1,0-10.1,0-15.4
			c13.4,0,26.6,0,40,0c0,2.4,0,4.9,0,7.7c2.8,0,5.4,0,8.1,0c0,13.4,0,26.5,0,39.8c2.6,0,5.1,0,7.8,0c0-7.8,0-15.6,0-23.5
			c2.8,0,5.4,0,8.1,0c0,15.9,0,31.6,0,47.6c-2.6,0-5.1,0-7.8,0c0,2.7,0,5.3,0,8.1c2.5,0,5,0,7.7,0c0,10.7,0,21.2,0,31.9
			c-2.5,0-5,0-8,0c0,2.9,0,5.7,0,8.4l0.1-0.1c-2.5,0-5,0-7.8,0c0,2.8,0,5.3,0,7.8l0.1-0.1c-2.6,0-5.3,0-8.2,0c0-2.7,0-5.1,0-8
			c-2.9,0.2-5.5,0.4-8.1,0.6c0-2.8,0-5.6,0-8.4c-2.6,0-5,0-7.5,0c0,2.7,0,5.2,0,7.7c2.6,0.2,5.1,0.5,7.5,0.7c0,5.1,0,10.2,0,15.3
			C239.2,200.8,244.4,200.8,249.6,200.7L249.6,200.7z M233.8,105.6c-2.7-0.2-5.3-0.4-8-0.6c0,5.6,0,10.6,0,16c2.8-0.2,5.4-0.3,8-0.5
			c0,2.8,0,5.6,0,8.3c5.4,0,10.5,0,15.7,0c0-2.6,0-5.1,0-7.9c-1.5,0-2.9,0-4.2,0c-3.9-0.1-7.7-0.2-11.6-0.3
			C233.7,115.7,233.7,110.6,233.8,105.6c2.5-0.3,4.9-0.5,7.4-0.8c0-2.7,0-5.2,0-7.7c-2.7,0-5.1,0-7.4,0
			C233.8,100.2,233.8,102.9,233.8,105.6z M213.5,201c-3.3,0-6.6,0.1-10,0c-1.6,0-2.1,0.5-2.1,2.1c0.1,6.6,0,13.3,0,19.9
			c0,1.6,0.5,2.1,2.1,2.1c6.6-0.1,13.3-0.1,19.9,0c1.6,0,2.1-0.6,2.1-2.1c0-6.6-0.1-13.3,0-19.9c0-1.6-0.5-2.1-2.1-2.1
			C220.2,201,216.9,201,213.5,201z"/>
		<path d="M73.8,216.8c-2.6,0-5.1,0-8,0c0-4.6-0.1-9,0-13.4c0.1-2-0.6-2.5-2.5-2.5c-6.1,0.1-12.2,0-18.3,0c-1,0-2,0-3.3,0
			c0-2.8,0-5.2,0-7.8c-2.8,0-5.2,0-7.9,0c0,2.5,0,5,0,7.6c-10.7,0-21.2,0-31.9,0c0-2.5,0-5,0-7.7c5.2,0,10.3,0,15.8,0
			c0-5.6,0-10.9,0-16.2l-0.1,0.1c2.8,0,5.6-0.1,8.4-0.1c0,2.6,0,5.2,0,8.2c4.2,0,8.3,0,12.4,0c3.7,0.1,7.5,0.2,11.2,0.3
			c0,2.5,0,4.9,0,7.4c2.9,0,5.3,0,7.7,0c0-2.6,0-5.1,0-7.9c-2.7,0.2-5.3,0.4-7.8,0.5c0-2.8,0-5.6,0-8.6c3,0,5.4,0,7.8,0
			c0-2.6,0-5.1,0-7.8c-2.6,0-5,0-7.4,0c0-2.8,0-5.4,0-8.1c2.6,0,4.9,0,7.6,0c0-2.8,0-5.4,0-7.9l-0.1,0.1c2.6,0,5.3,0,8,0
			c0-2.8,0-5.2,0-7.8c-2.8,0-5.4,0-8,0l0.1,0.1c0-2.8-0.1-5.6-0.1-8.4c5.3,0,10.6,0,16.2,0c0,2.9,0,5.5,0,8.3c2.8,0,5.2,0,7.7,0
			c0,5.2,0,10.4,0,15.6c3.2,0,5.8,0,8.4,0l-0.1-0.1c0,13.3,0,26.7,0,40l0.1-0.1c-2.1,0.1-4.2,0.2-6.3,0.2c-1.4,0-1.9,0.5-1.9,1.9
			c0,2.1-0.1,4.2-0.2,6.3l0.1-0.1c-2.6,0-5.1,0-7.8,0C73.7,211.9,73.7,214.4,73.8,216.8L73.8,216.8z M73.6,176.9
			c0-5.5,0-10.6,0-15.7c-2.7,0-5.1,0-7.6,0c0,10.6,0,21.1,0,31.8c2.6,0,5.2,0,7.9,0c0,2.8,0,5.3,0,7.6c2.7,0,5.1,0,7.5,0
			c0-8,0-15.8,0-23.8C78.8,176.9,76.4,176.9,73.6,176.9z"/>
		<path d="M57.4,264.9c-18.4,0-36.8,0-55.4,0c0-18.4,0-36.9,0-55.6c18.4,0,36.8,0,55.4,0C57.4,227.7,57.4,246.2,57.4,264.9z
			 M49.7,217.1c-13.4,0-26.5,0-39.7,0c0,13.3,0,26.4,0,39.5c13.3,0,26.4,0,39.7,0C49.7,243.4,49.7,230.4,49.7,217.1z"/>
		<path d="M265.6,57c-18.8,0-37.1,0-55.7,0c0-18.5,0-37,0-55.7c0.8,0,1.7-0.1,2.6-0.1c16.7,0,33.5,0,50.2-0.1c2.3,0,3,0.6,3,2.9
			c-0.1,16.7,0,33.5,0,50.2C265.6,55.1,265.6,55.9,265.6,57z M257.2,9.5c-13.4,0-26.5,0-39.6,0c0,13.3,0,26.4,0,39.6
			c13.3,0,26.4,0,39.6,0C257.2,35.9,257.2,22.8,257.2,9.5z"/>
		<path d="M57.5,57c-18.6,0-37,0-55.5,0c-0.1-0.8-0.2-1.5-0.2-2.2c0-17,0-34,0-51C1.7,2,2,1.1,4.1,1.1c17.2,0.1,34.4,0,51.6,0.1
			c0.5,0,1.1,0.1,1.8,0.1C57.5,19.9,57.5,38.3,57.5,57z M10.1,9.5c0,13.4,0,26.5,0,39.6c13.3,0,26.4,0,39.6,0c0-13.3,0-26.4,0-39.6
			C36.4,9.5,23.4,9.5,10.1,9.5z"/>
		<path d="M177.4,216.8c0,2.6,0,5.3,0,8.2c-5.3,0-10.4,0-15.7,0c-0.1,2.9-0.3,5.4-0.4,7.9l0.1-0.1c-2.5,0-5.1,0-7.8,0
			c0,5.7,0,10.9,0,16.2l0.1-0.1c-2.6,0-5.1,0-8,0c0-5.4,0-10.6,0-15.9c-2.8,0-5.3,0-8.1,0c0,5.2,0,10.4,0,15.7c-2.7,0-5.1,0-7.9,0
			c0-2.5,0-5.1,0-7.9c-2.8,0-5.4,0-8,0c0-2.7,0-5.1,0-7.8c2.5,0,5.1,0,7.8,0c0-8.1,0-15.9,0-23.9c-5.2,0-10.3,0-15.8,0
			c0-8.1,0-16,0-23.9l-0.1,0.1c2.6,0,5.2,0,8.1,0c0,5.3,0,10.4,0,15.5c2.7,0,5.2,0,8,0c0-2.6,0-5.2,0-7.5c5.5,0,10.6,0,15.8,0
			c0,2.6,0,5,0,7.7c-2.7,0-5.2,0-7.8,0c0,5.5,0,10.6,0,15.7c2.7,0,5.2,0,8,0c0-2.6,0-4.9,0-7.6c2.8,0,5.4,0,7.9,0c0,2.6,0,5.1,0,7.8
			C161.8,216.9,169.7,216.9,177.4,216.8L177.4,216.8z"/>
		<path d="M137.5,9.3c2.9,0.1,5.8,0.2,8.7,0.3l0-0.1c-0.1,3.1-0.3,6.2-0.3,9.3c-0.1,4.7,0,9.4,0,14.3c-5.4,0-10.5,0-16,0
			c0,2.8,0,5.3,0,7.9l0.1-0.1c-2.6,0-5.3,0-8.2,0c0-2.6,0-5,0-7.7c-2.9,0-5.4,0-8,0c0-2.6,0-5.1,0-7.8c-2.7,0-5.1,0-7.7,0
			c0,2.6,0,5,0,7.7c2.7,0,5.2,0,7.8,0c0,2.6,0,5.1,0,8c-5.5,0-10.8,0-16.1,0c0,3,0,5.5,0,8.1c-2.6,0-5.2,0-7.9-0.1l0.1,0.1
			c0-10.6,0-21.2,0-32.1c7.8,0,15.6,0,23.8,0c0-2.8,0-5.3,0-7.9l-0.1,0.1c2.5,0,5.1,0,8,0c0-2.4-0.1-4.4,0.1-6.4
			c0.1-0.7,1-1.8,1.5-1.9c4.7-0.2,9.4-0.1,14.4-0.1c0,2.9,0,5.6,0,8.2c-2.5,0-5.1,0-7.9,0c0,2.8,0,5.2,0,7.7c-2.6,0-5.2,0-8.1,0
			c0,2.6-0.1,4.7,0.1,6.8c0,0.5,0.8,1.3,1.2,1.4c2.2,0.1,4.4,0.1,6.7,0.1c0-3,0-5.6,0-8.3c2.6,0,5.2,0,7.9,0
			C137.5,14.2,137.5,11.7,137.5,9.3z"/>
		<path d="M49.9,73.2c0-2.6,0-5.1,0-8c4.5,0,8.8-0.1,13.1,0.1c2.3,0.1,2.8-0.7,2.8-2.9c-0.1-11.3,0-22.5,0-33.8c0-1,0-2,0-3.3
			c2.7,0,5.1,0,7.8,0c0-5.4,0-10.5,0-15.9c-2.5,0-4.9,0-7.6,0c0-2.8,0-5.3,0-8c5.1,0,10.1,0,15.4,0c0,10.5,0,21,0,31.7
			c-2.4,0-4.8,0-7.5,0c0,8,0,15.8,0,24c2.5,0,5,0,7.6,0L81.4,57c0,5.3,0,10.6,0,16.1c3.2,0,5.8,0,8.4,0c0.1,2.5,0.1,5,0.2,7.6l0,0
			c-2.1,0.2-4.2,0.4-6.2,0.4c-1.7,0-2.3,0.6-2.2,2.3c0.1,1.9,0,3.8,0,5.7c-5.5,0-10.6,0-15.9,0c0-1.9-0.1-3.7,0-5.4
			c0.1-1.9-0.4-2.7-2.4-2.6c-1.9,0.1-3.8-0.1-5.8-0.2l0.1,0.1c0-2.6,0-5.1,0-7.8C54.8,73.1,52.3,73.1,49.9,73.2L49.9,73.2z"/>
		<path d="M10,160.8c0-2.5,0-4.9,0-7.7c-2.8,0-5.4,0-8.1,0c0-5.4,0-10.6,0-16c2.6,0,5.1,0,7.8,0c0-2.7,0-5.1,0-7.7c-2.4,0-5,0-7.8,0
			c0-5.5,0-10.7,0-16.2c2.7,0,5.4,0,8,0l-0.1-0.1c0,2.6,0,5.2,0,7.8c2.8,0,5.2,0,7.8,0c0-2.7,0-5.2,0-7.8l-0.1,0.1c2.6,0,5.3,0,8,0
			c0,5.5,0,10.7,0,16.2c-2.7,0-5.3,0-7.8,0c0,5.4,0,10.4,0,15.8c2.6,0,5.2,0,8,0c0,2.8,0,5.2,0,7.7c2.8,0,5.3,0,8.1,0
			c0-2.7,0-5.1,0-7.5c8.1,0,15.9,0,23.7,0l-0.1-0.1c0,2.6,0,5.2,0,7.8l0.1-0.1c-5.2,0-10.4,0-16,0c0,5.5,0,10.7,0,16.2
			c-2.9,0-5.4,0-8,0c0-2.6,0-5.3,0-8.2c-1.4,0-2.6,0-3.8,0C23.3,160.9,16.6,160.9,10,160.8L10,160.8z"/>
		<path d="M26,80.9c0-2.5,0-4.9,0-7.7c2.4,0,4.9,0,7.7,0c0-2.8,0-5.3,0-7.9c2.8,0,5.2,0,8,0c0,2.6,0,5,0,7.8c2.9,0,5.6,0,8.2,0
			l-0.1-0.1c0,2.6,0,5.2,0,7.8c2.9,0,5.4,0,7.8,0l-0.1-0.1c0,2.7,0,5.4,0,8.5c-2.7,0-5.2,0-7.5,0c0,2.7,0,5.2,0,7.9
			c5.3,0,10.4,0,16,0c0,2.9,0,5.6,0,8.2c-7.2-0.1-14.4-0.2-21.6-0.2c-2.3,0-2.9-0.7-2.8-2.8c0.1-4.3,0-8.6,0-13.2c-2.8,0-5.2,0-8,0
			c0-2.8,0-5.3,0-7.9C30.9,81.1,28.4,81,26,80.9L26,80.9z"/>
		<path d="M89.8,200.8c2.5,0,4.9,0,7.7,0c0-2.4,0-4.9,0-7.6c2.8,0,5.3,0,8.1,0c0,5.1,0,10.3,0,15.8c-2.5,0-5,0-8,0
			c0,2.8,0,5.4,0,7.9l0.1-0.1c-2.5,0-4.9,0-7.6,0c0,5.5,0,10.7,0,16c0,0,0.1-0.1,0.1-0.1c-8,0-16,0-24.1,0c0-2.5,0-4.9,0-7.7
			c2.6,0,5,0,7.8,0c0-2.9,0-5.6,0-8.2l-0.1,0.1c2.6,0,5.2,0,7.8,0c0-2.9,0-5.4,0-7.8l-0.1,0.1c2.7,0,5.4,0,8.4,0
			C89.9,206,89.9,203.4,89.8,200.8L89.8,200.8z"/>
		<path d="M161.6,33c0-2.6,0-5,0-7.6c-2.7,0-5.1,0-7.7,0c0-2.8,0-5.4,0-8.2c2.4,0,4.9,0,7.6,0c0-2.7,0-5.1,0-7.7c5.5,0,10.6,0,16,0
			c0,5.2,0,10.3,0,15.8c8.1,0,15.9,0,23.9,0c0,2.8,0,5.2,0,7.8C188.1,33,175,33,161.6,33z"/>
		<path d="M169.8,49.3c0-2.6,0-5.2,0-8c10.5,0,21,0,31.6,0c0,5.2,0,10.3,0,15.6c-2.5,0-5,0-7.7,0c0-2.5,0-4.9,0-7.5
			c-2.7,0-5.2,0-7.8,0c0,8,0,15.9,0,23.8l0.1-0.1c-2.7,0-5.5,0-8.5,0c0-8.1,0-15.9,0-23.9C174.6,49.3,172.1,49.3,169.8,49.3
			L169.8,49.3z"/>
		<path d="M233.3,240.5c0,2.8,0,5.5,0,8.6c-7.8,0-15.6,0-23.7,0c0,5.4,0,10.6,0,15.9c-2.8,0-5.2,0-8,0c-0.1-0.9-0.2-1.8-0.2-2.7
			c0-6.2,0.1-12.4,0-18.6c-0.1-2.3,0.8-2.8,2.9-2.7c8.7,0.1,17.4,0.1,26.1,0C231.4,240.9,232.3,240.6,233.3,240.5L233.3,240.5z"/>
		<path d="M10,113.2c0-8,0-16,0-24l-0.1,0.1c2.5,0,4.9,0,7.7,0c0-2.7,0-5.3,0-8.3c3,0,5.7,0,8.4,0L26,80.9c0,6.9-0.1,13.8-0.1,20.7
			c0,3.6,0,3.6-3.5,3.6c-1.4,0-2.9,0-4.7,0c0,2.8,0,5.4,0,7.9l0.1-0.1C15.1,113.1,12.5,113.1,10,113.2L10,113.2z"/>
		<path d="M129.7,41c10.5,0,21,0,31.6,0c0,3.1,0,5.7,0,8.4l0.1-0.1c-2.5,0-5.1,0-7.8,0c0,2.9,0,5.4,0,7.8c-2.6,0-5.1,0-8,0
			c0-2.7,0-5.2,0-7.6c-2.9,0-5.4,0-8.2,0c0,2.6,0,5,0,7.5c-2.8,0-5.2,0-7.7,0l0.1,0.1C129.8,51.7,129.8,46.3,129.7,41L129.7,41z"/>
		<path d="M257.5,200.6c2,0.1,4,0.3,6,0.3c1.3,0,2,0.3,2,1.9c0,12.4,0,24.7-0.1,37.1c0,0.2-0.2,0.5-0.3,0.9c-2.4,0-4.9,0-7.5,0
			c-0.1-0.5-0.3-1-0.3-1.5c0-12.4,0-24.7,0-37.1C257.4,201.6,257.5,201.1,257.5,200.6C257.6,200.5,257.5,200.6,257.5,200.6z"/>
		<path d="M73.7,256.7c0-5.1,0-10.3,0-15.6c5.4-0.2,10.7-0.4,15.9-0.6c0,0-0.1-0.1-0.1-0.1c0,8.1,0,16.2,0,24.4c-2.5,0-4.9,0-7.8,0
			c0-2.5,0-5,0-7.8c-3-0.1-5.6-0.3-8.2-0.4L73.7,256.7z"/>
		<path d="M113.7,185.2c-5.2,0-10.4,0-16.1,0c0-8.4,0-16.4,0-24.5l-0.1,0.1c1.7,0,3.5,0.2,5.2,0.1c2.5-0.3,3.2,0.6,3.1,3.1
			c-0.2,4.3-0.1,8.5-0.1,12.9c2.9,0,5.4,0,7.8,0l-0.1-0.1C113.5,179.6,113.6,182.5,113.7,185.2L113.7,185.2z"/>
		<path d="M233.3,240.5c0.1-2.6,0.2-5.1,0.3-7.7l-0.1,0.1c2.5,0,5,0,7.8,0c0-2.5,0-5,0-7.6c2.9,0,5.4,0,8.3,0c0,7.9,0,15.8,0,23.7
			l0.1-0.1c-2.6,0-5.3,0-8.3,0c0-2.6,0-5.1,0-7.7C238.5,240.9,235.9,240.7,233.3,240.5C233.3,240.5,233.3,240.5,233.3,240.5z"/>
		<path d="M106.2,248.8c-2.7,0-5.5,0-8.5,0c0-2.5,0-5,0-7.6c-2.9-0.3-5.5-0.5-8.1-0.8c0,0,0.1,0.1,0.1,0.1c0.1-2.6,0.3-5.2,0.4-7.8
			c0,0-0.1,0.1-0.1,0.1c7.8,0,15.5,0,23.5,0c0,2.8,0,5.3,0,8.1c-2.5,0-4.9,0-7.8,0C105.8,243.8,106,246.3,106.2,248.8
			C106.2,248.8,106.2,248.8,106.2,248.8z"/>
		<path d="M17.7,176.9c-5.2,0-10.4,0-16,0c0-5-0.1-9.8,0.1-14.5c0-0.5,1.1-1.3,1.8-1.3c2.1-0.2,4.2-0.1,6.3-0.2l-0.1-0.1
			c0,2.7,0,5.4,0,8.4c2.8,0,5.3,0,7.8,0C17.7,172,17.7,174.5,17.7,176.9L17.7,176.9z"/>
		<path d="M249.7,256.9c0-2.6,0.1-5.3,0.1-7.9c0,0-0.1,0.1-0.1,0.1c5.1,0,10.3,0,15.7,0c0,5.3,0,10.4,0,15.8c-2.5,0-5,0-7.8,0
			c0-2.5,0-5,0-8C254.7,256.8,252.1,256.8,249.7,256.9L249.7,256.9z"/>
		<path d="M177.4,256.7c0-2.5,0-4.9,0-7.5c5.6,0,10.7,0,16,0c0,5.2,0,10.4,0,15.7c-2.6,0-5,0-7.7,0c0-2.6,0-5.1,0-7.8
			C182.7,256.9,180,256.8,177.4,256.7C177.3,256.6,177.4,256.7,177.4,256.7z"/>
		<path d="M185.8,17c0-5.3,0-10.4,0-15.7c2.6,0,5,0,7.8,0c0,2.7,0,5.2,0,8c2.7,0,5.2,0,7.8,0c0,2.7,0,5.1,0,7.7
			C196.2,17,191.1,17,185.8,17z"/>
		<path d="M161.3,233c2.7,0,5.3,0,8.2,0c0,5.3,0,10.5,0,16c-2.7,0-5.5,0-8.2,0l0.1,0.1C161.4,243.7,161.4,238.3,161.3,233L161.3,233
			z"/>
		<path d="M97.5,216.9c5.2,0,10.5,0,15.9,0c0,2.7,0,5.2,0,7.9c-5.1,0-10.3,0-15.9,0C97.6,222.1,97.6,219.5,97.5,216.9
			C97.6,216.8,97.5,216.9,97.5,216.9z"/>
		<path d="M161.3,249c0,5.2,0,10.4,0,15.8c-2.5,0-5,0-7.7,0c0-5.4,0-10.6,0-15.8l-0.1,0.1C156.2,249.1,158.8,249.1,161.3,249
			L161.3,249z"/>
		<path d="M193.5,232.9c0,2.6,0,5.1,0,7.8c-5.4,0-10.5,0-15.9,0c0-2.5,0-4.9,0-7.8C183,233,188.3,233,193.5,232.9
			C193.6,233,193.5,232.9,193.5,232.9z"/>
		<path d="M249.6,256.8c0,2.6,0,5.2,0,8c-2.7,0-5.2,0-7.9,0c0-2.5,0-5.1,0-7.9C244.4,256.9,247,256.9,249.6,256.8
			C249.7,256.9,249.6,256.8,249.6,256.8z"/>
		<path d="M217.6,257c2.6,0,5.1,0,7.8,0c0,2.5,0,5,0,7.8c-2.6,0-5.1,0-7.8,0C217.6,262.3,217.6,259.8,217.6,257z"/>
		<path d="M106.1,257c-0.2,2.5-0.4,5.1-0.6,7.8c-2.6,0-5.1,0-7.8,0c0-2.6,0-5,0-7.8C100.5,257,103.4,257,106.1,257L106.1,257z"/>
		<path d="M10,89.2c-2.6,0-5.3,0-8.3,0c0-2.4-0.1-4.5,0.1-6.6c0-0.6,0.9-1.4,1.4-1.5c2.1-0.2,4.2-0.1,6.7-0.1
			C9.9,84,9.9,86.6,10,89.2C9.9,89.3,10,89.2,10,89.2z"/>
		<path d="M129.8,264.9c0-2.7,0-5.1,0-7.8c2.4,0,4.8,0,7.5,0c0,2.5,0,5.1,0,7.8C134.9,264.9,132.5,264.9,129.8,264.9z"/>
		<path d="M146.1,9.6c-0.2-2.7-0.4-5.4-0.6-8.3c2.9,0,5.3,0,7.9,0c0,2.6,0,5.2,0,7.8C150.9,9.3,148.5,9.4,146.1,9.6
			C146.1,9.5,146.1,9.6,146.1,9.6z"/>
		<path d="M257.5,65.4c2.8,0,5.2,0,7.9,0c0,2.6,0,5,0,7.6c-2.6,0-5.2,0-7.9,0C257.5,70.4,257.5,68,257.5,65.4z"/>
		<path d="M1.9,73c0-2.6,0-5,0-7.6c2.7,0,5.2,0,7.9,0c0,2.6,0,5,0,7.6C7.1,73,4.6,73,1.9,73z"/>
		<path d="M73.6,256.7c0,2.7,0,5.3,0,8.2c-2.5,0-4.9,0-7.6,0c0-2.6,0-5.1,0-8.1c2.6,0,5.1,0,7.6,0C73.7,256.7,73.6,256.7,73.6,256.7
			z"/>
		<path d="M161.3,49.3c2.8,0,5.6,0,8.4,0l-0.1-0.1c0,2.5,0,5.1,0,7.8c-3,0-5.7,0-8.4,0C161.3,54.5,161.4,51.9,161.3,49.3L161.3,49.3
			z"/>
		<path d="M257.3,185.3c2.6,0,5.3,0,8.1,0c0,2.5,0,5,0,7.6c-2.8,0-5.4,0-8.1,0l0.1,0.1c0-2.6,0-5.2,0-7.8L257.3,185.3z"/>
		<path d="M177.3,256.6c0,2.6,0,5.3,0,8.2c-2.3,0-4.7,0-7.4,0c0-2.5,0-5,0-8.1C172.3,256.7,174.8,256.7,177.3,256.6
			C177.4,256.7,177.3,256.6,177.3,256.6z"/>
		<path d="M81.5,57.1c0-2.5,0-4.9,0-7.8c3,0,5.7,0,8.4,0l-0.1-0.1c0,2.6,0.1,5.2,0.1,7.8C87.1,57.1,84.2,57,81.5,57.1L81.5,57.1z"/>
		<path d="M113.6,9.4c-2.5,0-5,0-7.6,0c0-2.8,0-5.3,0-8c2.4,0,4.9,0,7.6,0C113.5,4.1,113.5,6.8,113.6,9.4
			C113.5,9.5,113.6,9.4,113.6,9.4z"/>
		<path d="M89.9,9.1c0-2.7,0-5.1,0-7.8c2.5,0,5,0,7.5,0c0,2.7,0,5.2,0,7.8C94.9,9.1,92.4,9.1,89.9,9.1z"/>
		<path d="M185.8,209.1c0,2.4,0,4.9,0,7.8c-3,0-5.7,0-8.4,0l0.1,0.1c0-2.6,0-5.1,0-7.8C180.5,209.1,183.2,209.1,185.8,209.1
			L185.8,209.1z"/>
		<path d="M257.6,200.5c-2.7,0.1-5.4,0.1-8,0.2l0.1,0.1c0-2.6,0-5.2,0-7.8l-0.1,0.1c2.6,0,5.2,0,7.8,0l-0.1-0.1
			C257.4,195.5,257.4,198.1,257.6,200.5C257.5,200.6,257.6,200.5,257.6,200.5z"/>
		<path d="M97.6,160.8c-2.6,0-5.2,0-7.8,0l0.1,0.1c0-2.5,0-5.1,0-7.6c2.7,0,5.2,0,7.7,0C97.5,155.9,97.5,158.4,97.6,160.8
			L97.6,160.8z"/>
		<path d="M106.2,257.1c0-2.8,0-5.5,0-8.2c0,0,0,0.1,0,0c2.4,0,4.8,0,7.3,0c0,2.8,0,5.2,0,8.1C111,257,108.5,257,106.2,257.1
			C106.1,257,106.2,257.1,106.2,257.1z"/>
		<path class="st0" d="M217.4,129.2c0,2.5,0,5,0,7.8c5.4,0,10.6,0,16.1,0c0,2.9,0,5.4,0,8.1c2.7,0,5,0,7.8,0c0,2.7,0,5.2,0,7.9
			c5.5,0,10.5,0,15.8,0c0,5.4,0,10.6,0,16c-2.4,0-4.8,0-7.5,0c0-2.5,0-5,0-7.9c-2.5,0-4.7-0.1-7,0.1c-0.5,0-1.2,1.1-1.2,1.7
			c-0.1,2-0.1,4-0.1,6.2c-5.3,0-10.3,0-15.7,0c0-2.7,0-5.4,0-8.2c2.5,0,5,0,7.6,0c0-2.6,0-5,0-7.5c-2.6,0-5.1,0-7.6,0
			c0,2.7,0,5.1,0,7.6c-2.8,0-5.6-0.1-8.4-0.1l0.1,0.1c0-2.6,0-5.1,0-7.8c-2.9,0-5.4,0-7.8,0l0.1,0.1c0-2.6,0-5.1,0-8
			c-5.6,0-10.8,0-16.3,0c0-2.9,0-5.4,0-7.9c-5.4,0-10.6,0-16,0c0,5.4,0,10.7,0,15.9l0.1-0.1c-8,0-16,0.1-23.9,0.1
			c0-2.6,0-5.2,0.1-7.8l-0.1,0.1c2.5-0.1,5.1-0.2,8-0.4c0-2.7,0-5.2,0-8.1c2.9,0,5.4,0,7.9,0c0-2.8,0-5.2,0-7.8c-2.7,0-5.1,0-7.9,0
			c0-2.3-0.1-4.4,0.1-6.5c0.1-0.6,1.2-1.4,1.9-1.5c2-0.2,4-0.1,6.2-0.1c0-8.2,0-16,0-24.1c2.7,0,5.1,0,7.7,0c0-2.8,0-5.3,0-7.7
			l-0.1,0.1c5.3,0,10.5,0,16,0c0,5.2,0,10.4,0,16.3c5.6,0,11,0,16.4,0l0-0.1c0,2.4,0,4.8,0,7.4c2.4,0,4.8,0,7.5,0c0,2.8,0,5.4,0,7.9
			l0.1-0.1c-2.5,0.1-5.1,0.2-7.6,0.3c0,2.8,0,5.3,0,8.1C212.5,129.2,215,129.2,217.4,129.2L217.4,129.2z M186.1,112.9
			c-0.2-2.5-0.4-5-0.6-7.5c-2.7,0-5.2,0-7.7,0c0,2.7,0,5.1,0,7.5C180.6,112.9,183.4,112.9,186.1,112.9c0,2.6-0.1,5.3-0.2,8
			c-2.7,0-5.4,0-8.1,0c0,3.1,0,5.6,0,8.1c2.7,0,5.2,0,8.1,0c0-2.9,0-5.5,0-8.1c2.5,0.1,5.1,0.3,7.9,0.4c0,2.7,0,5.3,0,7.7
			c2.7,0,5.2,0,7.6,0c0-5.3,0-10.5,0-16.1C196.2,112.9,191.1,112.9,186.1,112.9z"/>
		<path class="st0" d="M185.9,209.1c-2.7,0-5.3,0-8.3,0c0,2.7,0,5.2,0,7.8c-7.8,0-15.7,0-23.9,0c0-2.7,0-5.3,0-7.8l-0.1,0.1
			c2.5,0,5.1,0,7.8,0c0-8.2,0-16.1,0-23.9c2.7,0,5.5,0,8.2,0c0-5.7,0-10.8,0-16.1c-1.5,0-2.7,0-4,0c-1.2,0-2.5,0-4,0
			c0-1.3,0-2.2,0-3.1c0-5,0-4.9,5-5c3.7-0.1,7.5-0.3,11.2-0.4c0,2.8,0,5.6,0,8.4c2.7,0,5.2,0,8,0c0-2.2,0.1-4.2-0.1-6.2
			c-0.1-0.6-1-1.6-1.7-1.7c-2-0.3-4.1-0.3-6.2-0.5c0-2.5-0.1-5.1-0.1-7.6l-0.1,0.1c5.3,0,10.6,0,16.2,0c0,2.7,0,5.2,0,7.6
			c2.8,0,5.3,0,8.1,0c0-2.7,0-5.1,0-7.6c2.9,0,5.5,0,8,0l-0.1-0.1c0,2.6,0,5.2,0,7.8c2.9,0,5.4,0,7.8,0l-0.1-0.1c0,2.7,0,5.3,0,8.3
			c-5.2,0-10.4,0-15.7,0c0,2.7,0,5.1,0,7.9c5.1,0,10.3,0,15.6,0c0,2.8,0,5.3,0,8.2c-2.5,0-4.9,0-7.6,0c0,2.8,0,5.2,0,7.8
			c-2.7,0-5.2,0-8,0c0-2.5,0-5,0-7.6c-3,0-5.5,0-8.1,0l0.1,0.1c0-2.7,0-5.5,0-8.2c-2.9,0-5.3,0-7.8,0c0,2.8,0,5.5,0,8.2l0.1-0.1
			c-2.7,0-5.3,0-8.3,0c0,2.5,0,5,0,7.7c-2.7,0-5.1,0-7.8,0c0,2.7,0,5.2,0,8c3.5,0,7,0,10.5,0c5.3,0,5.3,0,5.3,5.4
			C185.6,207.3,185.8,208.2,185.9,209.1z"/>
		<path class="st0" d="M161.3,57.1c2.7,0,5.3,0,8.4,0c0-2.8,0-5.3,0-7.8c2.5,0,5,0,7.7,0c0,8,0,15.7,0,23.9c3,0,5.7,0,8.5,0
			c-0.1,2.5-0.2,5.1-0.4,7.9c-2.6,0-5.2,0-8,0c0,3,0,5.6,0,8.2l0.1-0.1c-5.2,0-10.5,0-16,0c0-2.2,0.1-4,0-5.9
			c-0.1-1.7,0.5-2.4,2.2-2.3c1.9,0.1,3.8,0,5.8,0c0-2.8,0-5.3,0-8c-2.7,0-5.2,0-8.1,0c0-5.6,0-10.8,0-16.1L161.3,57.1z"/>
		<path class="st0" d="M213.5,201c3.3,0,6.6,0.1,10,0c1.5,0,2.1,0.5,2.1,2.1c-0.1,6.6,0,13.3,0,19.9c0,1.5-0.5,2.1-2.1,2.1
			c-6.6-0.1-13.3-0.1-19.9,0c-1.6,0-2.1-0.6-2.1-2.1c0-6.6,0.1-13.3,0-19.9c0-1.6,0.5-2.1,2.1-2.1C206.9,201,210.2,201,213.5,201z
			 M217.3,216.8c0-2.7,0-5.1,0-7.6c-2.6,0-5,0-7.5,0c0,2.6,0,5,0,7.6C212.3,216.8,214.7,216.8,217.3,216.8z"/>
		<path class="st0" d="M209.8,89.4c0-5.3,0-10.7,0-16.1c5.2,0,10.3,0,15.7,0c0,2.6,0,5,0,7.8c2.7,0,5.2,0,7.8,0c0,2.8,0,5.2,0,8.2
			C225.5,89.3,217.6,89.3,209.8,89.4L209.8,89.4z"/>
		<path class="st0" d="M249.7,193c0,2.6,0,5.2,0,7.8c-5.2,0-10.5,0-16.3,0c0-5.1,0-10.2,0-15.3l0,0c2.6-0.2,5.2-0.4,8.1-0.6
			c0,2.9,0,5.3,0,8C244.4,193,247,193,249.7,193z"/>
		<path class="st0" d="M233.7,120.7c3.9,0.1,7.7,0.2,11.6,0.3c1.4,0,2.7,0,4.2,0c0,2.8,0,5.3,0,7.9c-5.2,0-10.3,0-15.7,0
			C233.7,126.2,233.7,123.4,233.7,120.7C233.7,120.6,233.7,120.7,233.7,120.7z"/>
		<path class="st0" d="M233.7,120.6c-2.6,0.2-5.2,0.3-8,0.5c0-5.4,0-10.4,0-16c2.7,0.2,5.3,0.4,8,0.6l0,0
			C233.7,110.6,233.7,115.7,233.7,120.6C233.7,120.7,233.7,120.6,233.7,120.6z"/>
		<path class="st0" d="M193.5,185.2c0,5.1,0,10.3,0,15.6c-2.7,0-5.1,0-7.7,0c0-5.3,0-10.4,0-15.6l-0.1,0.1
			C188.4,185.3,191,185.3,193.5,185.2L193.5,185.2z"/>
		<path class="st0" d="M217.4,120.9c2.1,0.1,4.3,0,6.4,0.2c0.7,0.1,1.7,1,1.8,1.7c0.2,2,0.1,4,0.1,6.4c-2.9,0-5.6,0-8.2,0l0.1,0.1
			C217.5,126.4,217.5,123.6,217.4,120.9L217.4,120.9z"/>
		<path class="st0" d="M209.7,97c2.5,0,5,0,7.6,0c0,2.8,0,5.3,0,7.9c-2.6,0.2-5,0.4-7.5,0.6c0,0,0,0.1,0.1,0.1
			C209.8,102.7,209.8,99.8,209.7,97C209.8,96.9,209.7,97,209.7,97z"/>
		<path class="st0" d="M209.7,89.3c0,2.6,0,5.1-0.1,7.7l0.1-0.1c-2.6,0-5.3,0-8.1,0c0-2.5,0-4.9,0-7.5
			C204.4,89.4,207.1,89.4,209.7,89.3C209.8,89.4,209.7,89.3,209.7,89.3z"/>
		<path class="st0" d="M233.8,105.6c0-2.7,0-5.5,0-8.4c2.4,0,4.8,0,7.4,0c0,2.5,0,5,0,7.7C238.7,105.1,236.2,105.3,233.8,105.6
			C233.7,105.6,233.8,105.6,233.8,105.6z"/>
		<path class="st0" d="M233.3,185.5c-2.4-0.2-4.8-0.4-7.5-0.7c0-2.5,0-5,0-7.7c2.4,0,4.9,0,7.5,0
			C233.3,179.9,233.3,182.7,233.3,185.5C233.3,185.5,233.3,185.5,233.3,185.5z"/>
		<path class="st0" d="M257.4,193.1c-2.6,0-5.2,0-7.8,0c0-2.5,0-5.1,0-7.8c2.8,0,5.3,0,7.8,0C257.4,187.8,257.4,190.4,257.4,193.1z"
			/>
		<path class="st0" d="M66,105.4c0-2.7,0-5.3,0-8.2c-5.5,0-10.6,0-16,0c0-2.7,0-5.1,0-7.9c2.4,0,4.8,0,7.5,0c0-3,0-5.7,0-8.5
			c1.9,0.1,3.9,0.3,5.8,0.2c2-0.1,2.6,0.7,2.4,2.6c-0.1,1.7,0,3.5,0,5.4c5.3,0,10.4,0,15.9,0c0-1.9,0.1-3.8,0-5.7
			c-0.1-1.7,0.5-2.3,2.2-2.3c2.1,0,4.2-0.3,6.2-0.4c0,2.8,0,5.6,0,8.4c2.5,0,5,0,7.4,0c0-2.7,0-5.2,0-7.7c-2.6-0.2-5-0.4-7.4-0.6
			c-0.1-2.5-0.1-5-0.2-7.6l-0.1,0.1c5.4,0,10.8,0,16.2,0l-0.1-0.1c0,5.3,0,10.6,0,16.2c2.8,0,5.2,0,7.7,0c0,2.5,0,5.1,0,7.8
			c-5.5,0-10.6,0-15.8,0c0,2.8,0,5.3,0,7.8c8,0,15.8,0,23.6,0c0-5.3,0-10.4,0-15.6c-2.8,0-5.3,0-7.9,0c0-2.7,0-5.4,0-8.1
			c5.7,0,10.9,0,16.3,0c0,2.7,0,5.2,0,7.8c2.8,0,5.2,0,7.8,0c0-5.4,0-10.7,0-15.9l-0.1,0.1c2.8,0,5.6,0,8.4,0l-0.1-0.1
			c0,2.6,0,5.2,0,8.1c2.8,0,5.2,0,7.6,0c0,2.8,0,5.3,0,8.1c-2.7,0-5.1,0-7.9,0c0.2,2.8,0.5,5.3,0.7,7.9c-5.4,0-10.8,0-16.2,0
			c0,2.7,0,5.2,0,8c4.9,0,9.6,0.1,14.2-0.1c0.5,0,1.4-1.2,1.5-1.9c0.3-2,0.3-4,0.4-6c2.5,0,4.9,0,7.6,0c0,2.7,0,5.3,0,8.1
			c2.7,0,5.2,0,7.6,0c0,5.4,0,10.5,0,15.6c-2.7,0-5.2,0-7.7,0c0-2.6,0-5.1,0-7.6c-2.8,0-5.3,0-7.7,0c0,2.7,0,5.1,0,7.6
			c-2.7,0-5.4,0-8.5,0c0,3.1,0,5.6,0,8.3c-2.8,0-5.2,0-7.7,0l0.1,0.1c0-5.3,0-10.6,0-15.9c-5.6,0-10.8,0-15.9,0c0,2.7,0,5.1,0,7.9
			c2.6,0,5.1,0,7.5,0c0,2.9,0,5.5,0,8l0.1-0.1c-5.1,0-10.3,0-15.7,0c0-2.1-0.1-3.9,0-5.8c0.1-1.8-0.5-2.5-2.3-2.4
			c-1.9,0.1-3.8-0.2-5.7-0.3c0-2.4,0-4.9,0-7.4c-2.8,0-5.3,0-7.7,0c0,2.7,0,5.2,0,8c2.8-0.2,5.3-0.4,7.8-0.6
			c-0.1,5.5-0.2,10.9-0.3,16.4l0.1-0.1c-5.3,0-10.5,0-16.2,0c0,3.1,0,5.8,0,8.4l0.1-0.1c-2.5,0-4.9,0-7.7,0c0-2.9,0-5.4,0-8.3
			c-5.6,0-10.9,0-16.2,0l0.1,0.1c0-2.5,0-5,0-7.8c-2.8,0-5.3,0-7.8,0l0.1,0.1c0-2.6,0-5.3,0-8.2c5,0,9.6-0.1,14.3,0.1
			c0.5,0,1.4,1.2,1.5,1.9c0.2,2,0.1,3.9,0.1,5.9c5.5,0,10.5,0,15.7,0c0-2.7,0-5.2,0-8c-2.6,0-5.1,0-7.5,0c0-5.3,0-10.4,0-15.4
			c5.2,0,10.4,0,15.7,0c0-3.2,0-5.8,0-8.4c-5.4,0-10.5,0-15.6,0c0,2.9,0,5.7,0,8.4c-2.7-0.1-5.4-0.2-8.1-0.3L66,105.4z"/>
		<path class="st0" d="M97.5,160.9c0-2.5,0-4.9,0-7.6c-2.5,0-5,0-7.7,0c0,2.5,0,5.1,0,7.6c-2.6,0-5.1,0-8.4,0c0-5.2,0-10.4,0-15.6
			l-0.1,0.1c5.3,0,10.6,0,16.2,0c0-3.1,0-5.8,0-8.4l-0.1,0.1c5.3,0,10.6,0,16.2,0c0,5.6,0,10.8,0,15.9c2.8,0,5.2,0,7.7,0
			c0-8,0-15.9,0-23.7l-0.1,0.1c2.8,0,5.6,0,8.4,0l-0.1-0.1c0,2.6,0,5.1,0,7.9c8.1,0,15.9,0,23.9,0c0,2.9,0,5.6,0,8.3l0.1-0.1
			c-2.6,0-5.2,0-7.8,0c0,2.8,0,5.3,0,7.9c-2.9,0-5.7,0.1-8.5,0.1c0-2.6,0-5.3,0-7.9c-2.6,0-5,0-7.5,0c0,2.6,0,5.1,0,7.8
			c2.6,0,5.1,0,7.6,0c0,2.6,0,5.1,0,8c-2.7,0-5.1,0-7.5,0c0,8.1,0,15.9,0,23.8c2.6,0,5,0,7.7,0c0-5.3,0-10.4,0-15.8
			c2.9,0,5.6,0,8.2,0c0,5.2,0,10.4,0,16.1c2.6,0,5.2,0,7.8,0c0,8,0,15.9-0.1,23.9l0.1-0.1c-2.6,0-5.1,0-7.9,0c0,2.6,0,5,0,7.6
			c-2.8,0-5.3,0-8,0c0-5.1,0-10.2,0-15.7c2.6,0,5.1,0,7.8,0c0-2.7,0-5.1,0-7.7c-5.1,0-10.2,0-15.8,0c0,2.4,0,4.9,0,7.5
			c-2.9,0-5.3,0-8,0c0-5.1,0-10.2,0-15.5c-2.9,0-5.5,0-8.1,0c0-2.8-0.1-5.7-0.1-8.5c2.6,0,5.3,0,7.9,0c0-5.3,0-10.4,0-15.6
			c-2.7,0-5.1,0-7.8,0c0,5.4,0,10.5,0,15.7c-2.5,0-4.9,0-7.8,0c0-4.3-0.1-8.6,0.1-12.9c0.1-2.4-0.6-3.3-3.1-3.1
			C101,161.1,99.3,160.9,97.5,160.9z"/>
		<path class="st0" d="M17.6,113.1c0-2.6,0-5.1,0-7.9c1.8,0,3.3,0,4.7,0c3.5,0,3.5,0,3.5-3.6c0-6.9,0.1-13.8,0.1-20.7
			c2.5,0.1,4.9,0.2,7.7,0.4c0,2.6,0,5.1,0,7.9c2.7,0,5.2,0,8,0c0,4.6,0.1,8.9,0,13.2c-0.1,2.1,0.5,2.9,2.8,2.8
			c7.2-0.1,14.4,0.1,21.6,0.2l-0.1-0.1c0,2.6,0,5.1,0,7.9c-11,0-21.5,0-32,0c0,2.7,0,5.2,0,7.9c2.6,0,5,0,7.9,0
			c-0.2,2.9-0.3,5.4-0.5,7.9c-2.4,0-4.9,0-7.4,0c0,2.9,0,5.3,0,7.7c2.7,0,5.2,0,8,0c-0.2-2.8-0.4-5.3-0.7-7.8
			c2.9,0.1,5.8,0.2,8.6,0.3l-0.1-0.1c0,2.5,0,5,0,7.8c2.8,0,5.3,0,7.8,0l-0.1-0.1c0,2.8,0.1,5.6,0.1,8.4c-7.8,0-15.6,0-23.7,0
			c0,2.4,0,4.8,0,7.5c-2.8,0-5.3,0-8.1,0c0-2.5,0-4.9,0-7.7c-2.8,0-5.4,0-8,0c0-5.4,0-10.4,0-15.8c2.5,0,5.1,0,7.8,0
			c0-5.5,0-10.7,0-16.2C22.9,113.1,20.3,113.1,17.6,113.1z"/>
		<path class="st0" d="M33.7,169.2c2.6,0,5.1,0,8,0c0-5.5,0-10.7,0-16.2c5.5,0,10.8,0,16,0c0,2.6,0,5.1,0,7.9c-2.7,0-5,0-7.6,0
			c0,2.8,0,5.3,0,8.1c2.4,0,4.8,0,7.4,0c0,2.7,0,5.2,0,7.8c-2.5,0-4.8,0-7.8,0c0,3,0,5.8,0,8.6l0.1-0.1c-3.7-0.1-7.5-0.3-11.2-0.3
			c-4.1-0.1-8.2,0-12.4,0c0-2.9,0-5.6,0-8.2l-0.1,0.1c2.6,0,5.1,0,7.8,0C33.8,174.1,33.8,171.6,33.7,169.2L33.7,169.2z"/>
		<path class="st0" d="M73.6,176.9c2.8,0,5.2,0,7.8,0c0,8,0,15.8,0,23.8c-2.4,0-4.8,0-7.5,0c0-2.4,0-4.8,0-7.6c-2.8,0-5.3,0-7.9,0
			c0-10.8,0-21.2,0-31.8c2.5,0,4.9,0,7.6,0C73.6,166.3,73.6,171.4,73.6,176.9z"/>
		<path class="st0" d="M17.6,177c0-2.5,0-4.9,0-7.7c-2.5,0-4.9,0-7.8,0c0-3,0-5.7,0-8.4c6.7,0.1,13.4,0.1,20.1,0.2
			c1.2,0,2.3,0,3.8,0c0,2.9,0,5.6,0,8.2l0.1-0.1c-2.6,0-5.2,0-7.8,0c0,2.9,0,5.4,0,7.8l0.1-0.1C23.3,176.9,20.5,176.9,17.6,177z"/>
		<path class="st0" d="M89.9,200.7c0,2.6,0,5.3,0,8.4c-3,0-5.7,0-8.4,0c0.1-2.1,0.2-4.2,0.2-6.3c0-1.4,0.5-1.9,1.9-1.9
			C85.7,200.9,87.8,200.8,89.9,200.7z"/>
		<path class="st0" d="M57.6,153.1c0-2.6,0-5.2,0-7.8c2.6,0,5.2,0,8,0c0,2.7,0,5.1,0,7.8C62.9,153.1,60.2,153.1,57.6,153.1z"/>
		<path class="st0" d="M81.5,209.1c0,2.5,0,4.9,0,7.8c-2.6,0-5.2,0-7.8,0c0-2.5,0-5,0-7.8C76.4,209.1,79,209.1,81.5,209.1z"/>
		<path class="st0" d="M49.7,185.5c2.5-0.2,5.1-0.3,7.8-0.5c0,2.8,0,5.2,0,7.9c-2.4,0-4.9,0-7.7,0C49.7,190.3,49.7,187.9,49.7,185.5
			C49.7,185.4,49.7,185.5,49.7,185.5z"/>
		<path class="st0" d="M49.7,217.1c0,13.3,0,26.3,0,39.5c-13.2,0-26.4,0-39.7,0c0-13.1,0-26.2,0-39.5
			C23.2,217.1,36.4,217.1,49.7,217.1z M41.5,248.9c0-8,0-15.8,0-23.7c-8,0-15.8,0-23.7,0c0,8,0,15.8,0,23.7
			C25.8,248.9,33.5,248.9,41.5,248.9z"/>
		<path class="st0" d="M257.2,9.5c0,13.3,0,26.4,0,39.6c-13.2,0-26.3,0-39.6,0c0-13.2,0-26.3,0-39.6C230.7,9.5,243.9,9.5,257.2,9.5z
			 M249.4,41c0-8.1,0-16,0-23.7c-8,0-15.7,0-23.5,0c0,8,0,15.9,0,23.7C233.8,41,241.5,41,249.4,41z"/>
		<path class="st0" d="M10.1,9.5c13.2,0,26.3,0,39.6,0c0,13.2,0,26.3,0,39.6c-13.1,0-26.2,0-39.6,0C10.1,36,10.1,22.9,10.1,9.5z
			 M17.8,41c8,0,15.8,0,23.7,0c0-8,0-15.8,0-23.7c-8,0-15.8,0-23.7,0C17.8,25.2,17.8,32.9,17.8,41z"/>
		<path class="st0" d="M161.4,249.1c-2.6,0-5.2,0-7.8,0c0-5.2,0-10.5,0-16.2c2.7,0,5.3,0,7.8,0C161.4,238.3,161.4,243.7,161.4,249.1
			z"/>
		<path class="st0" d="M129.7,57c2.5,0,5,0,7.7,0c0-2.5,0-4.9,0-7.5c2.8,0,5.3,0,8.2,0c0,2.5,0,4.9,0,7.6c2.9,0,5.4,0,8,0l-0.1-0.1
			c0,5.3,0,10.6,0,16.1c-2.8,0-5.3,0-7.8,0l0.1,0.1c-0.1-2.6-0.2-5.1-0.3-7.8c-2.7,0-5.2,0-8.1,0c0,2.7,0,5.2,0,7.8l0.1-0.1
			c-10.6,0-21.1,0-31.7,0l0.1,0.1c0-2.5,0-5.1,0-8.1c-3.1,0-5.6,0-8.3,0c0-3,0-5.6,0-8.1l-0.1,0.1c2.6,0,5.3,0,8.1,0
			c0-2.7,0-5.1,0-7.8c-2.8,0-5.4,0-8.1,0l0.1,0.1c0-2.6,0-5.2,0-8.1c5.4,0,10.5,0,16.1,0c0-2.9,0-5.5,0-8l-0.1,0.1c2.5,0,5.1,0,8,0
			c0,2.7,0,5.1,0,7.7c2.9,0,5.6,0,8.2,0C129.8,46.3,129.8,51.7,129.7,57c-2.5,0.1-5.2,0.1-8.2,0.1c0-2.8,0-5.2,0-7.7
			c-2.8,0-5.2,0-7.7,0c0,5.3,0,10.4,0,15.6c5.4,0,10.6,0,15.9,0C129.7,62.2,129.7,59.6,129.7,57z"/>
		<path class="st0" d="M129.6,17c0,2.6,0,5.3,0,8.3c-2.3,0-4.5,0.1-6.7-0.1c-0.5,0-1.2-0.9-1.2-1.4c-0.1-2.1-0.1-4.2-0.1-6.8
			c2.8,0,5.5,0,8.1,0C129.7,17.1,129.6,17,129.6,17z"/>
		<path class="st0" d="M137.5,9.3c0,2.5,0,4.9,0,7.7c-2.6,0-5.2,0-7.9,0l0.1,0.1c0-2.5,0-4.9,0-7.7C132.5,9.4,135,9.4,137.5,9.3
			C137.6,9.4,137.5,9.3,137.5,9.3z"/>
		<path class="st0" d="M89.9,57.1c0-2.6-0.1-5.2-0.1-7.8c2.6,0,5.2,0,7.9,0.1l-0.1-0.1c0,2.6,0,5.2,0,7.8l0.1-0.1
			C95,57,92.4,57,89.9,57.1L89.9,57.1z"/>
		<path class="st0" d="M113.7,33.2c-2.6,0-5.1,0-7.8,0c0-2.7,0-5.1,0-7.7c2.6,0,5,0,7.7,0C113.6,28.1,113.6,30.7,113.7,33.2
			C113.6,33.2,113.7,33.2,113.7,33.2z"/>
		<path class="st0" d="M81.4,57c2.8,0,5.6,0,8.4,0.1L89.8,57c0,5.4,0,10.8,0,16.2l0.1-0.1c-2.6,0-5.3,0-8.4,0
			C81.4,67.6,81.4,62.3,81.4,57z"/>
		<path class="st0" d="M57.7,81c-2.5,0-4.9,0-7.8,0c0-2.6,0-5.2,0-7.8c2.5,0,5,0,7.8,0C57.7,75.9,57.7,78.4,57.7,81z"/>
		<path class="st0" d="M9.9,113.1c2.6,0,5.2,0,7.8,0c0,2.6,0,5.1,0,7.8c-2.6,0-5,0-7.8,0C9.9,118.3,9.9,115.7,9.9,113.1z"/>
		<path class="st0" d="M161.4,49.3c0,2.6-0.1,5.2-0.1,7.8l0.1-0.1c-2.6,0-5.2,0-7.8,0l0.1,0.1c0-2.5,0-5,0-7.8
			C156.3,49.3,158.9,49.3,161.4,49.3z"/>
		<path d="M153.6,57c2.6,0,5.2,0,7.8,0c0,5.2,0,10.5,0,16.1c2.9,0,5.4,0,8.1,0c0,2.8,0,5.2,0,8c-2,0-3.9,0.1-5.8,0
			c-1.7-0.1-2.3,0.6-2.2,2.3c0.1,1.8,0,3.7,0,5.9c5.5,0,10.7,0,16,0c0,2.5,0,5,0,7.7c-2.6,0-5,0-7.7,0c0,8.1,0,15.9,0,24.1
			c-2.3,0-4.3-0.1-6.2,0.1c-0.7,0.1-1.8,0.9-1.9,1.5c-0.2,2.1-0.1,4.2-0.1,6.5c2.8,0,5.3,0,7.9,0c0,2.6,0,5.1,0,7.8
			c-2.5,0-5,0-7.9,0c0,2.8,0,5.4,0,8.1c-2.9,0.1-5.5,0.2-8,0.4c0-2.7,0-5.3,0-8.3c-7.9,0-15.7,0-23.9,0c0-2.8,0-5.4,0-7.9
			c2.5,0,4.9,0,7.7,0c0-2.7,0-5.2,0-8.3c3,0,5.7,0,8.5,0l-0.1-0.1c0,2.7,0,5.4,0,8.1c2.8,0,5.2,0,7.8,0c0-2.8,0-5.5,0-8.2l-0.1,0.1
			c2.5,0,5,0,7.7,0c0-5.1,0-10.2,0-15.6c-2.4,0-4.8,0-7.6,0c0-2.8,0-5.4,0-8.1c-2.7,0-5.2,0-7.6,0l0.1,0.1c-0.2-2.5-0.4-5.1-0.7-7.9
			c2.8,0,5.2,0,7.9,0c0-2.8,0-5.3,0-8.1c-2.3,0-4.8,0-7.6,0c0-2.9,0-5.5,0-8.1c2.5,0,5,0,7.8,0C153.6,67.7,153.6,62.3,153.6,57z"/>
		<path d="M153.7,185.2c-2.5,0-5.1,0-7.8,0c0-5.7,0-10.9,0-16.1l-0.1,0.1c2.5,0,5.1,0,7.8,0c0-5.7,0-10.9,0-16.2l-0.1,0.1
			c8,0,16-0.1,23.9-0.1c0,2.5,0.1,5.1,0.1,7.6l0-0.1c-3.7,0.2-7.5,0.4-11.2,0.5c-5,0.1-5,0-5,5c0,0.9,0,1.8,0,3.1c1.5,0,2.7,0,4,0
			c1.3,0,2.5,0,4,0c0,5.3,0,10.4,0,16.1c-2.7,0-5.4,0-8.2,0l0.1,0.1c0-2.7,0-5.4,0-8.1c-2.8,0-5.2,0-7.8,0c0,2.8,0,5.5,0,8.1
			L153.7,185.2z"/>
		<path d="M209.7,153.1c-2.6,0-5.1,0-8,0c0,2.5,0,5,0,7.6c-2.8,0-5.3,0-8.1,0c0-2.5,0-4.9,0-7.6c-5.6,0-10.9,0-16.2,0
			c0-5.2,0-10.5,0-15.9c5.4,0,10.6,0,16,0c0,2.5,0,5,0,7.9c5.5,0,10.7,0,16.3,0C209.7,148,209.7,150.5,209.7,153.1z"/>
		<path d="M185.8,120.9c0.1-2.7,0.2-5.3,0.2-8l0,0c5,0,10.1,0,15.3,0c0,5.6,0,10.8,0,16.1c-2.5,0-4.9,0-7.6,0c0-2.5,0-5,0-7.7
			C190.9,121.1,188.3,121,185.8,120.9L185.8,120.9z"/>
		<path d="M185.8,120.8c0,2.6,0,5.3,0,8.1c-2.9,0-5.4,0-8.1,0c0-2.5,0-5,0-8.1C180.4,120.9,183.1,120.9,185.8,120.8
			C185.8,120.9,185.8,120.8,185.8,120.8z"/>
		<path d="M186.1,112.9c-2.7,0-5.5,0-8.4,0c0-2.4,0-4.8,0-7.5c2.5,0,5,0,7.7,0C185.6,107.9,185.8,110.4,186.1,112.9L186.1,112.9z"/>
		<path d="M217.5,120.8c0,2.8,0,5.6,0,8.4c-2.5,0-5,0-7.6,0c0-2.8,0-5.3,0-8.1C212.4,121.1,214.9,120.9,217.5,120.8z"/>
		<path d="M225.8,160.8c0-2.5,0-4.9,0-7.6c2.4,0,4.9,0,7.6,0c0,2.5,0,4.9,0,7.5C230.8,160.8,228.2,160.8,225.8,160.8
			C225.7,160.8,225.8,160.8,225.8,160.8z"/>
		<path d="M217.5,160.9c-2.5,0-4.9,0-7.8,0c0-2.6,0-5.2,0-7.8c2.5,0,5,0,7.8,0C217.5,155.8,217.5,158.3,217.5,160.9z"/>
		<path d="M145.9,153.1c0-2.5,0-5,0-7.9c2.6,0,5.2,0,7.8,0c0,2.6,0,5.2-0.1,7.8l0.1-0.1C151.1,153,148.4,153,145.9,153.1
			C145.8,153,145.9,153.1,145.9,153.1z"/>
		<path d="M153.6,209.1c0-8,0-15.9,0.1-23.9l-0.1,0.1c2.6,0,5.2,0,7.8,0l-0.1-0.1c0,7.9,0,15.7,0,23.9
			C158.7,209.1,156.1,209.1,153.6,209.1z"/>
		<path d="M177.7,160.6c2.1,0.1,4.2,0.1,6.2,0.5c0.7,0.1,1.6,1.1,1.7,1.7c0.2,2,0.1,4,0.1,6.2c-2.8,0-5.3,0-8,0
			C177.7,166.1,177.7,163.3,177.7,160.6C177.7,160.5,177.7,160.6,177.7,160.6z"/>
		<path d="M193.6,185.3c-2.6,0-5.2,0-7.8,0c0-2.7,0-5.3,0-8.2c2.5,0,5,0,7.8,0C193.6,179.8,193.6,182.6,193.6,185.3z"/>
		<path d="M217.3,216.8c-2.6,0-4.9,0-7.5,0c0-2.5,0-4.9,0-7.6c2.5,0,4.9,0,7.5,0C217.3,211.7,217.3,214.1,217.3,216.8z"/>
		<path d="M41.3,129c0.2-2.5,0.3-5.1,0.5-7.9c-2.9,0-5.3,0-7.9,0c0-2.8,0-5.2,0-7.9c10.5,0,21,0,32,0c0-2.8,0-5.3,0-7.9
			c2.7,0.1,5.4,0.2,8.1,0.3l0,0c0,5,0,10.1,0,15.4c2.5,0,4.9,0,7.5,0c0,2.8,0,5.4,0,8c-5.2,0-10.2,0-15.7,0c0-2,0.1-4-0.1-5.9
			c-0.1-0.7-0.9-1.9-1.5-1.9c-4.7-0.2-9.4-0.1-14.3-0.1c0,2.9,0,5.6,0,8.2C47,129.1,44.1,129,41.3,129C41.3,129,41.3,129,41.3,129z"
			/>
		<path d="M121.5,129.2c0,7.8,0,15.7,0,23.7c-2.5,0-4.9,0-7.7,0c0-5.1,0-10.3,0-15.9c-5.6,0-10.9,0-16.2,0
			c0.1-5.5,0.2-10.9,0.3-16.4l-0.1,0.1c1.9,0.1,3.8,0.4,5.7,0.3c1.9-0.1,2.4,0.6,2.3,2.4c-0.1,1.8,0,3.6,0,5.8
			C111.2,129.2,116.3,129.2,121.5,129.2z"/>
		<path d="M105.9,73.1c10.6,0,21.1,0,31.7,0c0,5.2,0,10.5,0,15.9c-2.6,0-5,0-7.8,0c0-2.5,0-5.1,0-7.8c-5.4,0-10.5,0-16.3,0
			c0,2.7,0,5.4,0,8.1l0.1-0.1c-2.5,0-5,0-7.7,0C105.9,83.7,105.9,78.4,105.9,73.1z"/>
		<path d="M113.5,89.4c2.6,0,5.1,0,7.9,0c0,5.1,0,10.2,0,15.6c-7.8,0-15.6,0-23.6,0c0-2.6,0-5.1,0-7.8c5.2,0,10.3,0,15.8,0
			C113.6,94.4,113.6,91.8,113.5,89.4C113.6,89.3,113.5,89.4,113.5,89.4z"/>
		<path d="M129.8,129.2c-2.8,0-5.6,0-8.4,0c0-2.6,0-5.1,0-8c-2.4,0-4.9,0-7.5,0c0-2.8,0-5.2,0-7.9c5.1,0,10.3,0,15.9,0
			C129.8,118.6,129.8,123.9,129.8,129.2z"/>
		<path d="M89.8,73.2c0-5.4,0-10.8,0-16.2c2.6,0,5.2,0,7.8,0c0,2.6,0,5.1,0,8.1c2.7,0,5.3,0,8.3,0c0,3,0,5.5,0,8.1
			C100.6,73.2,95.2,73.2,89.8,73.2z"/>
		<path d="M74,105.6c0-2.7,0-5.5,0-8.4c5.1,0,10.3,0,15.6,0c0,2.6,0,5.1,0,8.4C84.3,105.6,79.1,105.6,74,105.6
			C73.9,105.6,74,105.6,74,105.6z"/>
		<path d="M97.6,136.9c0,2.6,0,5.3,0,8.4c-5.6,0-10.9,0-16.2,0c0-2.6,0-5.3,0-8.4C87.1,136.9,92.4,136.9,97.6,136.9z"/>
		<path d="M146.1,97.2c-0.1,2-0.1,4-0.4,6c-0.1,0.7-1,1.9-1.5,1.9c-4.7,0.2-9.4,0.1-14.2,0.1c0-2.8,0-5.3,0-8
			C135.3,97.2,140.7,97.2,146.1,97.2C146.1,97.2,146.1,97.2,146.1,97.2z"/>
		<path d="M90,80.7c2.4,0.2,4.9,0.4,7.4,0.6c0,2.6,0,5,0,7.7c-2.4,0-4.9,0-7.4,0C90.1,86.3,90.1,83.4,90,80.7L90,80.7z"/>
		<path d="M137.5,73.2c0-2.6,0-5.1,0-7.8c2.9,0,5.4,0,8.1,0c0.1,2.7,0.2,5.3,0.3,7.8C143.1,73.2,140.3,73.2,137.5,73.2z"/>
		<path d="M145.9,120.9c0-2.5,0-4.9,0-7.6c2.4,0,4.9,0,7.7,0c0,2.5,0,5.1,0,7.6l0.1-0.1C151,120.8,148.4,120.8,145.9,120.9
			L145.9,120.9z"/>
		<path d="M97.8,120.6c-2.5,0.2-5,0.4-7.8,0.6c0-2.8,0-5.3,0-8c2.5,0,4.9,0,7.7,0C97.7,115.8,97.7,118.2,97.8,120.6
			C97.7,120.7,97.8,120.6,97.8,120.6z"/>
		<path d="M57.7,137c-2.5,0-5.1,0-7.8,0c0-2.8,0-5.3,0-7.8c2.5,0,5,0,7.8,0C57.7,132,57.7,134.5,57.7,137z"/>
		<path d="M145.9,169.1c-2.7,0-5.3,0-8.2,0c0,5.3,0,10.5,0,15.8c-2.7,0-5.1,0-7.7,0c0-7.9,0-15.7,0-23.8c2.4,0,4.8,0,7.5,0
			c0-2.9,0-5.4,0-8l-0.1,0.1c2.9,0,5.7-0.1,8.5-0.1l-0.1-0.1C145.8,158.4,145.8,163.8,145.9,169.1L145.9,169.1z"/>
		<path d="M113.6,176.8c0-5.2,0-10.3,0-15.7c2.7,0,5.1,0,7.8,0c0,5.2,0,10.3,0,15.6C118.8,176.8,116.1,176.8,113.6,176.8
			C113.5,176.8,113.6,176.8,113.6,176.8z"/>
		<path d="M137.4,153.1c-2.5,0-4.9,0-7.6,0c0-2.8,0-5.2,0-7.8c2.5,0,4.9,0,7.5,0C137.4,148,137.4,150.6,137.4,153.1L137.4,153.1z"/>
		<path d="M41.3,129c0.2,2.5,0.4,5.1,0.7,7.8c-2.8,0-5.3,0-8,0c0-2.4,0-4.9,0-7.7C36.5,129,38.9,129,41.3,129
			C41.3,129,41.3,129,41.3,129z"/>
		<path d="M26,177c0-2.5,0-4.9,0-7.8c2.6,0,5.2,0,7.8,0c0,2.5,0,5,0,7.8C31.1,177,28.5,177,26,177z"/>
		<path d="M41.5,248.9c-8,0-15.8,0-23.7,0c0-7.9,0-15.7,0-23.7c7.9,0,15.7,0,23.7,0C41.5,233.1,41.5,240.9,41.5,248.9z"/>
		<path d="M249.4,41c-7.8,0-15.5,0-23.5,0c0-7.9,0-15.7,0-23.7c7.8,0,15.6,0,23.5,0C249.4,25.1,249.4,32.8,249.4,41z"/>
		<path d="M17.8,41c0-8,0-15.8,0-23.7c7.9,0,15.7,0,23.7,0c0,7.9,0,15.7,0,23.7C33.6,41,25.8,41,17.8,41z"/>
		<path d="M129.7,57c0,2.6,0,5.2,0,8c-5.3,0-10.5,0-15.9,0c0-5.1,0-10.2,0-15.6c2.5,0,4.9,0,7.7,0c0,2.4,0,4.9,0,7.7
			C124.5,57.1,127.2,57.1,129.7,57C129.8,57.1,129.7,57,129.7,57z"/>
		<path d="M97.5,57.1c0-2.6,0-5.2,0-7.8c2.6,0,5.3,0,8.1,0c0,2.7,0,5.1,0,7.8C102.8,57.1,100.2,57.1,97.5,57.1z"/>
		<path class="st0" d="M145.8,120.8c2.6,0,5.2,0,7.8,0c0,2.6,0,5.3,0,8.1c-2.6,0-5.1,0-7.8,0C145.8,126.3,145.8,123.6,145.8,120.8z"
			/>
		<path class="st0" d="M145.8,169.2c0-5.4,0-10.8,0-16.2c2.6,0,5.2,0,7.8,0c0,5.2,0,10.5,0,16.2
			C150.9,169.2,148.4,169.2,145.8,169.2z"/>
		<path class="st0" d="M161.4,185.3c-2.6,0-5.2,0-7.8,0c0-2.6,0-5.3,0-8.1c2.6,0,5.1,0,7.8,0C161.4,179.9,161.4,182.6,161.4,185.3z"
			/>
	</g>
</g>
</svg>
